<svg width="429" height="250" viewBox="0 0 429 250" fill="none" xmlns="http://www.w3.org/2000/svg">
<g clip-path="url(#clip0)">
<path d="M425.084 222.561H0V223.555H425.084V222.561Z" fill="#3F3D56"/>
<path d="M55.0057 42.9066C51.3558 34.2447 42.0647 32.6089 42.0647 32.6089C42.0647 32.6089 33.1187 30.2085 25.6476 41.6403C18.684 52.2956 9.70388 62.2788 21.0924 66.5318L24.1006 60.1775L24.4615 67.4903C26.1176 67.8372 27.7913 68.0926 29.4751 68.2555C42.1071 69.5463 54.0148 71.6924 54.2353 67.1008C54.5285 60.997 58.5177 51.241 55.0057 42.9066Z" fill="#2F2E41"/>
<path d="M16.4669 112.272L15.6541 133.119C15.6541 133.119 7.11935 149.878 14.0284 149.47C20.9375 149.061 20.1247 133.119 20.1247 133.119L22.5632 113.498L16.4669 112.272Z" fill="#FFB8B8"/>
<path d="M63.2043 108.593L65.6428 129.44C65.6428 129.44 72.9583 140.477 67.2685 144.156C61.5787 147.835 61.5787 131.075 61.5787 131.075L55.4824 109.82L63.2043 108.593Z" fill="#FFB8B8"/>
<path d="M54.6696 147.426L47.3541 176.04C47.3541 176.04 44.1028 187.485 39.6322 193.208L38.0066 196.478L31.5039 195.661L35.9745 177.266L38.8194 143.338L54.6696 147.426Z" fill="#FFB8B8"/>
<path opacity="0.1" d="M54.6696 147.426L47.3541 176.04C47.3541 176.04 44.1028 187.485 39.6322 193.208L38.0066 196.478L31.5039 195.661L35.9745 177.266L38.8194 143.338L54.6696 147.426Z" fill="black"/>
<path d="M29.8962 191.097L41.0108 193.685L36.43 204.546C36.43 204.546 38.2918 211.048 36.5183 214.491C34.7448 217.935 35.0008 224.182 35.0008 224.182L32.592 223.801C32.592 223.801 26.7436 234.874 19.8333 231.711C12.9231 228.547 20.2729 221.021 20.2729 221.021C20.2729 221.021 26.2478 209.14 27.0066 204.294C27.7654 199.449 29.8962 191.097 29.8962 191.097Z" fill="#2F2E41"/>
<path opacity="0.1" d="M29.8962 191.097L41.0108 193.685L36.43 204.546C36.43 204.546 38.2918 211.048 36.5183 214.491C34.7448 217.935 35.0008 224.182 35.0008 224.182L32.592 223.801C32.592 223.801 26.7436 234.874 19.8333 231.711C12.9231 228.547 20.2729 221.021 20.2729 221.021C20.2729 221.021 26.2478 209.14 27.0066 204.294C27.7654 199.449 29.8962 191.097 29.8962 191.097Z" fill="black"/>
<path d="M20.5312 141.294L26.6275 171.952C26.6275 171.952 24.5954 187.076 27.0339 196.478L29.4724 205.471H37.6007V172.361C37.6007 172.361 38.0072 145.382 36.7879 143.338C35.5687 141.294 20.5312 141.294 20.5312 141.294Z" fill="#FFB8B8"/>
<path d="M39.2263 202.201L27.8467 203.018L30.6916 214.464C30.6916 214.464 27.8467 220.595 29.0659 224.274C30.2852 227.953 29.0659 234.084 29.0659 234.084H31.5044C31.5044 234.084 35.5686 245.939 42.8841 243.895C50.1996 241.851 44.1034 233.267 44.1034 233.267C44.1034 233.267 40.0392 220.595 40.0392 215.69C40.0392 210.785 39.2263 202.201 39.2263 202.201Z" fill="#2F2E41"/>
<path d="M42.0719 60.7677C48.1322 60.7677 53.0451 55.8264 53.0451 49.731C53.0451 43.6356 48.1322 38.6943 42.0719 38.6943C36.0115 38.6943 31.0986 43.6356 31.0986 49.731C31.0986 55.8264 36.0115 60.7677 42.0719 60.7677Z" fill="#FFB8B8"/>
<path d="M34.5523 54.0229C34.5523 54.0229 35.3652 67.921 32.9267 68.7385C30.4882 69.5561 45.5256 68.7385 45.5256 68.7385C45.5256 68.7385 43.4935 60.1544 45.5256 57.7018C47.5576 55.2493 34.5523 54.0229 34.5523 54.0229Z" fill="#FFB8B8"/>
<path d="M45.729 66.4903C45.729 66.4903 35.1622 65.6728 33.1301 66.4903C31.0981 67.3078 25.4082 71.3955 25.4082 71.3955L28.2531 97.1478L51.4189 102.053L55.0766 96.739L58.7344 88.9724L57.1087 79.1621L56.7023 73.4393L45.729 66.4903Z" fill="#FFDA63"/>
<path d="M23.3752 73.0308C23.3752 73.0308 18.0918 74.2571 17.6854 78.3447C17.279 82.4324 17.279 92.6515 17.6854 94.2866C18.0918 95.9217 17.6854 96.7392 17.279 97.148C16.8726 97.5568 16.0597 96.7392 16.8726 97.9655C17.6854 99.1918 17.6854 99.1918 17.279 100.418C16.8726 101.644 15.6533 100.009 16.4661 102.053C17.279 104.097 17.6854 104.506 17.279 104.915C16.8726 105.323 15.6533 114.725 15.6533 114.725L22.5624 115.951L29.4715 91.834L23.3752 73.0308Z" fill="#FFDA63"/>
<path d="M55.0773 73.0308C55.8491 73.0741 56.5954 73.3244 57.2386 73.7556C57.8818 74.1869 58.3985 74.7835 58.7351 75.4834C59.9543 77.936 63.2057 93.8778 62.7993 95.1041C62.3929 96.3304 61.58 94.6954 62.3928 97.148C63.2057 99.6006 62.3928 99.1918 62.7993 100.827C63.2057 102.462 61.1736 100.827 62.7993 102.462C64.4249 104.097 65.2378 104.506 64.4249 105.323C63.6121 106.141 62.3928 104.506 63.6121 106.141C64.8313 107.776 64.8313 110.229 64.8313 110.229L55.0773 112.272L52.2324 89.3814L55.0773 73.0308Z" fill="#FFDA63"/>
<path d="M22.1038 72.3803L24.1004 71.3763C24.3023 71.2748 24.5221 71.2145 24.7473 71.1989C24.9725 71.1833 25.1985 71.2127 25.4123 71.2855C25.6261 71.3582 25.8235 71.4728 25.993 71.6227C26.1625 71.7725 26.3009 71.9547 26.4 72.1586L35.5686 91.0161L45.729 97.5563L53.0445 94.2862C53.0445 94.2862 58.3279 86.1109 56.7022 82.0232C55.6 79.2517 54.3088 74.9876 53.5915 72.5289C53.5495 72.3841 53.5528 72.2299 53.6009 72.0871C53.6491 71.9443 53.7398 71.8199 53.8607 71.7308C53.9816 71.6417 54.1269 71.5921 54.2768 71.589C54.4267 71.5858 54.5739 71.6291 54.6984 71.713L56.0837 72.6418C56.5271 72.9391 56.8362 73.4001 56.9441 73.9249L59.9536 88.5634L55.8894 97.1475V105.323L58.7343 149.47C58.7343 149.47 48.1675 147.835 37.6006 145.791C27.0338 143.747 13.6221 142.112 13.6221 142.112C13.6221 142.112 20.5312 106.14 26.221 100.009C26.221 100.009 26.221 95.5125 27.0338 95.1037C27.8466 94.6949 28.6595 91.8336 28.6595 91.8336L21.2978 74.5963C21.1257 74.1932 21.1133 73.7392 21.2631 73.3272C21.4129 72.9153 21.7137 72.5765 22.1038 72.3803Z" fill="#2F2E41"/>
<path d="M52.9426 39.7595L43.6314 34.854L30.7726 36.861L28.1123 48.679L34.7349 48.4225L36.5848 44.081V48.3511L39.6409 48.233L41.4144 41.3205L42.5227 48.679L53.3859 48.4558L52.9426 39.7595Z" fill="#2F2E41"/>
<path d="M30.8941 51.877C31.5674 51.877 32.1133 50.9162 32.1133 49.731C32.1133 48.5458 31.5674 47.585 30.8941 47.585C30.2207 47.585 29.6748 48.5458 29.6748 49.731C29.6748 50.9162 30.2207 51.877 30.8941 51.877Z" fill="#FFB8B8"/>
<path d="M357.528 0H83.1123V141.554H357.528V0Z" fill="#3F3D56"/>
<path d="M200.751 77.9804H143.856C143.772 77.9804 143.688 77.9637 143.61 77.9311C143.531 77.8985 143.46 77.8508 143.401 77.7906C143.341 77.7304 143.293 77.659 143.261 77.5804C143.229 77.5017 143.212 77.4174 143.212 77.3323V54.443C143.212 54.3579 143.229 54.2736 143.261 54.1949C143.293 54.1163 143.341 54.0449 143.401 53.9847C143.46 53.9245 143.531 53.8768 143.61 53.8442C143.688 53.8116 143.772 53.7949 143.856 53.7949H200.751C200.836 53.7949 200.92 53.8116 200.998 53.8441C201.076 53.8767 201.147 53.9244 201.207 53.9846C201.267 54.0448 201.314 54.1163 201.347 54.1949C201.379 54.2736 201.396 54.3579 201.396 54.443V77.3323C201.396 77.4174 201.379 77.5017 201.347 77.5804C201.314 77.659 201.267 77.7305 201.207 77.7907C201.147 77.8509 201.076 77.8986 200.998 77.9311C200.92 77.9637 200.836 77.9804 200.751 77.9804ZM144.501 76.6843H200.107V55.091H144.501V76.6843Z" fill="white"/>
<path d="M168.037 93.002H143.856C143.772 93.002 143.688 92.9853 143.61 92.9527C143.531 92.9201 143.46 92.8724 143.401 92.8122C143.341 92.7521 143.293 92.6806 143.261 92.602C143.229 92.5233 143.212 92.4391 143.212 92.3539V82.6256C143.212 82.5405 143.229 82.4562 143.261 82.3776C143.293 82.2989 143.341 82.2275 143.401 82.1673C143.46 82.1071 143.531 82.0594 143.61 82.0268C143.688 81.9943 143.772 81.9775 143.856 81.9775H168.037C168.121 81.9775 168.205 81.9942 168.283 82.0268C168.362 82.0593 168.433 82.1071 168.492 82.1672C168.552 82.2274 168.6 82.2989 168.632 82.3775C168.664 82.4562 168.681 82.5405 168.681 82.6256V92.3539C168.681 92.4391 168.664 92.5234 168.632 92.602C168.6 92.6807 168.552 92.7521 168.492 92.8123C168.433 92.8725 168.362 92.9202 168.283 92.9528C168.205 92.9853 168.121 93.002 168.037 93.002ZM144.501 91.7059H167.392V83.2736H144.501V91.7059Z" fill="white"/>
<path d="M200.752 93.002H176.571C176.486 93.002 176.403 92.9853 176.324 92.9528C176.246 92.9202 176.175 92.8725 176.115 92.8123C176.056 92.7521 176.008 92.6807 175.976 92.602C175.943 92.5234 175.927 92.4391 175.927 92.3539V82.6256C175.927 82.5405 175.943 82.4562 175.976 82.3775C176.008 82.2989 176.056 82.2274 176.115 82.1672C176.175 82.1071 176.246 82.0593 176.324 82.0268C176.403 81.9942 176.486 81.9775 176.571 81.9775H200.752C200.836 81.9775 200.92 81.9942 200.998 82.0268C201.076 82.0593 201.147 82.1071 201.207 82.1672C201.267 82.2274 201.315 82.2989 201.347 82.3775C201.379 82.4562 201.396 82.5405 201.396 82.6256V92.3539C201.396 92.4391 201.379 92.5234 201.347 92.602C201.315 92.6807 201.267 92.7521 201.207 92.8123C201.147 92.8725 201.076 92.9202 200.998 92.9528C200.92 92.9853 200.836 93.002 200.752 93.002ZM177.215 91.7059H200.107V83.2736H177.215V91.7059Z" fill="white"/>
<path d="M200.04 77.2651C199.96 77.265 199.88 77.2498 199.805 77.2202L143.621 55.0459C143.542 55.0149 143.47 54.9685 143.409 54.9094C143.348 54.8504 143.299 54.7799 143.266 54.7019C143.232 54.6239 143.214 54.54 143.212 54.4549C143.21 54.3699 143.226 54.2853 143.256 54.2061C143.287 54.1269 143.333 54.0546 143.392 53.9934C143.451 53.9321 143.521 53.883 143.598 53.849C143.676 53.815 143.759 53.7966 143.844 53.795C143.929 53.7934 144.013 53.8086 144.091 53.8397L200.275 76.0139C200.415 76.0691 200.531 76.1716 200.604 76.3037C200.676 76.4358 200.701 76.5892 200.673 76.7375C200.645 76.8859 200.567 77.0197 200.451 77.116C200.336 77.2123 200.19 77.2651 200.04 77.2651Z" fill="white"/>
<path d="M143.857 77.9804C143.707 77.9805 143.562 77.928 143.446 77.8322C143.331 77.7363 143.252 77.6029 143.224 77.455C143.195 77.3071 143.219 77.1538 143.291 77.0216C143.363 76.8894 143.478 76.7865 143.617 76.7305L200.512 53.8411C200.671 53.7778 200.848 53.7804 201.005 53.8482C201.161 53.916 201.285 54.0437 201.348 54.203C201.412 54.3624 201.41 54.5406 201.342 54.6984C201.275 54.8562 201.149 54.9808 200.99 55.0448L144.096 77.9342C144.02 77.9648 143.939 77.9805 143.857 77.9804Z" fill="white"/>
<path d="M167.681 92.6445C167.6 92.6444 167.52 92.6292 167.445 92.5995L143.975 83.3002C143.817 83.237 143.689 83.113 143.622 82.9554C143.554 82.7979 143.551 82.6197 143.613 82.4599C143.676 82.3002 143.799 82.1719 143.955 82.1033C144.112 82.0347 144.289 82.0314 144.448 82.094L167.917 91.3933C168.057 91.4485 168.173 91.5511 168.245 91.6832C168.318 91.8154 168.342 91.9689 168.314 92.1172C168.286 92.2654 168.208 92.3993 168.092 92.4955C167.977 92.5918 167.831 92.6445 167.681 92.6445Z" fill="white"/>
<path d="M144.212 92.6445C144.06 92.6446 143.914 92.5909 143.798 92.493C143.681 92.395 143.603 92.2591 143.577 92.1091C143.551 91.959 143.578 91.8044 143.654 91.6725C143.73 91.5406 143.849 91.4397 143.992 91.3877L167.461 82.8042C167.541 82.7746 167.625 82.7612 167.71 82.7647C167.795 82.7681 167.878 82.7884 167.955 82.8243C168.032 82.8602 168.101 82.911 168.158 82.9739C168.216 83.0367 168.26 83.1103 168.289 83.1905C168.318 83.2707 168.331 83.3558 168.327 83.441C168.324 83.5263 168.303 83.6099 168.267 83.6872C168.231 83.7644 168.18 83.8337 168.117 83.8911C168.055 83.9486 167.981 83.993 167.901 84.0218L144.432 92.6053C144.361 92.6312 144.287 92.6445 144.212 92.6445Z" fill="white"/>
<path d="M200.396 92.6445C200.319 92.6444 200.242 92.6305 200.17 92.6033L177.412 84.0198C177.252 83.9594 177.123 83.8375 177.052 83.681C176.981 83.5244 176.975 83.3461 177.035 83.1851C177.095 83.0241 177.217 82.8938 177.372 82.8227C177.528 82.7516 177.705 82.7456 177.865 82.806L200.623 91.3895C200.764 91.4429 200.883 91.5444 200.957 91.6765C201.032 91.8085 201.058 91.9627 201.031 92.1121C201.004 92.2615 200.925 92.3967 200.81 92.4939C200.694 92.5912 200.547 92.6445 200.396 92.6445Z" fill="white"/>
<path d="M177.638 91.9293C177.486 91.9293 177.338 91.8749 177.222 91.7758C177.106 91.6767 177.028 91.5394 177.003 91.3882C176.978 91.237 177.007 91.0817 177.085 90.95C177.163 90.8183 177.285 90.7186 177.429 90.6687L200.186 82.8003C200.267 82.7722 200.351 82.7603 200.436 82.7653C200.521 82.7702 200.604 82.7919 200.68 82.8292C200.756 82.8664 200.824 82.9185 200.881 82.9823C200.937 83.0462 200.98 83.1206 201.008 83.2013C201.035 83.2819 201.047 83.3673 201.041 83.4525C201.036 83.5376 201.014 83.6208 200.977 83.6974C200.939 83.774 200.887 83.8424 200.824 83.8987C200.76 83.9551 200.686 83.9981 200.605 84.0255L177.848 91.8939C177.78 91.9173 177.709 91.9293 177.638 91.9293Z" fill="white"/>
<path d="M108.74 41.4679C106.829 41.4679 104.96 40.8978 103.371 39.8296C101.781 38.7615 100.542 37.2433 99.8109 35.4671C99.0794 33.6909 98.888 31.7363 99.2609 29.8507C99.6338 27.9651 100.554 26.233 101.906 24.8735C103.258 23.514 104.98 22.5882 106.855 22.2132C108.729 21.8381 110.673 22.0306 112.439 22.7663C114.205 23.5021 115.714 24.748 116.776 26.3466C117.838 27.9451 118.405 29.8246 118.405 31.7471C118.402 34.3244 117.383 36.7952 115.571 38.6176C113.759 40.44 111.302 41.465 108.74 41.4679ZM108.74 23.3225C107.083 23.3225 105.464 23.8166 104.086 24.7423C102.709 25.668 101.635 26.9838 101.001 28.5232C100.367 30.0626 100.202 31.7565 100.525 33.3907C100.848 35.0249 101.646 36.5261 102.817 37.7043C103.989 38.8825 105.481 39.6848 107.106 40.0099C108.731 40.335 110.415 40.1682 111.946 39.5305C113.476 38.8929 114.784 37.8131 115.705 36.4276C116.625 35.0422 117.116 33.4134 117.116 31.7471C117.114 29.5136 116.23 27.3722 114.66 25.7928C113.09 24.2134 110.961 23.325 108.74 23.3225Z" fill="white"/>
<path d="M172.528 41.4679C170.617 41.4679 168.748 40.8978 167.159 39.8296C165.569 38.7615 164.33 37.2433 163.599 35.4671C162.867 33.6909 162.676 31.7363 163.049 29.8507C163.422 27.9651 164.342 26.233 165.694 24.8735C167.046 23.514 168.768 22.5882 170.643 22.2132C172.517 21.8381 174.461 22.0306 176.227 22.7663C177.993 23.5021 179.502 24.748 180.564 26.3466C181.626 27.9451 182.193 29.8246 182.193 31.7471C182.19 34.3244 181.171 36.7953 179.359 38.6176C177.547 40.44 175.091 41.4651 172.528 41.4679ZM172.528 23.3225C170.872 23.3225 169.252 23.8166 167.875 24.7423C166.497 25.668 165.424 26.9837 164.79 28.5231C164.156 30.0626 163.99 31.7565 164.313 33.3907C164.636 35.0249 165.434 36.5261 166.605 37.7043C167.777 38.8825 169.269 39.6848 170.894 40.0099C172.519 40.335 174.203 40.1681 175.734 39.5305C177.264 38.8929 178.572 37.8131 179.493 36.4276C180.413 35.0422 180.904 33.4134 180.904 31.7471C180.902 29.5136 180.019 27.3722 178.448 25.7929C176.878 24.2135 174.749 23.3251 172.528 23.3225Z" fill="white"/>
<path d="M251.78 41.4679C249.869 41.4679 248 40.8978 246.411 39.8296C244.821 38.7615 243.582 37.2433 242.851 35.4671C242.119 33.6909 241.928 31.7363 242.301 29.8507C242.674 27.9651 243.594 26.233 244.946 24.8735C246.298 23.514 248.02 22.5882 249.895 22.2132C251.769 21.8381 253.713 22.0306 255.479 22.7663C257.245 23.5021 258.754 24.748 259.816 26.3466C260.878 27.9451 261.445 29.8246 261.445 31.7471C261.442 34.3244 260.423 36.7953 258.611 38.6176C256.799 40.44 254.343 41.4651 251.78 41.4679ZM251.78 23.3225C250.123 23.3225 248.504 23.8166 247.127 24.7423C245.749 25.668 244.675 26.9837 244.041 28.5231C243.407 30.0625 243.242 31.7565 243.565 33.3907C243.888 35.0249 244.686 36.5261 245.857 37.7043C247.029 38.8825 248.521 39.6848 250.146 40.0099C251.771 40.335 253.455 40.1681 254.986 39.5305C256.516 38.8929 257.824 37.8131 258.745 36.4276C259.665 35.0422 260.156 33.4134 260.156 31.7471C260.154 29.5136 259.27 27.3722 257.7 25.7929C256.13 24.2135 254.001 23.3251 251.78 23.3225Z" fill="white"/>
<path d="M334.812 41.4679C332.901 41.4679 331.032 40.8978 329.443 39.8296C327.853 38.7615 326.615 37.2433 325.883 35.4671C325.152 33.6909 324.96 31.7363 325.333 29.8507C325.706 27.9651 326.627 26.233 327.978 24.8735C329.33 23.514 331.052 22.5882 332.927 22.2132C334.802 21.8381 336.745 22.0306 338.511 22.7663C340.277 23.5021 341.786 24.748 342.848 26.3466C343.91 27.9451 344.477 29.8246 344.477 31.7471C344.474 34.3244 343.455 36.7953 341.643 38.6176C339.831 40.44 337.375 41.4651 334.812 41.4679ZM334.812 23.3225C333.156 23.3225 331.536 23.8166 330.159 24.7423C328.781 25.668 327.708 26.9838 327.074 28.5232C326.44 30.0626 326.274 31.7565 326.597 33.3907C326.92 35.0249 327.718 36.5261 328.889 37.7043C330.061 38.8825 331.553 39.6848 333.178 40.0099C334.803 40.335 336.487 40.1682 338.018 39.5305C339.548 38.8929 340.857 37.8131 341.777 36.4276C342.697 35.0422 343.189 33.4134 343.189 31.7471C343.186 29.5136 342.303 27.3722 340.732 25.7929C339.162 24.2135 337.033 23.3251 334.812 23.3225Z" fill="white"/>
<path d="M170.818 34.7475V34.2571L171.441 33.6489C172.939 32.2148 173.617 31.4516 173.625 30.5624C173.641 30.4055 173.622 30.247 173.569 30.0986C173.516 29.9502 173.43 29.8156 173.319 29.705C173.207 29.5943 173.072 29.5104 172.923 29.4593C172.775 29.4082 172.617 29.3914 172.461 29.41C172.001 29.427 171.561 29.6032 171.215 29.9087L170.962 29.3461C171.429 28.9558 172.017 28.7436 172.624 28.7468C172.857 28.7259 173.092 28.7552 173.313 28.8328C173.535 28.9104 173.737 29.0345 173.907 29.1968C174.077 29.3591 174.21 29.5559 174.299 29.7741C174.387 29.9923 174.428 30.227 174.419 30.4624C174.419 31.5516 173.634 32.4325 172.398 33.6305L171.928 34.0666V34.0843H174.564V34.7475H170.818Z" fill="white"/>
<path d="M108.527 29.5411H108.509L107.489 30.0949L107.336 29.4867L108.617 28.7969H109.294V34.6977H108.527V29.5411Z" fill="white"/>
<path d="M335.39 34.6971V33.0908H332.664V32.5643L335.282 28.7969H336.139V32.4643H336.96V33.0909H336.139V34.6971H335.39ZM335.39 32.4643V30.4949C335.39 30.186 335.399 29.8772 335.418 29.5683H335.39C335.21 29.9139 335.065 30.1677 334.903 30.4404L333.468 32.446V32.4643L335.39 32.4643Z" fill="white"/>
<path d="M250.789 33.7806C251.183 34.015 251.63 34.1432 252.088 34.1527C253.109 34.1527 253.425 33.499 253.415 33.0091C253.406 32.1826 252.666 31.8288 251.899 31.8288H251.456V31.2295H251.899C252.477 31.2295 253.208 30.9302 253.208 30.2309C253.208 29.7587 252.91 29.341 252.179 29.341C251.758 29.353 251.35 29.489 251.006 29.7322L250.798 29.1512C251.254 28.8521 251.788 28.6941 252.332 28.6968C253.487 28.6968 254.011 29.3866 254.011 30.1043C254.005 30.4227 253.896 30.7305 253.7 30.981C253.505 31.2315 253.234 31.4112 252.927 31.4928V31.5111C253.29 31.5639 253.622 31.746 253.862 32.0243C254.102 32.3025 254.235 32.6583 254.236 33.0268C254.236 33.9711 253.505 34.7976 252.097 34.7976C251.563 34.8045 251.036 34.6664 250.572 34.3976L250.789 33.7806Z" fill="white"/>
<path d="M281.936 92.3538H225.041C224.956 92.3539 224.872 92.3372 224.794 92.3046C224.716 92.2721 224.645 92.2243 224.585 92.1641C224.525 92.104 224.478 92.0325 224.445 91.9538C224.413 91.8752 224.396 91.7909 224.396 91.7058V55.0909C224.396 55.0058 224.413 54.9215 224.445 54.8429C224.478 54.7642 224.525 54.6927 224.585 54.6326C224.645 54.5724 224.716 54.5246 224.794 54.4921C224.872 54.4595 224.956 54.4428 225.041 54.4429H281.936C282.021 54.4428 282.104 54.4595 282.183 54.4921C282.261 54.5246 282.332 54.5724 282.392 54.6326C282.451 54.6927 282.499 54.7642 282.531 54.8429C282.564 54.9215 282.58 55.0058 282.58 55.0909V91.7058C282.58 91.7909 282.564 91.8752 282.531 91.9538C282.499 92.0325 282.451 92.104 282.392 92.1641C282.332 92.2243 282.261 92.2721 282.183 92.3046C282.104 92.3372 282.021 92.3539 281.936 92.3538ZM225.685 91.0577H281.292V55.739H225.685V91.0577Z" fill="white"/>
<path d="M271.754 62.5437H236.961C236.79 62.5437 236.626 62.4754 236.505 62.3538C236.384 62.2323 236.316 62.0675 236.316 61.8956C236.316 61.7237 236.384 61.5589 236.505 61.4374C236.626 61.3158 236.79 61.2476 236.961 61.2476H271.754C271.925 61.2476 272.089 61.3158 272.21 61.4374C272.331 61.5589 272.399 61.7237 272.399 61.8956C272.399 62.0675 272.331 62.2323 272.21 62.3538C272.089 62.4754 271.925 62.5437 271.754 62.5437Z" fill="white"/>
<path d="M271.755 68.3757H236.961C236.877 68.3759 236.793 68.3593 236.714 68.3268C236.636 68.2944 236.565 68.2467 236.505 68.1865C236.445 68.1263 236.397 68.0548 236.365 67.976C236.332 67.8973 236.315 67.8129 236.315 67.7276C236.315 67.6424 236.332 67.558 236.365 67.4792C236.397 67.4005 236.445 67.329 236.505 67.2688C236.565 67.2086 236.636 67.1609 236.714 67.1284C236.793 67.096 236.877 67.0794 236.961 67.0796H271.755C271.926 67.0796 272.09 67.1479 272.211 67.2694C272.331 67.3909 272.399 67.5558 272.399 67.7276C272.399 67.8995 272.331 68.0643 272.211 68.1859C272.09 68.3074 271.926 68.3757 271.755 68.3757Z" fill="white"/>
<path d="M271.754 74.2087H236.961C236.79 74.2087 236.626 74.1404 236.505 74.0189C236.384 73.8974 236.316 73.7325 236.316 73.5606C236.316 73.3888 236.384 73.2239 236.505 73.1024C236.626 72.9809 236.79 72.9126 236.961 72.9126H271.754C271.925 72.9126 272.089 72.9809 272.21 73.1024C272.331 73.2239 272.399 73.3888 272.399 73.5606C272.399 73.7325 272.331 73.8974 272.21 74.0189C272.089 74.1404 271.925 74.2087 271.754 74.2087Z" fill="white"/>
<path d="M271.755 80.0407H236.961C236.877 80.0409 236.793 80.0243 236.714 79.9919C236.636 79.9594 236.565 79.9117 236.505 79.8515C236.445 79.7913 236.397 79.7198 236.365 79.6411C236.332 79.5623 236.315 79.4779 236.315 79.3927C236.315 79.3074 236.332 79.223 236.365 79.1443C236.397 79.0656 236.445 78.994 236.505 78.9338C236.565 78.8736 236.636 78.8259 236.714 78.7935C236.793 78.761 236.877 78.7444 236.961 78.7446H271.755C271.926 78.7446 272.09 78.8129 272.211 78.9344C272.331 79.056 272.399 79.2208 272.399 79.3927C272.399 79.5645 272.331 79.7294 272.211 79.8509C272.09 79.9724 271.926 80.0407 271.755 80.0407Z" fill="white"/>
<path d="M271.754 85.8732H236.961C236.79 85.8732 236.626 85.805 236.505 85.6834C236.384 85.5619 236.316 85.3971 236.316 85.2252C236.316 85.0533 236.384 84.8885 236.505 84.767C236.626 84.6454 236.79 84.5772 236.961 84.5772H271.754C271.839 84.5769 271.923 84.5935 272.001 84.626C272.08 84.6584 272.151 84.7062 272.211 84.7664C272.271 84.8266 272.319 84.8981 272.351 84.9768C272.384 85.0555 272.4 85.14 272.4 85.2252C272.4 85.3104 272.384 85.3949 272.351 85.4736C272.319 85.5523 272.271 85.6238 272.211 85.684C272.151 85.7442 272.08 85.7919 272.001 85.8244C271.923 85.8569 271.839 85.8735 271.754 85.8732Z" fill="white"/>
<path d="M95.4332 56.2428C95.6047 56.2369 95.7673 56.1641 95.8865 56.0399C96.0058 55.9158 96.0724 55.7499 96.0724 55.5772C96.0724 55.4046 96.0058 55.2387 95.8865 55.1145C95.7673 54.9903 95.6047 54.9176 95.4332 54.9116C95.2616 54.9176 95.0991 54.9903 94.9799 55.1145C94.8606 55.2387 94.7939 55.4046 94.7939 55.5772C94.7939 55.7499 94.8606 55.9158 94.9799 56.0399C95.0991 56.1641 95.2616 56.2369 95.4332 56.2428Z" fill="white"/>
<path d="M95.4332 63.3713C95.6047 63.3653 95.7673 63.2925 95.8865 63.1684C96.0058 63.0442 96.0724 62.8783 96.0724 62.7056C96.0724 62.533 96.0058 62.3671 95.8865 62.2429C95.7673 62.1188 95.6047 62.046 95.4332 62.04C95.2616 62.046 95.0991 62.1188 94.9799 62.2429C94.8606 62.3671 94.7939 62.533 94.7939 62.7056C94.7939 62.8783 94.8606 63.0442 94.9799 63.1684C95.0991 63.2925 95.2616 63.3653 95.4332 63.3713Z" fill="white"/>
<path d="M95.4332 70.4996C95.6047 70.4937 95.7673 70.4209 95.8865 70.2968C96.0058 70.1726 96.0724 70.0067 96.0724 69.8341C96.0724 69.6614 96.0058 69.4955 95.8865 69.3714C95.7673 69.2472 95.6047 69.1744 95.4332 69.1685C95.2616 69.1744 95.0991 69.2472 94.9799 69.3714C94.8606 69.4955 94.7939 69.6614 94.7939 69.8341C94.7939 70.0067 94.8606 70.1726 94.9799 70.2968C95.0991 70.4209 95.2616 70.4937 95.4332 70.4996Z" fill="white"/>
<path d="M95.4332 77.6281C95.6047 77.6221 95.7673 77.5494 95.8865 77.4252C96.0058 77.301 96.0724 77.1351 96.0724 76.9625C96.0724 76.7898 96.0058 76.6239 95.8865 76.4998C95.7673 76.3756 95.6047 76.3029 95.4332 76.2969C95.2616 76.3029 95.0991 76.3756 94.9799 76.4998C94.8606 76.6239 94.7939 76.7898 94.7939 76.9625C94.7939 77.1351 94.8606 77.301 94.9799 77.4252C95.0991 77.5494 95.2616 77.6221 95.4332 77.6281Z" fill="white"/>
<path d="M95.4332 84.757C95.6047 84.751 95.7673 84.6783 95.8865 84.5541C96.0058 84.4299 96.0724 84.264 96.0724 84.0914C96.0724 83.9187 96.0058 83.7528 95.8865 83.6287C95.7673 83.5045 95.6047 83.4318 95.4332 83.4258C95.2616 83.4318 95.0991 83.5045 94.9799 83.6287C94.8606 83.7528 94.7939 83.9187 94.7939 84.0914C94.7939 84.264 94.8606 84.4299 94.9799 84.5541C95.0991 84.6783 95.2616 84.751 95.4332 84.757Z" fill="white"/>
<path d="M95.4332 91.8854C95.6047 91.8794 95.7673 91.8067 95.8865 91.6825C96.0058 91.5583 96.0724 91.3924 96.0724 91.2198C96.0724 91.0472 96.0058 90.8813 95.8865 90.7571C95.7673 90.6329 95.6047 90.5602 95.4332 90.5542C95.2616 90.5602 95.0991 90.6329 94.9799 90.7571C94.8606 90.8813 94.7939 91.0472 94.7939 91.2198C94.7939 91.3924 94.8606 91.5583 94.9799 91.6825C95.0991 91.8067 95.2616 91.8794 95.4332 91.8854Z" fill="white"/>
<path d="M122.272 56.2253H101.653C101.482 56.2253 101.318 56.157 101.197 56.0355C101.077 55.914 101.009 55.7491 101.009 55.5773C101.009 55.4054 101.077 55.2405 101.197 55.119C101.318 54.9975 101.482 54.9292 101.653 54.9292H122.272C122.442 54.9292 122.606 54.9975 122.727 55.119C122.848 55.2405 122.916 55.4054 122.916 55.5773C122.916 55.7491 122.848 55.914 122.727 56.0355C122.606 56.157 122.442 56.2253 122.272 56.2253H122.272Z" fill="white"/>
<path d="M122.271 63.3537H101.653C101.568 63.3539 101.484 63.3373 101.406 63.3049C101.327 63.2724 101.256 63.2247 101.196 63.1645C101.136 63.1043 101.089 63.0328 101.056 62.954C101.024 62.8753 101.007 62.7909 101.007 62.7057C101.007 62.6204 101.024 62.536 101.056 62.4573C101.089 62.3785 101.136 62.307 101.196 62.2468C101.256 62.1866 101.327 62.1389 101.406 62.1065C101.484 62.074 101.568 62.0574 101.653 62.0576H122.271C122.356 62.0574 122.44 62.074 122.518 62.1065C122.597 62.1389 122.668 62.1866 122.728 62.2468C122.788 62.307 122.836 62.3785 122.868 62.4573C122.901 62.536 122.917 62.6204 122.917 62.7057C122.917 62.7909 122.901 62.8753 122.868 62.954C122.836 63.0328 122.788 63.1043 122.728 63.1645C122.668 63.2247 122.597 63.2724 122.518 63.3049C122.44 63.3373 122.356 63.3539 122.271 63.3537H122.271Z" fill="white"/>
<path d="M122.272 70.4822H101.653C101.482 70.4822 101.318 70.4139 101.197 70.2923C101.077 70.1708 101.009 70.006 101.009 69.8341C101.009 69.6622 101.077 69.4974 101.197 69.3759C101.318 69.2543 101.482 69.186 101.653 69.186H122.272C122.356 69.1858 122.44 69.2024 122.519 69.2349C122.597 69.2674 122.668 69.3151 122.728 69.3753C122.788 69.4355 122.836 69.507 122.868 69.5857C122.901 69.6644 122.918 69.7488 122.918 69.8341C122.918 69.9193 122.901 70.0038 122.868 70.0825C122.836 70.1612 122.788 70.2327 122.728 70.2929C122.668 70.3531 122.597 70.4008 122.519 70.4333C122.44 70.4658 122.356 70.4824 122.272 70.4822H122.272Z" fill="white"/>
<path d="M122.272 77.6105H101.653C101.482 77.6105 101.318 77.5423 101.197 77.4207C101.077 77.2992 101.009 77.1344 101.009 76.9625C101.009 76.7906 101.077 76.6258 101.197 76.5043C101.318 76.3827 101.482 76.3145 101.653 76.3145H122.272C122.356 76.3142 122.44 76.3308 122.519 76.3633C122.597 76.3958 122.668 76.4435 122.728 76.5037C122.788 76.5639 122.836 76.6354 122.868 76.7141C122.901 76.7928 122.918 76.8772 122.918 76.9625C122.918 77.0477 122.901 77.1321 122.868 77.2109C122.836 77.2896 122.788 77.3611 122.728 77.4213C122.668 77.4815 122.597 77.5292 122.519 77.5617C122.44 77.5942 122.356 77.6108 122.272 77.6105H122.272Z" fill="white"/>
<path d="M122.272 84.7395H101.653C101.482 84.7395 101.318 84.6712 101.197 84.5497C101.077 84.4281 101.009 84.2633 101.009 84.0914C101.009 83.9195 101.077 83.7547 101.197 83.6332C101.318 83.5116 101.482 83.4434 101.653 83.4434H122.272C122.356 83.4431 122.44 83.4597 122.519 83.4922C122.597 83.5247 122.668 83.5724 122.728 83.6326C122.788 83.6928 122.836 83.7643 122.868 83.843C122.901 83.9218 122.918 84.0062 122.918 84.0914C122.918 84.1767 122.901 84.2611 122.868 84.3398C122.836 84.4185 122.788 84.4901 122.728 84.5503C122.668 84.6105 122.597 84.6582 122.519 84.6906C122.44 84.7231 122.356 84.7397 122.272 84.7395H122.272Z" fill="white"/>
<path d="M122.271 91.8679H101.653C101.568 91.8681 101.484 91.8515 101.406 91.819C101.327 91.7866 101.256 91.7389 101.196 91.6787C101.136 91.6185 101.089 91.547 101.056 91.4682C101.024 91.3895 101.007 91.3051 101.007 91.2198C101.007 91.1346 101.024 91.0502 101.056 90.9714C101.089 90.8927 101.136 90.8212 101.196 90.761C101.256 90.7008 101.327 90.6531 101.406 90.6206C101.484 90.5882 101.568 90.5716 101.653 90.5718H122.271C122.356 90.5716 122.44 90.5882 122.518 90.6206C122.597 90.6531 122.668 90.7008 122.728 90.761C122.788 90.8212 122.836 90.8927 122.868 90.9714C122.901 91.0502 122.917 91.1346 122.917 91.2198C122.917 91.3051 122.901 91.3895 122.868 91.4682C122.836 91.547 122.788 91.6185 122.728 91.6787C122.668 91.7389 122.597 91.7866 122.518 91.819C122.44 91.8515 122.356 91.8681 122.271 91.8679H122.271Z" fill="white"/>
<path d="M341.748 94.8272H327.878C326.96 94.8262 326.081 94.4593 325.432 93.8068C324.783 93.1544 324.418 92.2698 324.417 91.347V55.4492C324.418 54.5265 324.783 53.642 325.432 52.9897C326.081 52.3373 326.96 51.9705 327.878 51.9697H329.56C329.666 51.9697 329.77 51.9957 329.863 52.0455C329.956 52.0952 330.035 52.1672 330.094 52.2552C330.153 52.3431 330.19 52.4442 330.201 52.5497C330.212 52.6552 330.197 52.7618 330.158 52.8602C330.115 52.9661 330.098 53.0811 330.11 53.195C330.121 53.3089 330.161 53.4182 330.224 53.5133C330.287 53.6084 330.373 53.6865 330.473 53.7405C330.573 53.7946 330.685 53.823 330.799 53.8234H338.707C338.82 53.8232 338.932 53.7949 339.033 53.7411C339.133 53.6872 339.218 53.6094 339.282 53.5145C339.345 53.4196 339.385 53.3105 339.396 53.1967C339.408 53.0829 339.392 52.968 339.349 52.8621C339.309 52.7637 339.294 52.657 339.305 52.5513C339.316 52.4456 339.352 52.3442 339.411 52.2561C339.47 52.1679 339.549 52.0957 339.643 52.0457C339.736 51.9958 339.84 51.9697 339.946 51.9697H341.748C342.665 51.9707 343.544 52.3375 344.193 52.9898C344.842 53.6421 345.207 54.5266 345.208 55.4492V91.347C345.207 92.2697 344.842 93.1542 344.193 93.8066C343.544 94.4591 342.665 94.8261 341.748 94.8272ZM327.878 53.2658C327.302 53.2664 326.75 53.4966 326.343 53.9059C325.936 54.3152 325.707 54.8702 325.706 55.4492V91.347C325.706 91.9261 325.936 92.4813 326.343 92.8907C326.75 93.3002 327.302 93.5305 327.878 93.5311H341.748C342.323 93.5304 342.875 93.3001 343.282 92.8907C343.69 92.4812 343.918 91.9261 343.919 91.347V55.4492C343.918 54.8703 343.689 54.3153 343.282 53.906C342.875 53.4966 342.323 53.2664 341.748 53.2658H340.684C340.648 53.7688 340.424 54.2395 340.057 54.5834C339.691 54.9273 339.208 55.1188 338.707 55.1195H330.799C330.298 55.1188 329.815 54.9272 329.449 54.5833C329.082 54.2395 328.859 53.7688 328.823 53.2658H327.878Z" fill="white"/>
<path d="M314.28 74.2087H296.239C296.068 74.2087 295.904 74.1404 295.783 74.0188C295.663 73.8973 295.595 73.7325 295.595 73.5606C295.595 73.3887 295.663 73.2239 295.783 73.1024C295.904 72.9808 296.068 72.9126 296.239 72.9126H312.725L308.992 69.1584C308.871 69.0369 308.803 68.8721 308.803 68.7002C308.803 68.5284 308.871 68.3636 308.992 68.242C309.113 68.1205 309.277 68.0522 309.448 68.0522C309.619 68.0522 309.782 68.1205 309.903 68.242L314.736 73.1024C314.826 73.193 314.887 73.3085 314.912 73.4342C314.937 73.5599 314.924 73.6902 314.875 73.8086C314.827 73.927 314.744 74.0282 314.638 74.0995C314.532 74.1707 314.408 74.2087 314.28 74.2087V74.2087Z" fill="white"/>
<path d="M309.769 78.745C309.642 78.745 309.517 78.707 309.411 78.6357C309.305 78.5645 309.223 78.4633 309.174 78.3449C309.125 78.2265 309.113 78.0962 309.137 77.9706C309.162 77.8449 309.224 77.7294 309.314 77.6388L313.824 73.1024C313.945 72.9809 314.109 72.9126 314.28 72.9126C314.45 72.9126 314.614 72.9809 314.735 73.1024C314.856 73.2239 314.924 73.3887 314.924 73.5606C314.924 73.7324 314.856 73.8972 314.735 74.0188L310.225 78.5551C310.165 78.6154 310.094 78.6632 310.016 78.6958C309.938 78.7284 309.854 78.7451 309.769 78.745Z" fill="white"/>
<path d="M346.044 128.753H324.977C323.539 120.394 323.539 111.849 324.977 103.49H346.044C343.67 111.742 343.67 120.501 346.044 128.753Z" fill="#6F63AD"/>
<path d="M229.074 124.409H250.141C251.579 116.05 251.579 107.505 250.141 99.146H229.074C231.448 107.398 231.448 116.157 229.074 124.409Z" fill="#6F63AD"/>
<path d="M261.135 131.514H282.202C283.639 123.155 283.639 114.61 282.202 106.251H261.135C263.508 114.503 263.508 123.262 261.135 131.514Z" fill="#FFDA63"/>
<path d="M246.817 106.507H233.997C233.776 106.507 233.597 106.217 233.597 105.859C233.597 105.5 233.776 105.21 233.997 105.21H246.817C247.038 105.21 247.217 105.5 247.217 105.859C247.217 106.217 247.038 106.507 246.817 106.507Z" fill="white"/>
<path d="M246.817 112.519H233.997C233.776 112.519 233.597 112.229 233.597 111.871C233.597 111.512 233.776 111.223 233.997 111.223H246.817C247.038 111.223 247.217 111.512 247.217 111.871C247.217 112.229 247.038 112.519 246.817 112.519Z" fill="white"/>
<path d="M278.878 116.344H266.059C265.838 116.344 265.658 116.055 265.658 115.696C265.658 115.338 265.838 115.048 266.059 115.048H278.878C279.1 115.048 279.279 115.338 279.279 115.696C279.279 116.055 279.1 116.344 278.878 116.344Z" fill="white"/>
<path d="M278.878 122.356H266.059C265.838 122.356 265.658 122.066 265.658 121.708C265.658 121.35 265.838 121.06 266.059 121.06H278.878C279.1 121.06 279.279 121.35 279.279 121.708C279.279 122.066 279.1 122.356 278.878 122.356Z" fill="white"/>
<path d="M341.369 110.332H328.549C328.328 110.332 328.148 110.042 328.148 109.684C328.148 109.326 328.328 109.036 328.549 109.036H341.369C341.59 109.036 341.769 109.326 341.769 109.684C341.769 110.042 341.59 110.332 341.369 110.332Z" fill="white"/>
<path d="M341.369 116.344H328.549C328.328 116.344 328.148 116.055 328.148 115.696C328.148 115.338 328.328 115.048 328.549 115.048H341.369C341.59 115.048 341.769 115.338 341.769 115.696C341.769 116.055 341.59 116.344 341.369 116.344Z" fill="white"/>
<path d="M246.817 118.53H233.997C233.776 118.53 233.597 118.241 233.597 117.882C233.597 117.524 233.776 117.234 233.997 117.234H246.817C247.038 117.234 247.217 117.524 247.217 117.882C247.217 118.241 247.038 118.53 246.817 118.53Z" fill="white"/>
<path d="M123.111 124.956H144.178C145.616 116.597 145.616 108.052 144.178 99.6929H123.111C125.485 107.945 125.485 116.704 123.111 124.956Z" fill="#FFDA63"/>
<path d="M140.855 107.053H128.035C127.814 107.053 127.635 106.764 127.635 106.405C127.635 106.047 127.814 105.757 128.035 105.757H140.855C141.076 105.757 141.256 106.047 141.256 106.405C141.256 106.764 141.076 107.053 140.855 107.053Z" fill="white"/>
<path d="M140.855 113.065H128.035C127.814 113.065 127.635 112.775 127.635 112.417C127.635 112.059 127.814 111.769 128.035 111.769H140.855C141.076 111.769 141.256 112.059 141.256 112.417C141.256 112.775 141.076 113.065 140.855 113.065Z" fill="white"/>
<path d="M140.855 119.077H128.035C127.814 119.077 127.635 118.788 127.635 118.429C127.635 118.071 127.814 117.781 128.035 117.781H140.855C141.076 117.781 141.256 118.071 141.256 118.429C141.256 118.788 141.076 119.077 140.855 119.077Z" fill="white"/>
<path d="M62.6699 164.892H83.7368C85.1745 156.533 85.1745 147.988 83.7368 139.629H62.6699C65.0433 147.881 65.0433 156.64 62.6699 164.892Z" fill="#FFDA63"/>
<path d="M80.4135 146.989H67.5939C67.3727 146.989 67.1934 146.7 67.1934 146.341C67.1934 145.983 67.3727 145.693 67.5939 145.693H80.4135C80.6348 145.693 80.8141 145.983 80.8141 146.341C80.8141 146.7 80.6348 146.989 80.4135 146.989Z" fill="white"/>
<path d="M80.4135 153.001H67.5939C67.3727 153.001 67.1934 152.711 67.1934 152.353C67.1934 151.995 67.3727 151.705 67.5939 151.705H80.4135C80.6348 151.705 80.8141 151.995 80.8141 152.353C80.8141 152.711 80.6348 153.001 80.4135 153.001Z" fill="white"/>
<path d="M80.4135 159.013H67.5939C67.3727 159.013 67.1934 158.724 67.1934 158.365C67.1934 158.007 67.3727 157.717 67.5939 157.717H80.4135C80.6348 157.717 80.8141 158.007 80.8141 158.365C80.8141 158.724 80.6348 159.013 80.4135 159.013Z" fill="white"/>
<path d="M354.112 117.894C354.112 117.894 341.168 128.123 347.64 130.447C354.112 132.772 358.272 122.079 358.272 122.079L354.112 117.894Z" fill="#A0616A"/>
<path d="M354.574 114.174L351.801 118.824C351.801 118.824 356.423 118.824 357.348 125.798L361.046 121.148L354.574 114.174Z" fill="#CFCCE0"/>
<path d="M416.057 220.182L416.518 234.13L410.972 237.384L408.66 235.99L409.123 220.182H416.057Z" fill="#A0616A"/>
<path d="M383.236 216.462L384.16 231.34L371.217 236.919L372.141 229.015C372.141 229.015 375.839 222.971 374.915 216.462H383.236Z" fill="#A0616A"/>
<path d="M403.113 104.411C403.113 104.411 410.51 123.938 411.896 136.027C413.283 148.115 415.595 180.196 415.595 180.196L420.217 221.576L407.274 223.436L401.727 181.591L389.245 140.211L386.472 181.591L384.16 219.251L372.141 219.716L371.217 180.661L366.132 130.912L368.905 107.2L403.113 104.411Z" fill="#2F2E41"/>
<path d="M410.046 235.059C410.046 235.059 410.805 227.251 416.435 231.62L417.443 230.875L422.065 241.104C422.065 241.104 427.613 249.008 417.905 249.938C408.197 250.867 409.122 241.104 409.122 241.104L408.197 236.919L408.66 234.179L410.046 235.059Z" fill="#2F2E41"/>
<path d="M383.235 225.761C384.373 226.415 385.316 227.364 385.966 228.508C386.617 229.653 386.951 230.952 386.933 232.27C386.933 236.919 386.471 237.384 386.471 237.384L379.537 239.244C379.537 239.244 374.914 238.779 372.141 241.569C369.367 244.358 355.499 246.218 355.499 242.499C355.499 238.779 367.056 232.735 367.056 232.735C367.056 232.735 370.488 226.905 372.932 227.495C375.377 228.085 376.301 229.015 376.301 229.48C376.301 229.945 374.914 233.2 374.914 233.2C374.914 233.2 382.773 231.34 383.235 225.761Z" fill="#2F2E41"/>
<path d="M382.311 47.2227C388.693 47.2227 393.867 42.0187 393.867 35.5991C393.867 29.1796 388.693 23.9756 382.311 23.9756C375.928 23.9756 370.754 29.1796 370.754 35.5991C370.754 42.0187 375.928 47.2227 382.311 47.2227Z" fill="#A0616A"/>
<path d="M390.863 38.6211L395.948 50.2447L382.08 70.2372C382.08 70.2372 381.156 48.3849 378.382 44.6654C375.608 40.9458 390.863 38.6211 390.863 38.6211Z" fill="#A0616A"/>
<path d="M384.391 62.7981L386.703 56.754L388.552 57.219L390.863 55.3589L394.099 45.1304L398.721 48.3852L404.731 109.293L367.287 110.222L372.372 67.9126L376.995 55.8239L380.332 51.3875L382.542 58.1487L384.391 62.7981Z" fill="#CFCCE0"/>
<path d="M395.023 88.8351L396.438 46.7773C396.438 46.7773 399.184 46.9903 400.108 48.3851C401.033 49.7799 416.288 52.5696 416.288 52.5696L413.514 95.8092C413.514 95.8092 425.071 130.215 420.911 132.075C416.75 133.935 409.354 133.47 409.354 133.47L395.023 88.8351Z" fill="#6F63AD"/>
<path d="M372.603 83.4883L377.507 55.1431L366.594 62.5659L369.367 83.0234L367.056 96.9716C367.056 96.9716 358.273 135.562 361.046 136.957C363.82 138.352 367.056 136.957 367.056 136.957L372.603 97.9015V83.4883Z" fill="#6F63AD"/>
<path d="M369.829 61.6357L366.593 62.5656L365.207 81.1633L362.895 97.4363L351.801 117.429C351.801 117.429 357.348 113.709 359.659 124.403L371.878 103.008L369.829 61.6357Z" fill="#6F63AD"/>
<path d="M405.886 114.174C405.886 114.174 392.943 124.403 399.415 126.728C405.886 129.052 410.047 118.359 410.047 118.359L405.886 114.174Z" fill="#A0616A"/>
<path d="M413.745 119.289L409.584 124.403L404.037 114.639L406.348 110.455L413.745 119.289Z" fill="#CFCCE0"/>
<path d="M412.82 54.1967L416.518 52.3369C416.518 52.3369 419.292 56.0565 419.754 59.3111C420.217 62.5656 422.528 66.7501 422.528 69.0748C422.528 71.3995 429 93.2518 429 93.2518L414.207 123.473C414.207 123.473 410.971 112.314 404.037 111.385L415.594 95.1116L409.122 83.4881L412.82 54.1967Z" fill="#6F63AD"/>
<path d="M391.986 24.5243L394.165 23.6468C394.165 23.6468 389.609 18.6011 383.269 19.0399L385.052 17.0655C385.052 17.0655 380.693 15.3105 376.731 19.9174C374.648 22.3391 372.238 25.1857 370.736 28.3924H368.402L369.376 30.5496L365.967 32.7068L369.466 32.3193C369.258 33.5006 369.226 34.7066 369.371 35.8974C369.521 37.0886 370.126 38.1745 371.057 38.926C371.057 38.926 373.759 33.2993 373.759 32.4218V34.6156C373.759 34.6156 375.939 32.6412 375.939 31.325L377.127 32.8606L377.722 30.4475L385.052 32.8606L383.863 30.8862L388.42 31.5444L386.637 29.1312C386.637 29.1312 391.788 31.9831 391.986 34.3962C392.184 36.8094 393.692 39.096 393.692 39.096C393.692 39.096 397.731 27.8149 391.986 24.5243Z" fill="#2F2E41"/>
<path d="M391.788 35.3669C392.502 35.3669 393.082 34.6383 393.082 33.7396C393.082 32.8409 392.502 32.1123 391.788 32.1123C391.073 32.1123 390.493 32.8409 390.493 33.7396C390.493 34.6383 391.073 35.3669 391.788 35.3669Z" fill="#A0616A"/>
</g>
<defs>
<clipPath id="clip0">
<rect width="429" height="250" fill="white"/>
</clipPath>
</defs>
</svg>
