<?xml version="1.0" encoding="UTF-8"?>
<svg width="595px" height="345px" viewBox="0 0 595 345" version="1.1" xmlns="http://www.w3.org/2000/svg" xmlns:xlink="http://www.w3.org/1999/xlink">
    <!-- Generator: Sketch 51.3 (57544) - http://www.bohemiancoding.com/sketch -->
    <title>undraw_mobile_wireframe_euf4</title>
    <desc>Created with Sketch.</desc>
    <defs></defs>
    <g id="Page-1" stroke="none" stroke-width="1" fill="none" fill-rule="evenodd">
        <g id="A5" transform="translate(0.000000, -59.000000)" fill-rule="nonzero">
            <g id="undraw_mobile_wireframe_euf4" transform="translate(0.000000, 59.000000)">
                <rect id="Rectangle-path" fill="#3F3D56" x="0" y="306.710612" width="589.196494" height="1.37022446"></rect>
                <path d="M76.2419058,59.129504 C71.182877,47.1926543 58.3047043,44.9382647 58.3047043,44.9382647 C58.3047043,44.9382647 45.9049288,41.6302788 35.5494827,57.3844295 C25.8973964,72.0685953 13.4503939,85.826359 29.2356338,91.6875248 L33.4053119,82.9305496 L33.9055277,93.0084126 C36.2009269,93.4864327 38.5207656,93.83848 40.8546385,94.0629752 C58.3635255,95.8417072 74.8683853,98.7992363 75.1740673,92.4716345 C75.5804406,84.0599856 81.1097273,70.6151442 76.2419058,59.129504 Z" id="Shape" fill="#2F2E41"></path>
                <path d="M22.8240899,154.722253 L21.6974486,183.451641 C21.6974486,183.451641 9.86769892,206.547792 19.4441658,205.984499 C29.0206327,205.421206 27.8939853,183.451641 27.8939853,183.451641 L31.2739155,156.412212 L22.8240899,154.722253 Z" id="Shape" fill="#FFB8B8"></path>
                <path d="M87.6060511,149.652358 L90.9859813,178.381746 C90.9859813,178.381746 101.125766,193.59142 93.239264,198.661315 C85.3527622,203.73121 85.3527683,180.635029 85.3527683,180.635029 L76.9029489,151.342317 L87.6060511,149.652358 Z" id="Shape" fill="#FFB8B8"></path>
                <path d="M75.7763014,203.167893 L65.6365169,242.60039 C65.6365169,242.60039 61.1299453,258.373387 54.9334147,266.259889 L52.6801259,270.76646 L43.6669827,269.639813 L49.8635194,244.290355 L53.8067673,197.534674 L75.7763014,203.167893 Z" id="Shape" fill="#FFB8B8"></path>
                <path d="M75.7763014,203.167893 L65.6365169,242.60039 C65.6365169,242.60039 61.1299453,258.373387 54.9334147,266.259889 L52.6801259,270.76646 L43.6669827,269.639813 L49.8635194,244.290355 L53.8067673,197.534674 L75.7763014,203.167893 Z" id="Shape" fill="#000000" opacity="0.1"></path>
                <path d="M41.4371453,263.350736 L56.8427838,266.917679 L50.4935223,281.885103 C50.4935223,281.885103 53.0740978,290.845533 50.6159101,295.590753 C48.1577223,300.335973 48.5124536,308.945831 48.5124536,308.945831 L45.1736842,308.419968 C45.1736842,308.419968 37.0673932,323.680917 27.4893058,319.321017 C17.9112183,314.961116 28.098664,304.590082 28.098664,304.590082 C28.098664,304.590082 36.3802446,288.216221 37.4319698,281.538682 C38.483695,274.861143 41.4371453,263.350736 41.4371453,263.350736 Z" id="Shape" fill="#2F2E41"></path>
                <path d="M41.4371453,263.350736 L56.8427838,266.917679 L50.4935223,281.885103 C50.4935223,281.885103 53.0740978,290.845533 50.6159101,295.590753 C48.1577223,300.335973 48.5124536,308.945831 48.5124536,308.945831 L45.1736842,308.419968 C45.1736842,308.419968 37.0673932,323.680917 27.4893058,319.321017 C17.9112183,314.961116 28.098664,304.590082 28.098664,304.590082 C28.098664,304.590082 36.3802446,288.216221 37.4319698,281.538682 C38.483695,274.861143 41.4371453,263.350736 41.4371453,263.350736 Z" id="Shape" fill="#000000" opacity="0.1"></path>
                <path d="M28.457309,194.718067 L36.9071284,236.967189 C36.9071284,236.967189 34.0905097,257.810076 37.470446,270.766473 L40.8503885,283.159528 L52.1168022,283.159528 L52.1168022,237.530494 C52.1168022,237.530494 52.6801259,200.351286 50.9901608,197.534674 C49.3001957,194.718061 28.457309,194.718067 28.457309,194.718067 Z" id="Shape" fill="#FFB8B8"></path>
                <path d="M54.370091,278.652956 L38.5970935,279.779604 L42.5403414,295.552601 C42.5403414,295.552601 38.5970935,304.002421 40.2870525,309.072316 C41.9770115,314.142211 40.2870525,322.592024 40.2870525,322.592024 L43.6670072,322.592024 C43.6670072,322.592024 49.3002446,338.928346 59.4400047,336.111739 C69.5797647,333.295133 61.1299698,321.465383 61.1299698,321.465383 C61.1299698,321.465383 55.4967324,304.002421 55.4967324,297.242566 C55.4967324,290.482712 54.370091,278.652956 54.370091,278.652956 Z" id="Shape" fill="#2F2E41"></path>
                <circle id="Oval" fill="#FFB8B8" cx="58.3133388" cy="68.5340813" r="15.2096799"></circle>
                <path d="M47.8918924,74.44895 C47.8918924,74.44895 49.0185399,93.6018777 45.6386097,94.7285191 C42.2586795,95.8551604 63.1015723,94.7285191 63.1015723,94.7285191 C63.1015723,94.7285191 60.2849536,82.8987694 63.1015723,79.5188453 C65.918191,76.1389212 47.8918924,74.44895 47.8918924,74.44895 Z" id="Shape" fill="#FFB8B8"></path>
                <path d="M63.3832342,91.6302568 C63.3832342,91.6302568 48.7368781,90.5036094 45.9202716,91.6302568 C43.1036651,92.7569043 35.2171511,98.3901112 35.2171511,98.3901112 L39.1603989,133.87936 L71.2697176,140.639214 L76.3396129,133.316036 L81.4095022,122.612928 L79.1562194,109.093219 L78.5928957,101.206718 L63.3832342,91.6302568 Z" id="Shape" fill="#FFDA63"></path>
                <path d="M32.4005324,100.643394 C32.4005324,100.643394 25.0773543,102.333359 24.5140306,107.966572 C23.9507068,113.599785 23.9507129,127.682823 24.5140306,129.936106 C25.0773482,132.189389 24.5140306,133.316036 23.9507129,133.87936 C23.3873953,134.442684 22.2607478,133.316036 23.3873892,135.006001 C24.5140306,136.695967 24.5140306,136.695967 23.9507129,138.385932 C23.3873953,140.075897 21.6974241,137.822608 22.8240655,140.639214 C23.9507068,143.455821 24.5140306,144.019145 23.9507129,144.582468 C23.3873953,145.145792 21.6974241,158.102177 21.6974241,158.102177 L31.273891,159.792142 L40.8503885,126.556182 L32.4005324,100.643394 Z" id="Shape" fill="#FFDA63"></path>
                <path d="M76.3396252,100.643394 C78.5182471,100.764962 80.4593686,102.059044 81.4095144,104.023324 C83.0994795,107.403254 87.6060511,129.372788 87.0427518,131.062754 C86.4794525,132.752719 85.3527867,130.49943 86.4794281,133.879372 C87.6060694,137.259315 86.4794281,136.695991 87.0427518,138.949262 C87.6060755,141.202532 84.7894629,138.949262 87.0427518,141.20255 C89.2960406,143.455839 90.4226759,144.019169 89.2960345,145.145798 C88.1693932,146.272427 86.4794158,144.019157 88.1693932,146.27244 C89.8593705,148.525722 89.8593583,151.905677 89.8593583,151.905677 L76.3396435,154.722296 L72.3963957,123.176288 L76.3396252,100.643394 Z" id="Shape" fill="#FFDA63"></path>
                <path d="M30.6371187,99.7476529 L33.4044863,98.3639691 C33.9696683,98.0813791 34.6243281,98.0363059 35.222906,98.2387713 C35.821484,98.4412367 36.3143635,98.8744582 36.5919558,99.4421115 L49.3001957,125.429541 L63.3832342,134.442678 L73.5230187,129.936106 C73.5230187,129.936106 80.8461968,118.66968 78.5929079,113.036467 C77.0651644,109.217105 75.2754619,103.340682 74.2812676,99.9523378 C74.1619108,99.5437354 74.3110533,99.1041254 74.6543995,98.8525001 C74.9977458,98.6008748 75.461862,98.5910509 75.8155482,98.8279223 L77.7356004,100.107961 C78.3501599,100.517666 78.7786074,101.152954 78.9281687,101.876261 L83.0994856,122.04961 L77.4662482,133.87936 L77.4662482,145.145786 L81.409496,205.984499 C81.409496,205.984499 66.7631399,203.73121 52.1167838,200.914604 C37.4704277,198.097997 18.8808237,195.844715 18.8808237,195.844715 C18.8808237,195.844715 28.4572906,146.272427 36.3437863,137.822608 C36.3437863,137.822608 36.3437863,131.626071 37.4704277,131.062754 C38.5970691,130.499436 39.7237165,126.556182 39.7237165,126.556182 L29.5199191,102.801397 C29.0245925,101.648252 29.5145847,100.308911 30.6371187,99.7476529 Z" id="Shape" fill="#2F2E41"></path>
                <polygon id="Shape" fill="#2F2E41" points="73.381295 54.7925899 60.4753597 48.0323381 42.6522662 50.7982014 38.9648561 67.0845683 48.1442446 66.7311151 50.7083094 60.7480935 50.7083094 66.6326619 54.9442446 66.47 57.402518 56.9438849 58.9386331 67.0845683 73.9958633 66.7769784"></polygon>
                <ellipse id="Oval" fill="#FFB8B8" cx="42.8219971" cy="68.5340813" rx="1.68996511" ry="2.95743741"></ellipse>
                <rect id="Rectangle-path" fill="#3F3D56" x="115.199277" y="0" width="380.359712" height="195.075575"></rect>
                <path d="M278.255009,107.464778 L199.394541,107.464778 C199.157662,107.46484 198.930468,107.370768 198.762969,107.203269 C198.595471,107.035771 198.501398,106.808576 198.50146,106.571697 L198.50146,75.0278612 C198.501398,74.790983 198.595471,74.5637892 198.76297,74.3962916 C198.930468,74.2287941 199.157663,74.134723 199.394541,74.1347863 L278.255009,74.1347863 C278.49191,74.1346483 278.719147,74.2286956 278.886661,74.3962095 C279.054175,74.5637234 279.148222,74.7909607 279.148084,75.0278612 L279.148084,106.571685 C279.148225,106.808588 279.05418,107.035829 278.886666,107.203347 C278.719152,107.370865 278.491912,107.464915 278.255009,107.464778 Z M200.287622,105.678623 L277.361928,105.678623 L277.361928,75.9209299 L200.287622,75.9209299 L200.287622,105.678623 Z" id="Shape" fill="#FFFFFF"></path>
                <path d="M232.910304,128.166076 L199.394541,128.166076 C199.157662,128.166138 198.930468,128.072065 198.762969,127.904567 C198.595471,127.737068 198.501398,127.509874 198.50146,127.272995 L198.50146,113.866342 C198.501398,113.629464 198.595471,113.402269 198.762969,113.234771 C198.930468,113.067272 199.157662,112.9732 199.394541,112.973262 L232.910304,112.973262 C233.147206,112.973125 233.374443,113.067174 233.541958,113.234688 C233.709473,113.402203 233.803521,113.629441 233.803385,113.866342 L233.803385,127.272995 C233.803521,127.509897 233.709473,127.737134 233.541958,127.904649 C233.374443,128.072164 233.147206,128.166212 232.910304,128.166076 Z M200.287622,126.37992 L232.017223,126.37992 L232.017223,114.759423 L200.287622,114.759423 L200.287622,126.37992 Z" id="Shape" fill="#FFFFFF"></path>
                <path d="M278.255009,128.166076 L244.739246,128.166076 C244.502345,128.166212 244.275107,128.072164 244.107592,127.904649 C243.940077,127.737134 243.846029,127.509897 243.846165,127.272995 L243.846165,113.866342 C243.846029,113.629441 243.940077,113.402203 244.107592,113.234688 C244.275107,113.067174 244.502345,112.973125 244.739246,112.973262 L278.255009,112.973262 C278.49191,112.973125 278.719148,113.067174 278.886661,113.234689 C279.054175,113.402204 279.148222,113.629441 279.148084,113.866342 L279.148084,127.272995 C279.148222,127.509896 279.054175,127.737134 278.886661,127.904649 C278.719148,128.072164 278.49191,128.166212 278.255009,128.166076 Z M245.632321,126.37992 L277.361928,126.37992 L277.361928,114.759423 L245.632321,114.759423 L245.632321,126.37992 Z" id="Shape" fill="#FFFFFF"></path>
                <path d="M277.26948,106.479255 C277.157839,106.479161 277.047202,106.458157 276.943294,106.417328 L199.068361,75.8590205 C198.771418,75.7424866 198.559201,75.4763873 198.51165,75.1609597 C198.4641,74.845532 198.58844,74.5286971 198.837833,74.3298034 C199.087226,74.1309097 199.423783,74.080174 199.720727,74.1967079 L277.595666,104.755015 C277.995098,104.911843 278.226509,105.330602 278.146745,105.75224 C278.066981,106.173878 277.698597,106.479169 277.26948,106.479255 Z" id="Shape" fill="#FFFFFF"></path>
                <path d="M199.394957,107.464778 C198.966718,107.464993 198.598584,107.161244 198.517469,106.740757 C198.436354,106.320271 198.665084,105.901381 199.062674,105.742287 L277.923571,74.1984507 C278.381324,74.0167389 278.899786,74.239852 279.082531,74.6971943 C279.265276,75.1545366 279.043334,75.6735003 278.586405,75.8572777 L199.726396,107.401114 C199.620993,107.443297 199.508487,107.464908 199.394957,107.464778 Z" id="Shape" fill="#FFFFFF"></path>
                <path d="M232.417542,127.673314 C232.305619,127.673225 232.194698,127.652224 232.090488,127.611393 L199.559814,114.796053 C199.101712,114.614574 198.87705,114.096446 199.057683,113.638009 C199.238316,113.179573 199.756028,112.953955 200.214797,113.13374 L232.744597,125.94908 C233.143915,126.106173 233.375074,126.525046 233.295106,126.946636 C233.215139,127.368227 232.84665,127.673359 232.417542,127.673314 Z" id="Shape" fill="#FFFFFF"></path>
                <path d="M199.887303,127.673314 C199.453852,127.673449 199.082913,127.362263 199.007685,126.93539 C198.932457,126.508518 199.174671,126.089275 199.582055,125.941228 L232.112288,114.112292 C232.412425,114.001613 232.74884,114.059969 232.994165,114.265268 C233.239491,114.470567 233.35623,114.791429 233.300185,115.106375 C233.244141,115.421321 233.023878,115.682213 232.72279,115.790278 L200.192556,127.619214 C200.094738,127.654909 199.99143,127.673218 199.887303,127.673314 Z" id="Shape" fill="#FFFFFF"></path>
                <path d="M277.762242,127.673314 C277.655046,127.67323 277.548724,127.654032 277.448268,127.616621 L245.904431,115.787685 C245.442505,115.614282 245.208611,115.099246 245.382015,114.63732 C245.555418,114.175394 246.070454,113.9415 246.532379,114.114903 L278.076216,125.943846 C278.480545,126.095533 278.718445,126.514767 278.641307,126.939669 C278.564169,127.36457 278.194088,127.67343 277.762242,127.673314 Z" id="Shape" fill="#FFFFFF"></path>
                <path d="M246.218405,126.687785 C245.782152,126.687655 245.409853,126.372331 245.337923,125.942049 C245.265993,125.511767 245.51549,125.092498 245.927981,124.950483 L277.471817,114.10707 C277.773857,114.001694 278.109192,114.065967 278.350864,114.275555 C278.592535,114.485143 278.703604,114.808012 278.642021,115.121923 C278.580437,115.435833 278.355612,115.692805 278.052667,115.795549 L246.508806,126.638944 C246.415387,126.671229 246.317245,126.687735 246.218405,126.687785 Z" id="Shape" fill="#FFFFFF"></path>
                <path d="M150.721755,57.1470349 C145.303502,57.1470349 140.418765,53.8831574 138.345289,48.8773437 C136.271814,43.87153 137.417936,38.1095896 141.249221,34.2783067 C145.080506,30.4470238 150.842447,29.3009042 155.848259,31.3743817 C160.854072,33.4478593 164.117947,38.332598 164.117945,43.7508514 C164.109715,51.1459501 158.116854,57.1388085 150.721755,57.1470349 Z M150.721755,32.1408176 C146.025935,32.1408152 141.792493,34.9695075 139.995478,39.3078796 C138.198464,43.6462517 139.191768,48.6399352 142.512213,51.9603829 C145.832659,55.2808306 150.826342,56.2741369 155.164715,54.4771246 C159.503089,52.6801123 162.331783,48.4466723 162.331783,43.7508514 C162.324531,37.3418156 157.130791,32.1480732 150.721755,32.1408176 Z" id="Shape" fill="#FFFFFF"></path>
                <path d="M239.136566,57.1470349 C233.718313,57.1470349 228.833576,53.8831574 226.7601,48.8773437 C224.686625,43.87153 225.832747,38.1095896 229.664032,34.2783067 C233.495317,30.4470238 239.257257,29.3009042 244.26307,31.3743817 C249.268883,33.4478593 252.532758,38.332598 252.532756,43.7508514 C252.524677,51.1460129 246.531728,57.1389598 239.136566,57.1470349 Z M239.136566,32.1408176 C234.440744,32.1408077 230.207296,34.9694954 228.410276,39.3078669 C226.613256,43.6462384 227.606555,48.639925 230.926999,51.9603764 C234.247444,55.2808279 239.241128,56.2741376 243.579504,54.4771264 C247.917879,52.6801152 250.746576,48.446674 250.746576,43.7508514 C250.739169,37.3418869 245.545531,32.148238 239.136566,32.1408176 Z" id="Shape" fill="#FFFFFF"></path>
                <path d="M348.985313,57.1470349 C343.56706,57.1470349 338.682323,53.8831574 336.608847,48.8773437 C334.535372,43.87153 335.681494,38.1095896 339.512779,34.2783067 C343.344064,30.4470238 349.106005,29.3009042 354.111817,31.3743817 C359.11763,33.4478593 362.381505,38.332598 362.381503,43.7508514 C362.373428,51.1460143 356.380476,57.1389632 348.985313,57.1470349 Z M348.985313,32.1408176 C344.28949,32.1408053 340.056041,34.9694913 338.259019,39.3078627 C336.461997,43.646234 337.455294,48.6399215 340.775738,51.9603743 C344.096182,55.280827 349.089867,56.2741378 353.428243,54.477127 C357.766619,52.6801161 360.595317,48.4466746 360.595317,43.7508514 C360.587906,37.3418907 355.394274,32.1482447 348.985313,32.1408176 Z" id="Shape" fill="#FFFFFF"></path>
                <path d="M464.073045,57.1470349 C458.654791,57.1470349 453.770054,53.8831574 451.696579,48.8773437 C449.623103,43.87153 450.769226,38.1095896 454.60051,34.2783067 C458.431795,30.4470238 464.193736,29.3009042 469.199549,31.3743817 C474.205361,33.4478593 477.469237,38.332598 477.469234,43.7508514 C477.461159,51.1460143 471.468207,57.1389632 464.073045,57.1470349 Z M464.073045,32.1408176 C457.661,32.1408176 452.463011,37.3388068 452.463011,43.7508514 C452.463011,50.1628961 457.661,55.3608853 464.073045,55.3608853 C470.485089,55.3608853 475.683078,50.1628961 475.683078,43.7508514 C475.675672,37.3418773 470.482019,32.1482245 464.073045,32.1408176 Z" id="Shape" fill="#FFFFFF"></path>
                <path d="M236.766944,47.885704 L236.766944,47.2097888 L237.629498,46.3716522 C239.706953,44.3953655 240.645383,43.3435547 240.657595,42.118191 C240.702606,41.6801704 240.54615,41.2454267 240.232342,40.9365377 C239.918534,40.6276487 239.481373,40.478081 239.044118,40.5300058 C238.406548,40.5534617 237.796602,40.796208 237.317267,41.2172583 L236.966663,40.4419237 C237.61298,39.9041252 238.428342,39.6116447 239.269136,39.6159989 C239.923479,39.5578536 240.571251,39.7837487 241.047544,40.2361771 C241.523838,40.6886054 241.782704,41.3239206 241.758241,41.9803871 C241.758241,43.4813586 240.669801,44.6953849 238.95603,46.3463601 L238.305413,46.9472734 L238.305413,46.971691 L241.958835,46.971691 L241.958835,47.885704 L236.766944,47.885704 Z" id="Shape" fill="#FFFFFF"></path>
                <polygon id="Shape" fill="#FFFFFF" points="150.425173 40.7105421 150.400321 40.7105421 148.986569 41.4736709 148.774197 40.6355403 150.550331 39.6848978 151.488761 39.6848978 151.488761 47.8167989 150.425173 47.8167989"></polygon>
                <path d="M464.873677,47.8163647 L464.873677,45.6028363 L461.095537,45.6028363 L461.095537,44.8772115 L464.723668,39.6853137 L465.912408,39.6853137 L465.912408,44.7394076 L467.050558,44.7394076 L467.050558,45.6028608 L465.912408,45.6028608 L465.912408,47.8163709 L464.873677,47.8163647 Z M464.873677,44.7394259 L464.873677,42.0253025 C464.873677,41.599691 464.88647,41.1740795 464.912056,40.748468 L464.873677,40.748468 C464.624242,41.2246637 464.423648,41.5743928 464.198637,41.9502885 L462.20927,44.7141216 L462.20927,44.7394259 L464.873677,44.7394259 Z" id="Shape" fill="#FFFFFF"></path>
                <path d="M347.609934,46.5530629 C348.15612,46.8761578 348.776459,47.0527955 349.410919,47.065882 C350.825545,47.065882 351.263362,46.1649554 351.250282,45.4899147 C351.238052,44.3508842 350.211551,43.8633572 349.149278,43.8633572 L348.535284,43.8633572 L348.535284,43.0374324 L349.149278,43.0374324 C349.949904,43.0374324 350.963343,42.6249072 350.963343,41.6611845 C350.963343,41.0105371 350.549962,40.4349464 349.536511,40.4349464 C348.953496,40.4513557 348.388167,40.6387871 347.910828,40.973932 L347.623014,40.1732993 C348.255303,39.7611495 348.994563,39.5434399 349.74931,39.5471122 C351.350576,39.5471122 352.076201,40.4977486 352.076201,41.4867633 C352.058917,42.3883529 351.446028,43.1692401 350.574367,43.4002601 L350.574367,43.4255522 C351.613217,43.5759052 352.385093,44.4646758 352.388432,45.5143446 C352.388432,46.8155906 351.374994,47.9546151 349.424005,47.9546151 C348.682581,47.9641942 347.952277,47.7737854 347.309914,47.4034176 L347.609934,46.5530629 Z" id="Shape" fill="#FFFFFF"></path>
                <path d="M390.782987,127.272946 L311.922525,127.272946 C311.685623,127.273082 311.458385,127.179034 311.290871,127.011519 C311.123356,126.844005 311.029308,126.616767 311.029444,126.379865 L311.029444,75.9208871 C311.029308,75.683986 311.123356,75.4567488 311.290871,75.289235 C311.458386,75.1217213 311.685624,75.0276742 311.922525,75.0278122 L390.782987,75.0278122 C391.019888,75.0276742 391.247126,75.1217213 391.414641,75.289235 C391.582156,75.4567488 391.676204,75.683986 391.676068,75.9208871 L391.676068,126.379865 C391.676204,126.616767 391.582156,126.844005 391.414641,127.011519 C391.247126,127.179034 391.019889,127.273082 390.782987,127.272946 Z M312.815606,125.486784 L389.889912,125.486784 L389.889912,76.813968 L312.815606,76.813968 L312.815606,125.486784 Z" id="Shape" fill="#FFFFFF"></path>
                <path d="M376.670767,86.1913025 L328.444488,86.1913025 C327.951254,86.1913025 327.551408,85.7914566 327.551408,85.2982216 C327.551408,84.8049866 327.951254,84.4051406 328.444488,84.4051406 L376.670767,84.4051406 C377.164002,84.4051406 377.563848,84.8049866 377.563848,85.2982216 C377.563848,85.7914566 377.164002,86.1913025 376.670767,86.1913025 Z" id="Shape" fill="#FFFFFF"></path>
                <path d="M376.670767,94.2290126 L328.444488,94.2290126 C328.124866,94.229849 327.829164,94.0598124 327.669111,93.7831496 C327.509057,93.5064868 327.509057,93.1653826 327.669111,92.8887198 C327.829164,92.612057 328.124866,92.4420205 328.444488,92.4428568 L376.670767,92.4428568 C377.164001,92.4428568 377.563845,92.8427014 377.563845,93.3359347 C377.563845,93.829168 377.164001,94.2290126 376.670767,94.2290126 Z" id="Shape" fill="#FFFFFF"></path>
                <path d="M376.670767,102.266729 L328.444488,102.266729 C327.951254,102.266729 327.551408,101.866883 327.551408,101.373648 C327.551408,100.880413 327.951254,100.480567 328.444488,100.480567 L376.670767,100.480567 C377.164002,100.480567 377.563848,100.880413 377.563848,101.373648 C377.563848,101.866883 377.164002,102.266729 376.670767,102.266729 Z" id="Shape" fill="#FFFFFF"></path>
                <path d="M376.670767,110.304439 L328.444488,110.304439 C328.124866,110.305275 327.829164,110.135239 327.669111,109.858576 C327.509057,109.581913 327.509057,109.240809 327.669111,108.964146 C327.829164,108.687483 328.124866,108.517447 328.444488,108.518283 L376.670767,108.518283 C377.164001,108.518283 377.563845,108.918128 377.563845,109.411361 C377.563845,109.904594 377.164001,110.304439 376.670767,110.304439 Z" id="Shape" fill="#FFFFFF"></path>
                <path d="M376.670767,118.342149 L328.444488,118.342149 C327.951255,118.342149 327.551411,117.942304 327.551411,117.449071 C327.551411,116.955838 327.951255,116.555993 328.444488,116.555993 L376.670767,116.555993 C376.99039,116.555157 377.286092,116.725193 377.446145,117.001856 C377.606198,117.278519 377.606198,117.619623 377.446145,117.896286 C377.286092,118.172949 376.99039,118.342985 376.670767,118.342149 Z" id="Shape" fill="#FFFFFF"></path>
                <path d="M132.276474,77.5081183 C132.770704,77.4909951 133.162511,77.085379 133.162511,76.5908522 C133.162511,76.0963253 132.770704,75.6907092 132.276474,75.673586 C131.782244,75.6907092 131.390437,76.0963253 131.390437,76.5908522 C131.390437,77.085379 131.782244,77.4909951 132.276474,77.5081183 Z" id="Shape" fill="#FFFFFF"></path>
                <path d="M132.276474,87.3319842 C132.770704,87.314861 133.162511,86.9092449 133.162511,86.414718 C133.162511,85.9201911 132.770704,85.514575 132.276474,85.4974518 C131.782244,85.514575 131.390437,85.9201911 131.390437,86.414718 C131.390437,86.9092449 131.782244,87.314861 132.276474,87.3319842 Z" id="Shape" fill="#FFFFFF"></path>
                <path d="M132.276474,97.1558561 C132.770704,97.1387329 133.162511,96.7331168 133.162511,96.2385899 C133.162511,95.7440631 132.770704,95.3384469 132.276474,95.3213237 C131.782244,95.3384469 131.390437,95.7440631 131.390437,96.2385899 C131.390437,96.7331168 131.782244,97.1387329 132.276474,97.1558561 Z" id="Shape" fill="#FFFFFF"></path>
                <path d="M132.276474,106.979728 C132.770704,106.962605 133.162511,106.556989 133.162511,106.062462 C133.162511,105.567935 132.770704,105.162319 132.276474,105.145196 C131.782244,105.162319 131.390437,105.567935 131.390437,106.062462 C131.390437,106.556989 131.782244,106.962605 132.276474,106.979728 Z" id="Shape" fill="#FFFFFF"></path>
                <path d="M132.276474,116.8036 C132.770704,116.786477 133.162511,116.380861 133.162511,115.886334 C133.162511,115.391807 132.770704,114.986191 132.276474,114.969068 C131.782244,114.986191 131.390437,115.391807 131.390437,115.886334 C131.390437,116.380861 131.782244,116.786477 132.276474,116.8036 Z" id="Shape" fill="#FFFFFF"></path>
                <path d="M132.276474,126.627472 C132.770704,126.610349 133.162511,126.204733 133.162511,125.710206 C133.162511,125.215679 132.770704,124.810063 132.276474,124.79294 C131.782244,124.810063 131.390437,125.215679 131.390437,125.710206 C131.390437,126.204733 131.782244,126.610349 132.276474,126.627472 Z" id="Shape" fill="#FFFFFF"></path>
                <path d="M169.476388,77.4837802 L140.897835,77.4837802 C140.4046,77.4837802 140.004754,77.0839343 140.004754,76.5906993 C140.004754,76.0974643 140.4046,75.6976183 140.897835,75.6976183 L169.476369,75.6976183 C169.969604,75.6976183 170.36945,76.0974643 170.36945,76.5906993 C170.36945,77.0839343 169.969604,77.4837802 169.476369,77.4837802 L169.476388,77.4837802 Z" id="Shape" fill="#FFFFFF"></path>
                <path d="M169.476388,87.307646 L140.897835,87.307646 C140.578212,87.3084824 140.28251,87.1384459 140.122457,86.8617831 C139.962403,86.5851203 139.962403,86.244016 140.122457,85.9673533 C140.28251,85.6906905 140.578212,85.5206539 140.897835,85.5214903 L169.476369,85.5214903 C169.795992,85.5206539 170.091694,85.6906905 170.251747,85.9673533 C170.411801,86.244016 170.411801,86.5851203 170.251747,86.8617831 C170.091694,87.1384459 169.795992,87.3084824 169.476369,87.307646 L169.476388,87.307646 Z" id="Shape" fill="#FFFFFF"></path>
                <path d="M169.476388,97.131518 L140.897835,97.131518 C140.404601,97.131518 140.004757,96.7316734 140.004757,96.2384401 C140.004757,95.7452068 140.404601,95.3453622 140.897835,95.3453622 L169.476369,95.3453622 C169.795992,95.3445259 170.091694,95.5145624 170.251747,95.7912252 C170.411801,96.067888 170.411801,96.4089922 170.251747,96.685655 C170.091694,96.9623178 169.795992,97.1323543 169.476369,97.131518 L169.476388,97.131518 Z" id="Shape" fill="#FFFFFF"></path>
                <path d="M169.476388,106.95539 L140.897835,106.95539 C140.404601,106.95539 140.004757,106.555545 140.004757,106.062312 C140.004757,105.569079 140.404601,105.169234 140.897835,105.169234 L169.476369,105.169234 C169.795992,105.168398 170.091694,105.338434 170.251747,105.615097 C170.411801,105.89176 170.411801,106.232864 170.251747,106.509527 C170.091694,106.78619 169.795992,106.956226 169.476369,106.95539 L169.476388,106.95539 Z" id="Shape" fill="#FFFFFF"></path>
                <path d="M169.476388,116.779262 L140.897835,116.779262 C140.404601,116.779262 140.004757,116.379417 140.004757,115.886184 C140.004757,115.392951 140.404601,114.993106 140.897835,114.993106 L169.476369,114.993106 C169.795992,114.99227 170.091694,115.162306 170.251747,115.438969 C170.411801,115.715632 170.411801,116.056736 170.251747,116.333399 C170.091694,116.610062 169.795992,116.780098 169.476369,116.779262 L169.476388,116.779262 Z" id="Shape" fill="#FFFFFF"></path>
                <path d="M169.476388,126.603134 L140.897835,126.603134 C140.578212,126.60397 140.28251,126.433934 140.122457,126.157271 C139.962403,125.880608 139.962403,125.539504 140.122457,125.262841 C140.28251,124.986178 140.578212,124.816142 140.897835,124.816978 L169.476369,124.816978 C169.795992,124.816142 170.091694,124.986178 170.251747,125.262841 C170.411801,125.539504 170.411801,125.880608 170.251747,126.157271 C170.091694,126.433934 169.795992,126.60397 169.476369,126.603134 L169.476388,126.603134 Z" id="Shape" fill="#FFFFFF"></path>
                <path d="M473.68586,130.681299 L454.46111,130.681299 C451.813367,130.678587 449.667489,128.533097 449.664297,125.885355 L449.664297,76.414523 C449.667554,73.7669497 451.813536,71.6217501 454.46111,71.619459 L456.793229,71.619459 C457.090072,71.6193634 457.367562,71.7667659 457.533672,72.012781 C457.699781,72.2587962 457.732797,72.5712676 457.621771,72.8465655 C457.500643,73.1431096 457.534864,73.4804685 457.713075,73.7466478 C457.891286,74.012827 458.190165,74.1729943 458.510492,74.1739781 L469.470771,74.1739781 C469.790794,74.1734129 470.08962,74.0138742 470.268144,73.7482731 C470.446669,73.482672 470.481555,73.1457257 470.361235,72.8491827 C470.248972,72.5738925 470.28113,72.2607794 470.447004,72.0140542 C470.612878,71.767329 470.890697,71.619375 471.187997,71.6194345 L473.685829,71.6194345 C476.333101,71.6221134 478.478606,73.7672272 478.481768,76.4144986 L478.481768,125.88533 C478.478674,128.532765 476.333294,130.678172 473.68586,130.681299 Z M454.46111,73.4056147 C452.799731,73.4072511 451.453055,74.7531451 451.450453,76.414523 L451.450453,125.885355 C451.45267,127.547034 452.79943,128.893403 454.46111,128.895137 L473.68586,128.895137 C475.347367,128.893328 476.693833,127.546862 476.695642,125.885355 L476.695642,76.414523 C476.693435,74.7533228 475.347061,73.4073396 473.68586,73.4056147 L472.211055,73.4056147 C472.107969,74.8435517 470.912397,75.9580758 469.470771,75.9601338 L458.510492,75.9601338 C457.069044,75.9580171 455.873753,74.8434025 455.771076,73.4056147 L454.46111,73.4056147 Z" id="Shape" fill="#FFFFFF"></path>
                <path d="M435.613999,102.266729 L410.607776,102.266729 C410.114541,102.266729 409.714695,101.866883 409.714695,101.373648 C409.714695,100.880413 410.114541,100.480567 410.607776,100.480567 L433.45805,100.480567 L428.284467,95.3069899 C427.935734,94.9582586 427.935733,94.3928523 428.284464,94.0441194 C428.633196,93.6953864 429.198602,93.695385 429.547335,94.0441162 L436.245433,100.742214 C436.500862,100.997604 436.577286,101.381719 436.439065,101.71543 C436.300845,102.049142 435.975203,102.266724 435.613999,102.26671 L435.613999,102.266729 Z" id="Shape" fill="#FFFFFF"></path>
                <path d="M429.362445,108.518283 C429.001277,108.518222 428.6757,108.300634 428.537492,107.966957 C428.399284,107.63328 428.475657,107.249206 428.731005,106.993787 L434.982547,100.742214 C435.331278,100.393481 435.896684,100.39348 436.245417,100.742211 C436.59415,101.090942 436.594152,101.656349 436.245421,102.005082 L429.993866,108.256636 C429.826592,108.424395 429.599349,108.518559 429.362445,108.518283 Z" id="Shape" fill="#FFFFFF"></path>
                <path d="M479.640312,177.434883 L450.440151,177.434883 C448.44747,165.915229 448.44747,154.138959 450.440151,142.619305 L479.640312,142.619305 C476.350682,153.991376 476.350682,166.062811 479.640312,177.434883 Z" id="Shape" fill="#FF6584"></path>
                <path d="M317.513654,171.449036 L346.713814,171.449036 C348.706495,159.929382 348.706495,148.153112 346.713814,136.633458 L317.513654,136.633458 C320.803288,148.005529 320.803288,160.076965 317.513654,171.449036 Z" id="Shape" fill="#FFDA63"></path>
                <path d="M361.951721,181.240473 L391.151899,181.240473 C393.144581,169.72082 393.144581,157.944549 391.151899,146.424895 L361.951721,146.424895 C365.241351,157.796967 365.241351,169.868402 361.951721,181.240473 Z" id="Shape" fill="#FFDA63"></path>
                <path d="M342.106642,146.777034 L324.337808,146.777034 C324.03116,146.777034 323.782556,146.377589 323.782556,145.883953 C323.782556,145.390317 324.031178,144.990872 324.337808,144.990872 L342.106642,144.990872 C342.413291,144.990872 342.661894,145.390317 342.661894,145.883953 C342.661894,146.377589 342.413266,146.777034 342.106642,146.777034 Z" id="Shape" fill="#FFFFFF"></path>
                <path d="M342.106642,155.062094 L324.337808,155.062094 C324.03116,155.062094 323.782556,154.662649 323.782556,154.169013 C323.782556,153.675377 324.031178,153.275938 324.337808,153.275938 L342.106642,153.275938 C342.413291,153.275938 342.661894,153.675383 342.661894,154.169013 C342.661894,154.662643 342.413266,155.062094 342.106642,155.062094 Z" id="Shape" fill="#FFFFFF"></path>
                <path d="M386.54471,160.334405 L368.775876,160.334405 C368.469227,160.334405 368.220624,159.934967 368.220624,159.441331 C368.220624,158.947695 368.469252,158.54825 368.775876,158.54825 L386.54471,158.54825 C386.851358,158.54825 387.099962,158.947695 387.099962,159.441331 C387.099962,159.934967 386.851358,160.334405 386.54471,160.334405 Z" id="Shape" fill="#FFFFFF"></path>
                <path d="M386.54471,168.619472 L368.775876,168.619472 C368.469227,168.619472 368.220624,168.220027 368.220624,167.726391 C368.220624,167.232755 368.469252,166.83331 368.775876,166.83331 L386.54471,166.83331 C386.851358,166.83331 387.099962,167.232755 387.099962,167.726391 C387.099962,168.220027 386.851358,168.619472 386.54471,168.619472 Z" id="Shape" fill="#FFFFFF"></path>
                <path d="M473.161275,152.049345 L455.392447,152.049345 C455.085793,152.049345 454.837195,151.6499 454.837195,151.156264 C454.837195,150.662628 455.085817,150.263183 455.392447,150.263183 L473.161275,150.263183 C473.467929,150.263183 473.716527,150.662628 473.716527,151.156264 C473.716527,151.6499 473.467929,152.049345 473.161275,152.049345 Z" id="Shape" fill="#FFFFFF"></path>
                <path d="M473.161275,160.334405 L455.392447,160.334405 C455.085793,160.334405 454.837195,159.934967 454.837195,159.441331 C454.837195,158.947695 455.085817,158.54825 455.392447,158.54825 L473.161275,158.54825 C473.467929,158.54825 473.716527,158.947695 473.716527,159.441331 C473.716527,159.934967 473.467929,160.334405 473.161275,160.334405 Z" id="Shape" fill="#FFFFFF"></path>
                <path d="M342.106642,163.34716 L324.337808,163.34716 C324.03116,163.34716 323.782556,162.947715 323.782556,162.454079 C323.782556,161.960443 324.031178,161.560998 324.337808,161.560998 L342.106642,161.560998 C342.413291,161.560998 342.661894,161.960443 342.661894,162.454079 C342.661894,162.947715 342.413266,163.34716 342.106642,163.34716 Z" id="Shape" fill="#FFFFFF"></path>
                <path d="M170.64208,172.202222 L199.842246,172.202222 C201.834922,160.682567 201.834922,148.906298 199.842246,137.386644 L170.64208,137.386644 C173.931715,148.758714 173.931715,160.830151 170.64208,172.202222 Z" id="Shape" fill="#FFDA63"></path>
                <path d="M195.235069,147.530219 L177.466241,147.530219 C177.159593,147.530219 176.910989,147.130774 176.910989,146.637138 C176.910989,146.143503 177.159617,145.744064 177.466241,145.744064 L195.235069,145.744064 C195.541723,145.744064 195.790321,146.143503 195.790321,146.637138 C195.790321,147.130774 195.541723,147.530219 195.235069,147.530219 Z" id="Shape" fill="#FFFFFF"></path>
                <path d="M195.235069,155.815279 L177.466241,155.815279 C177.159593,155.815279 176.910989,155.415841 176.910989,154.922205 C176.910989,154.428569 177.159617,154.029124 177.466241,154.029124 L195.235069,154.029124 C195.541723,154.029124 195.790321,154.428569 195.790321,154.922205 C195.790321,155.415841 195.541723,155.815279 195.235069,155.815279 Z" id="Shape" fill="#FFFFFF"></path>
                <path d="M195.235069,164.100346 L177.466241,164.100346 C177.159593,164.100346 176.910989,163.700901 176.910989,163.207265 C176.910989,162.713629 177.159617,162.31419 177.466241,162.31419 L195.235069,162.31419 C195.541723,162.31419 195.790321,162.713629 195.790321,163.207265 C195.790321,163.700901 195.541723,164.100346 195.235069,164.100346 Z" id="Shape" fill="#FFFFFF"></path>
                <path d="M86.8651018,227.238193 L116.065268,227.238193 C118.057943,215.718538 118.057943,203.942269 116.065268,192.422615 L86.8651018,192.422615 C90.1547365,203.794686 90.1547365,215.866122 86.8651018,227.238193 Z" id="Shape" fill="#FFDA63"></path>
                <path d="M111.458091,202.566191 L93.6892626,202.566191 C93.3826144,202.566191 93.1340108,202.166746 93.1340108,201.67311 C93.1340108,201.179474 93.3826388,200.780035 93.6892626,200.780035 L111.458091,200.780035 C111.764745,200.780035 112.013342,201.179474 112.013342,201.67311 C112.013342,202.166746 111.764745,202.566191 111.458091,202.566191 Z" id="Shape" fill="#FFFFFF"></path>
                <path d="M111.458091,210.851251 L93.6892626,210.851251 C93.3826144,210.851251 93.1340108,210.451812 93.1340108,209.958176 C93.1340108,209.46454 93.3826388,209.065095 93.6892626,209.065095 L111.458091,209.065095 C111.764745,209.065095 112.013342,209.46454 112.013342,209.958176 C112.013342,210.451812 111.764745,210.851251 111.458091,210.851251 Z" id="Shape" fill="#FFFFFF"></path>
                <path d="M111.458091,219.136317 L93.6892626,219.136317 C93.3826144,219.136317 93.1340108,218.736872 93.1340108,218.243236 C93.1340108,217.7496 93.3826388,217.350161 93.6892626,217.350161 L111.458091,217.350161 C111.764745,217.350161 112.013342,217.7496 112.013342,218.243236 C112.013342,218.736872 111.764745,219.136317 111.458091,219.136317 Z" id="Shape" fill="#FFFFFF"></path>
                <path d="M490.824318,162.46974 C490.824318,162.46974 472.883668,176.565963 481.853993,179.769649 C490.824318,182.973336 496.590956,168.236378 496.590956,168.236378 L490.824318,162.46974 Z" id="Shape" fill="#A0616A"></path>
                <path d="M491.465059,157.343836 L487.620631,163.751216 C487.620631,163.751216 494.028005,163.751216 495.309481,173.362276 L500.435384,166.954903 L491.465059,157.343836 Z" id="Shape" fill="#CFCCE0"></path>
                <polygon id="Shape" fill="#A0616A" points="576.683417 303.432266 577.323669 322.653885 569.635144 327.139317 566.431439 325.217338 567.072302 303.432266"></polygon>
                <path d="M531.190781,298.306094 L532.472257,318.809696 L514.531607,326.498545 L515.813083,315.606003 C515.813083,315.606003 520.93898,307.276419 519.657504,298.306094 L531.190781,298.306094 Z" id="Shape" fill="#A0616A"></path>
                <path d="M558.742498,143.888349 C558.742498,143.888349 568.994293,170.799324 570.91651,187.458492 C572.838727,204.117661 576.042407,248.328552 576.042407,248.328552 L582.449787,305.354196 L564.50913,307.917141 L556.820281,250.250769 L539.520372,193.225125 L535.675944,250.250769 L532.472239,302.150503 L515.813064,302.791244 L514.531607,248.969311 L507.483492,180.41039 L511.32792,147.732776 L558.742498,143.888349 Z" id="Shape" fill="#2F2E41"></path>
                <path d="M568.353558,323.935593 C568.353558,323.935593 569.40447,313.174349 577.208601,319.195706 L578.605359,318.168979 L585.012732,332.265208 C585.012732,332.265208 592.701582,343.157744 579.246094,344.43922 C565.790606,345.720696 567.072082,332.265208 567.072082,332.265208 L565.790606,326.498569 L566.431347,322.722252 L568.353558,323.935593 Z" id="Shape" fill="#2F2E41"></path>
                <path d="M531.190781,311.120822 C534.402633,312.957205 536.3652,316.391695 536.316685,320.091147 C536.316685,326.498527 535.675944,327.139262 535.675944,327.139262 L526.064884,329.702213 C526.064884,329.702213 519.657504,329.061472 515.813083,332.905918 C511.968661,336.750364 492.746529,339.313292 492.746529,334.187394 C492.746529,329.061497 508.764993,320.731906 508.764993,320.731906 C508.764993,320.731906 513.52199,312.698306 516.910133,313.511419 C520.298276,314.324533 521.579746,315.606003 521.579746,316.246744 C521.579746,316.887485 519.657529,321.372641 519.657529,321.372641 C519.657529,321.372641 530.550065,318.809696 531.190781,311.120822 Z" id="Shape" fill="#2F2E41"></path>
                <circle id="Oval" fill="#A0616A" cx="529.909305" cy="49.0591993" r="16.0184396"></circle>
                <path d="M541.762953,53.2239914 L548.811061,69.2424309 L529.588941,96.7941414 C529.588941,96.7941414 528.307465,66.6794791 524.463037,61.5535817 C520.61861,56.4276842 541.762953,53.2239914 541.762953,53.2239914 Z" id="Shape" fill="#A0616A"></path>
                <polygon id="Shape" fill="#CFCCE0" points="532.792842 86.5422302 535.996547 78.2128417 538.559388 78.853705 541.763094 76.2902518 546.247914 62.1943165 552.655324 66.6797482 560.985324 150.616331 509.08518 151.897446 516.133453 93.5905036 522.540863 76.9311151 527.165719 70.8172302 530.229388 80.1348201"></polygon>
                <path d="M547.529591,122.423647 L549.490236,64.4638043 C549.490236,64.4638043 553.296224,64.7572683 554.5777,66.6794791 C555.859176,68.6016899 577.003513,72.4461176 577.003513,72.4461176 L573.159091,132.034707 C573.159091,132.034707 589.177531,179.449285 583.410892,182.012261 C577.644254,184.575237 567.392453,183.934478 567.392453,183.934478 L547.529591,122.423647 Z" id="Shape" fill="#6F63AD"></path>
                <path d="M516.453818,115.055174 L523.250944,75.9925194 L508.124233,86.2219881 L511.968655,114.41444 L508.764993,133.636541 C508.764993,133.636541 496.590981,186.817751 500.435409,188.739962 C504.279836,190.662173 508.764993,188.739962 508.764993,188.739962 L516.453842,134.918011 L516.453818,115.055174 Z" id="Shape" fill="#6F63AD"></path>
                <path d="M512.609396,84.9405 L508.124233,86.2219759 L506.202017,111.851469 L502.998312,134.277282 L487.620631,161.829023 C487.620631,161.829023 495.309481,156.703126 498.513167,171.44009 L515.448518,141.955167 L512.609396,84.9405 Z" id="Shape" fill="#6F63AD"></path>
                <path d="M562.586919,157.343836 C562.586919,157.343836 544.646269,171.440065 553.616594,174.643752 C562.586919,177.847438 568.353558,163.110475 568.353558,163.110475 L562.586919,157.343836 Z" id="Shape" fill="#A0616A"></path>
                <polygon id="Shape" fill="#CFCCE0" points="573.479712 164.391835 567.712554 171.440108 560.024029 157.984424 563.227734 152.217878"></polygon>
                <path d="M572.197986,74.6886989 L577.323883,72.1257471 C577.323883,72.1257471 581.168311,77.2516507 581.809046,81.7368133 C582.449781,86.2219759 585.653473,91.9886144 585.653473,95.1923011 C585.653473,98.3959878 594.623799,128.51065 594.623799,128.51065 L574.120209,170.158589 C574.120209,170.158589 569.635046,154.780891 560.02398,153.499415 L576.042419,131.073602 L567.072082,115.055174 L572.197986,74.6886989 Z" id="Shape" fill="#6F63AD"></path>
                <path d="M543.319174,33.7970701 L546.339818,32.5877709 C546.339818,32.5877709 540.023938,25.6343367 531.236547,26.2390108 L533.708053,23.5180752 C533.708053,23.5180752 527.666761,21.0995133 522.174685,27.448255 C519.287601,30.7856486 515.947224,34.7086004 513.864864,39.1277504 L510.629972,39.1277504 L511.980096,42.1005795 L507.254647,45.0734086 L512.104863,44.5394252 C511.815847,46.1673801 511.771484,47.8293609 511.973241,49.4704158 C512.181306,51.1119746 513.019006,52.6084861 514.309543,53.6441115 C514.309543,53.6441115 518.055676,45.889959 518.055676,44.6806781 L518.055676,47.703914 C518.055676,47.703914 521.076319,44.9830151 521.076319,43.1690906 L522.723931,45.2853522 L523.547734,41.9597791 L533.708065,45.2853522 L532.06046,42.5644532 L538.376339,43.4714155 L535.904832,40.1458424 C535.904832,40.1458424 543.044521,44.0760223 543.319187,47.4016137 C543.593755,50.7271378 545.683575,53.8782896 545.683575,53.8782896 C545.683575,53.8782896 551.282684,38.3318935 543.319174,33.7970701 Z" id="Shape" fill="#2F2E41"></path>
                <ellipse id="Oval" fill="#A0616A" cx="543.044423" cy="46.4962536" rx="1.79406259" ry="2.24258129"></ellipse>
            </g>
        </g>
    </g>
</svg>