<svg width="315" height="257" viewBox="0 0 315 257" fill="none" xmlns="http://www.w3.org/2000/svg">
<g filter="url(#filter0_d)">
<rect x="8" y="6" width="299" height="241" rx="16" fill="white"/>
</g>
<g clip-path="url(#clip0)">
<path d="M191.469 136.86C186.934 139.57 178.853 142.967 170.595 139.476L165.258 137.22L175.954 125.271C167.418 115.892 162.696 103.68 162.709 91.0178C162.722 78.3561 167.469 66.1536 176.025 56.7921C184.58 47.4307 196.329 41.5821 208.978 40.3881C221.628 39.1941 234.27 42.7403 244.437 50.3345C254.604 57.9287 261.566 69.0259 263.964 81.46C266.363 93.8941 264.026 106.773 257.409 117.582C250.792 128.391 240.37 136.355 228.178 139.92C215.985 143.484 202.898 142.393 191.469 136.86V136.86ZM170.974 90.9892C170.951 96.826 172.139 102.605 174.466 107.961C176.792 113.318 180.205 118.137 184.491 122.116L187.442 124.879L180.71 132.398C184.217 131.689 187.27 129.799 188.819 128.701L190.943 127.194L193.229 128.446C199.545 131.892 206.631 133.698 213.832 133.697C237.463 133.697 256.689 114.539 256.689 90.9893C256.689 67.4401 237.463 48.2813 213.832 48.2813C190.2 48.2813 170.974 67.4401 170.974 90.9893V90.9892Z" fill="#3F3D56"/>
<path d="M166.819 90.9893C166.819 65.1155 187.868 44.1406 213.832 44.1406C239.796 44.1406 260.845 65.1155 260.845 90.9893C260.845 116.863 239.796 137.838 213.832 137.838C205.93 137.849 198.154 135.867 191.228 132.075C187.978 134.379 180.05 138.975 172.218 135.664L181.646 125.133C176.959 120.758 173.225 115.469 170.675 109.595C168.124 103.722 166.812 97.389 166.819 90.9893Z" fill="#FFDA63"/>
<path opacity="0.1" d="M252.836 91.0908C252.836 66.6127 233.996 46.5229 209.979 44.4264C211.348 44.3069 212.733 44.2422 214.134 44.2422C240.098 44.2422 261.146 65.217 261.146 91.0908C261.146 116.965 240.098 137.939 214.134 137.939C212.735 137.939 211.352 137.874 209.985 137.755C234 135.655 252.836 115.567 252.836 91.0908Z" fill="black"/>
<path d="M105.497 201.943C93.7495 201.948 82.3575 197.93 73.2298 190.561C64.102 183.193 57.7931 172.922 55.3605 161.47C52.9278 150.017 54.5191 138.08 59.8678 127.658C65.2165 117.236 73.9975 108.962 84.7392 104.224C95.4808 99.4856 107.53 98.5706 118.869 101.632C130.207 104.694 140.144 111.546 147.016 121.04C153.888 130.534 157.276 142.093 156.613 153.78C155.95 165.468 151.276 176.573 143.374 185.235L154.071 197.184L148.733 199.44C140.475 202.931 132.394 199.534 127.859 196.824C120.888 200.191 113.243 201.941 105.497 201.943ZM105.497 108.245C81.8648 108.245 62.639 127.404 62.639 150.953C62.639 174.503 81.8648 193.661 105.497 193.661C112.698 193.662 119.783 191.856 126.1 188.41L128.385 187.158L130.509 188.665C132.058 189.763 135.112 191.653 138.618 192.362L131.887 184.843L134.837 182.08C139.123 178.101 142.537 173.282 144.863 167.925C147.189 162.569 148.378 156.79 148.354 150.953C148.354 127.404 129.128 108.245 105.497 108.245Z" fill="#3F3D56"/>
<path d="M152.509 150.953C152.509 125.079 131.46 104.104 105.496 104.104C79.5317 104.104 58.4834 125.079 58.4834 150.953C58.4834 176.827 79.5317 197.802 105.496 197.802C113.398 197.813 121.175 195.831 128.1 192.039C131.35 194.343 139.278 198.939 147.11 195.628L137.682 185.097C142.369 180.721 146.103 175.433 148.654 169.559C151.204 163.686 152.516 157.353 152.509 150.953Z" fill="#FFDA63"/>
<path opacity="0.1" d="M66.7937 150.717C66.7937 126.239 85.6336 106.149 109.651 104.052C108.282 103.933 106.897 103.868 105.496 103.868C79.5317 103.868 58.4834 124.843 58.4834 150.717C58.4834 176.591 79.5317 197.565 105.496 197.565C106.895 197.565 108.277 197.5 109.645 197.381C85.6301 195.281 66.7937 175.193 66.7937 150.717Z" fill="black"/>
<path d="M224.869 76.1052C221.793 70.9259 215.708 70.6846 215.708 70.6846C215.708 70.6846 209.778 69.9289 205.974 77.817C202.428 85.1694 197.534 92.2683 205.186 93.9894L206.568 89.7028L207.424 94.3085C208.513 94.3866 209.606 94.4052 210.698 94.3643C218.892 94.1007 226.695 94.4414 226.444 91.5113C226.11 87.6162 227.829 81.0888 224.869 76.1052Z" fill="#2F2E41"/>
<path d="M204.748 121.463C204.658 122.033 204.527 122.596 204.356 123.147C204.163 123.686 203.866 124.185 203.69 124.73C203.129 126.467 203.907 128.403 205.149 129.744C206.226 130.902 207.617 131.725 209.152 132.113C210.283 132.354 211.436 132.475 212.593 132.473C215.79 132.581 219.07 132.678 222.1 131.654C223.058 131.322 223.982 130.904 224.863 130.404C225.14 130.272 225.385 130.079 225.579 129.841C225.782 129.492 225.873 129.089 225.838 128.687C225.831 127.337 225.556 125.993 225.622 124.643C225.658 123.896 225.798 123.149 225.729 122.404C225.633 121.558 225.278 120.762 224.71 120.125C224.143 119.488 223.393 119.041 222.561 118.846C221.701 118.662 220.81 118.762 219.935 118.846C217.663 119.063 215.382 119.165 213.1 119.151C210.769 119.136 208.452 118.781 206.132 118.744C205.446 118.733 205.459 118.944 205.241 119.605C205.04 120.214 204.875 120.835 204.748 121.463Z" fill="#2F2E41"/>
<path d="M211.365 88.1075C211.253 88.6922 211.131 89.2982 210.779 89.7786C210.373 90.3314 209.712 90.6472 209.276 91.1762C208.619 91.9724 208.581 93.0929 208.578 94.1236C208.576 95.0732 208.595 96.0859 209.127 96.8741C209.505 97.3638 209.974 97.7761 210.509 98.0887C212.502 99.4269 214.655 100.789 217.058 100.833C218.053 100.852 219.12 100.595 219.775 99.8482C220.058 99.4972 220.281 99.1019 220.434 98.6783C221.048 97.1692 221.42 95.5732 221.537 93.9489C221.626 93.1853 221.554 92.4116 221.327 91.677C221.035 90.866 220.445 90.1988 220.055 89.43C219.594 88.5157 219.425 87.4825 219.572 86.4698C219.591 86.3985 219.585 86.3227 219.555 86.2553C219.523 86.2192 219.483 86.191 219.438 86.1729C219.393 86.1548 219.345 86.1473 219.296 86.1509L214.532 85.8091C214.089 85.7872 213.647 85.7368 213.21 85.6584C212.953 85.6063 212.275 85.2429 212.03 85.3395C211.576 85.5184 211.457 87.6227 211.365 88.1075Z" fill="#A0616A"/>
<path opacity="0.1" d="M211.365 88.256C211.253 88.8406 211.131 89.4466 210.779 89.927C210.373 90.4798 209.712 90.7956 209.276 91.3246C208.619 92.1208 208.581 93.2413 208.578 94.272C208.576 95.2216 208.595 96.2343 209.127 97.0225C209.505 97.5122 209.974 97.9245 210.509 98.2371C212.502 99.5753 214.655 100.938 217.058 100.982C218.053 101 219.121 100.744 219.776 99.9966C220.058 99.6456 220.281 99.2503 220.434 98.8267C221.048 97.3176 221.42 95.7217 221.537 94.0973C221.626 93.3337 221.554 92.5601 221.327 91.8254C221.035 91.0145 220.445 90.3472 220.055 89.5784C219.594 88.6641 219.425 87.631 219.572 86.6182C219.591 86.5469 219.585 86.4711 219.555 86.4037C219.523 86.3676 219.483 86.3394 219.438 86.3213C219.393 86.3032 219.345 86.2957 219.296 86.2993L214.532 85.9576C214.089 85.9356 213.647 85.8852 213.21 85.8068C212.953 85.7548 212.275 85.3913 212.03 85.4879C211.576 85.6669 211.457 87.7712 211.365 88.256Z" fill="black"/>
<path d="M215.921 88.7442C219.781 88.7442 222.91 85.6259 222.91 81.7793C222.91 77.9327 219.781 74.8145 215.921 74.8145C212.061 74.8145 208.932 77.9327 208.932 81.7793C208.932 85.6259 212.061 88.7442 215.921 88.7442Z" fill="#A0616A"/>
<path d="M212.346 97.379C212.691 97.7775 213.107 98.1089 213.573 98.3566C214.059 98.5567 214.581 98.6557 215.107 98.6476C216.367 98.6829 217.733 98.4528 218.609 97.5502C219.739 96.3867 219.702 94.5101 220.587 93.1527C220.659 93.0296 220.756 92.9235 220.873 92.8417C221.021 92.7611 221.189 92.7226 221.358 92.7305C222.476 92.7201 223.451 93.4429 224.33 94.1318C224.744 94.4156 225.099 94.7761 225.376 95.1937C225.55 95.5317 225.669 95.895 225.729 96.2702C226.165 98.3927 226.306 100.563 226.447 102.725C226.524 103.919 226.602 105.115 226.596 106.311C226.577 110.254 225.657 114.131 224.743 117.967C224.625 118.461 224.464 119.013 224.013 119.25C223.812 119.34 223.596 119.393 223.376 119.405C220.756 119.712 218.132 120.018 215.495 120.059C214.466 120.075 213.437 120.05 212.409 119.984C212.232 119.982 212.056 119.952 211.889 119.894C211.662 119.785 211.467 119.62 211.322 119.415C209.896 117.623 209.812 115.147 209.821 112.861C209.843 107.27 210.044 101.684 210.422 96.1027C210.453 95.642 210.46 95.0825 210.127 94.72C210.776 95.678 211.519 96.5687 212.346 97.379Z" fill="white"/>
<path d="M210.865 89.3373C210.629 89.7631 208.888 90.8205 208.552 91.1734C206.675 93.1453 203.249 93.0713 201.532 95.1833C200.928 95.9263 200.614 96.86 200.383 97.7882C200.057 99.101 199.883 100.533 200.429 101.771C200.956 102.962 202.063 103.785 202.815 104.849C203.641 106.017 204.012 107.436 204.368 108.82C204.631 109.842 204.896 110.889 204.794 111.94C204.677 113.134 204.097 114.227 203.755 115.377C203.413 116.527 203.354 117.897 204.145 118.8C204.727 119.465 205.639 119.728 206.511 119.876C207.627 120.043 208.753 120.141 209.882 120.168C210.879 120.212 211.977 120.221 212.743 119.584C213.348 119.082 213.611 118.266 213.645 117.483C213.679 116.699 213.515 115.922 213.413 115.145C213.306 114.339 213.266 113.525 213.231 112.713C213.078 109.068 213.057 105.42 213.169 101.77C213.225 101.012 213.187 100.249 213.057 99.4994C212.844 98.523 212.314 97.6504 211.872 96.7533C210.989 95.0637 210.589 93.1646 210.716 91.2638C210.85 89.3103 211.705 87.822 210.865 89.3373Z" fill="white"/>
<path d="M220.68 89.4853C221.04 89.8535 222.262 89.9749 222.719 90.2121C223.149 90.4102 223.598 90.565 224.059 90.6745C225.728 91.1541 227.315 91.8799 228.767 92.8278C229.069 93.0038 229.336 93.2335 229.555 93.5055C229.785 93.8788 229.933 94.2965 229.99 94.7311C230.214 95.8366 230.439 96.9554 230.389 98.0821C230.335 99.2781 229.974 100.436 229.615 101.579L228.275 105.848C227.275 109.035 226.268 112.253 225.987 115.58C225.831 117.424 225.9 119.28 226.193 121.107C226.221 121.196 226.229 121.29 226.217 121.382C226.205 121.475 226.174 121.563 226.125 121.643C226.037 121.73 225.921 121.783 225.797 121.793C225.151 121.894 224.525 121.565 223.939 121.275C222.148 120.386 220.236 119.763 218.265 119.424C219.035 118.315 219.629 117.094 220.027 115.804C220.253 114.985 220.431 114.154 220.559 113.314L221.183 109.722C221.436 108.408 221.615 107.082 221.718 105.748C221.765 105.248 221.735 104.743 221.631 104.252C221.487 103.784 221.296 103.332 221.061 102.902C220.034 100.772 219.552 98.3423 219.956 96.014C220.133 94.9951 220.477 93.9748 220.334 92.9507C220.196 91.966 220.339 91.2007 220.085 90.2262C219.045 86.2251 220.004 88.7925 220.68 89.4853Z" fill="white"/>
<path d="M201.514 98.5503C201.046 99.5188 200.263 100.344 199.996 101.386C199.893 101.873 199.848 102.37 199.864 102.868C199.818 103.617 199.892 104.37 200.084 105.096C200.233 105.555 200.475 105.979 200.65 106.43C200.893 107.059 201.001 107.732 200.967 108.405C200.92 109.338 200.602 110.244 200.577 111.177C200.538 112.646 201.22 114.026 201.885 115.337C202.052 114.924 202.308 114.553 202.635 114.248C202.962 113.944 203.351 113.715 203.776 113.576C204.201 113.437 204.651 113.393 205.095 113.446C205.539 113.499 205.965 113.648 206.346 113.882C206.498 113.696 206.57 113.457 206.547 113.218C206.596 111.514 206.643 109.81 206.689 108.107C206.761 105.472 206.829 102.801 206.221 100.236C205.947 99.078 205.519 97.9242 204.736 97.0259C204.323 96.5529 202.923 95.3069 202.246 95.8368C201.942 96.0751 202.013 96.7238 201.964 97.0523C201.892 97.5715 201.74 98.0767 201.514 98.5503Z" fill="white"/>
<path d="M230.526 95.7586C230.714 96.457 230.795 97.1799 230.765 97.9025C230.774 99.3752 230.754 100.848 230.706 102.32C230.714 103.075 230.617 103.828 230.418 104.557C230.267 105.031 230.034 105.475 229.877 105.947C229.409 107.363 229.665 108.899 229.705 110.389C229.734 110.871 229.692 111.355 229.583 111.825C229.336 112.749 228.672 113.495 228.208 114.332C227.768 115.127 227.503 116.018 226.977 116.76C226.451 117.501 225.541 118.089 224.659 117.861C223.991 117.689 223.516 117.099 223.188 116.494C222.471 115.164 222.226 113.632 222.492 112.145C222.822 110.337 223.888 108.732 224.272 106.935C224.8 104.466 223.998 101.919 224.022 99.3947C224.011 98.9991 224.065 98.6043 224.181 98.226C224.383 97.6494 224.816 97.189 225.216 96.7267C225.716 96.1489 226.181 95.5415 226.607 94.9078C226.893 94.4821 227.282 93.3872 227.79 93.2962C228.924 93.093 230.245 94.8857 230.526 95.7586Z" fill="white"/>
<path d="M195.631 120.366C195.004 120.209 194.358 120.14 193.712 120.162C193.033 120.2 192.37 120.381 191.767 120.693C191.163 121.006 190.634 121.443 190.213 121.975C189.793 122.507 189.491 123.122 189.327 123.78C189.164 124.438 189.142 125.122 189.265 125.789C189.422 126.511 189.678 127.207 190.026 127.859C190.534 128.889 191.145 129.916 192.087 130.575C192.655 130.938 193.266 131.228 193.906 131.438L198.868 133.301C199.598 133.575 200.329 133.849 201.066 134.103C204.77 135.379 208.631 136.144 212.543 136.377C213.733 136.488 214.933 136.427 216.106 136.197C216.39 136.16 216.65 136.02 216.836 135.804C216.93 135.64 216.986 135.456 216.999 135.267L217.304 133.137C217.373 132.84 217.364 132.531 217.278 132.239C217.138 131.881 216.788 131.656 216.454 131.465C213.191 129.597 209.382 128.567 206.636 126.005C205.99 125.401 205.449 124.445 204.663 124.035C203.773 123.571 202.724 123.305 201.803 122.877C199.791 121.941 197.812 120.865 195.631 120.366Z" fill="#2F2E41"/>
<path opacity="0.1" d="M200.585 123.237C202.339 123.784 209.744 127.579 211.014 128.903C210.843 128.964 205.071 125.741 204.898 125.689C203.31 125.254 201.755 124.708 200.245 124.055C199.944 123.916 198.291 123.265 198.366 122.887C198.45 122.46 200.274 123.139 200.585 123.237Z" fill="black"/>
<path d="M222.466 137.481C222.566 137.489 222.665 137.46 222.744 137.4C222.779 137.355 222.805 137.304 222.82 137.249C222.835 137.194 222.839 137.137 222.831 137.081L222.823 134.179C221.986 133.781 221.049 133.654 220.13 133.531L215.84 132.96C215.938 132.973 215.169 134.801 215.287 135.045C215.495 135.475 217.084 135.857 217.532 136.06C219.091 136.766 220.711 137.542 222.466 137.481Z" fill="#A0616A"/>
<path d="M209.007 134.168C208.197 134.297 207.293 134.411 206.768 135.039C206.103 135.836 206.386 137.024 206.704 138.011C206.723 138.138 206.768 138.26 206.836 138.37C206.903 138.48 206.992 138.575 207.097 138.65C207.202 138.725 207.322 138.778 207.448 138.807C207.574 138.835 207.705 138.838 207.832 138.815C208.57 138.861 209.357 138.898 210.002 138.537C210.294 138.344 210.576 138.136 210.845 137.912C211.321 137.597 211.844 137.358 212.395 137.206C213.408 136.889 214.45 136.674 215.507 136.567C215.923 136.548 216.335 136.476 216.732 136.352C216.931 136.288 217.112 136.179 217.262 136.035C217.411 135.89 217.526 135.712 217.595 135.517C217.745 134.989 217.437 134.451 217.142 133.989C216.802 133.383 216.361 132.84 215.838 132.382C215.038 131.763 214.643 132.238 213.838 132.634C212.314 133.384 210.685 133.901 209.007 134.168Z" fill="#A0616A"/>
<path d="M206.89 134.896L201.747 133.381C201.13 133.167 200.486 133.043 199.833 133.012C199.507 132.998 199.181 133.055 198.878 133.177C198.575 133.299 198.301 133.484 198.076 133.72C197.677 134.186 197.563 134.824 197.463 135.429L197.25 136.722C197.109 137.374 197.068 138.044 197.131 138.709C197.166 139.041 197.275 139.361 197.452 139.645C197.63 139.928 197.869 140.168 198.153 140.345C198.865 140.732 199.737 140.543 200.531 140.381C202.136 140.055 203.768 139.88 205.405 139.861C206.021 139.853 206.667 139.861 207.211 139.574C207.526 139.387 207.792 139.127 207.983 138.815C208.175 138.503 208.287 138.149 208.311 137.784C208.412 136.679 208.042 135.235 206.89 134.896Z" fill="#2F2E41"/>
<path d="M224.488 133.576C225.155 133.459 225.744 133.082 226.383 132.859C227.282 132.545 228.256 132.545 229.209 132.549C229.559 132.517 229.911 132.587 230.222 132.751C230.642 133.029 230.75 133.586 230.821 134.084L231.252 137.084C231.367 137.644 231.379 138.22 231.287 138.785C231.16 139.341 230.78 139.877 230.226 140.02C229.554 140.194 228.894 139.766 228.259 139.485C226.672 138.782 224.827 138.962 223.172 138.436C223.014 138.405 222.865 138.34 222.733 138.247C222.602 138.153 222.492 138.033 222.411 137.894C222.355 137.727 222.334 137.55 222.352 137.375C222.38 136.411 222.176 135.094 222.468 134.172C222.73 133.343 223.744 133.576 224.488 133.576Z" fill="#2F2E41"/>
<path d="M235.373 119.157C236.401 118.9 237.466 118.828 238.519 118.943C239.36 119.035 240.227 119.268 240.841 119.848C241.589 120.555 241.829 121.647 241.849 122.673C241.882 124.717 241.201 126.708 239.924 128.308C239.612 128.712 239.241 129.068 238.824 129.363C238.373 129.644 237.893 129.875 237.392 130.051L226.28 134.419C223.356 135.568 220.422 136.72 217.373 137.478C217.29 137.518 217.199 137.541 217.107 137.546C217.014 137.55 216.922 137.537 216.835 137.505C216.748 137.474 216.668 137.425 216.6 137.363C216.532 137.3 216.477 137.224 216.439 137.14C215.465 135.754 214.649 134.265 214.003 132.701C213.973 132.663 213.952 132.619 213.942 132.572C213.932 132.525 213.934 132.477 213.947 132.43C213.96 132.384 213.984 132.342 214.017 132.306C214.05 132.271 214.091 132.245 214.136 132.229L221.996 127.728C222.573 127.429 223.11 127.06 223.596 126.63C223.936 126.302 224.214 125.916 224.417 125.491C224.58 125.151 224.595 124.351 224.804 124.1C225.007 123.855 225.704 123.835 226.026 123.739C226.48 123.6 226.925 123.433 227.357 123.238C229.116 122.454 230.681 121.315 232.367 120.397C233.312 119.858 234.322 119.442 235.373 119.157Z" fill="#2F2E41"/>
<path opacity="0.1" d="M230.917 122.518C229.567 123.529 227.818 124.458 226.48 125.495C226.023 125.849 218.408 130.115 218.301 130.682C219.549 130.891 227.503 125.346 228.641 124.793C229.779 124.24 230.788 123.459 231.788 122.685C232.042 122.488 233.122 121.894 232.391 121.674C231.979 121.549 231.221 122.316 230.917 122.518Z" fill="black"/>
<path d="M221.625 89.583H209.771C209.289 89.583 208.827 89.7737 208.487 90.113C208.146 90.4524 207.955 90.9126 207.955 91.3925V92.0552H207.826V93.537H207.955V94.5744H207.826V95.4635H207.955V106.398C207.955 106.878 208.146 107.338 208.487 107.677C208.827 108.017 209.289 108.207 209.771 108.207H221.625C222.106 108.207 222.568 108.017 222.909 107.677C223.249 107.338 223.441 106.878 223.441 106.398V91.3925C223.441 90.9126 223.249 90.4523 222.909 90.113C222.568 89.7737 222.106 89.583 221.625 89.583Z" fill="#D0CDE1"/>
<path d="M223.508 75.6062L217.496 72.4678L209.193 73.7517L207.476 81.3121L211.752 81.148L212.946 78.3705V81.1024L214.919 81.0268L216.064 76.6045L216.78 81.3121L223.794 81.1693L223.508 75.6062Z" fill="#2F2E41"/>
<path d="M203.087 118.178C203.359 118.639 203.746 119.022 204.21 119.291C204.514 119.429 204.846 119.497 205.18 119.488C205.515 119.479 205.843 119.394 206.139 119.239C206.731 118.923 207.215 118.439 207.531 117.848C208.185 116.698 208.32 115.323 208.238 114.004C208.157 112.685 207.874 111.386 207.749 110.071C207.658 109.114 207.651 108.153 207.643 107.192C207.621 106.99 207.663 106.786 207.765 106.61C207.94 106.437 208.166 106.324 208.409 106.289C209.728 105.899 210.603 104.667 211.231 103.447C211.65 102.632 212.014 101.742 211.934 100.83C211.853 99.9182 211.195 98.9996 210.281 98.9066C209.528 98.8299 208.832 99.3068 208.289 99.8323C206.918 101.167 206.037 102.921 205.787 104.814C205.668 105.742 205.702 106.694 205.449 107.594C204.909 109.516 203.218 110.694 202.375 112.423C201.447 114.329 201.96 116.492 203.087 118.178Z" fill="#A0616A"/>
<path d="M227.966 110.836C227.774 111.281 227.494 111.684 227.143 112.02C226.792 112.356 226.377 112.619 225.922 112.793C225.357 113.019 224.734 113.057 224.145 112.901C223.853 112.821 223.584 112.674 223.358 112.473C223.133 112.271 222.957 112.021 222.844 111.741C222.754 111.459 222.704 111.166 222.697 110.87C222.613 109.574 222.645 108.238 223.118 107.028C223.3 106.561 223.545 106.118 223.689 105.638C223.831 105.084 223.903 104.514 223.905 103.942L224.06 100.406C224.086 100.149 224.068 99.8901 224.007 99.6393C223.852 99.1276 223.372 98.7951 222.932 98.49C221.869 97.7531 220.818 96.8932 220.303 95.709C220.126 95.3525 220.062 94.9506 220.121 94.5571C220.266 93.8549 220.977 93.4004 221.68 93.2472C222.14 93.147 222.616 93.1406 223.078 93.2284C223.54 93.3162 223.98 93.4964 224.371 93.7581C224.762 94.0197 225.095 94.3575 225.351 94.7511C225.607 95.1446 225.781 95.5858 225.862 96.048C225.931 96.447 225.93 96.8547 225.971 97.2577C226.057 98.1125 226.329 98.9365 226.5 99.7788C226.92 101.853 226.702 103.998 227.117 106.072C227.464 107.806 228.772 108.938 227.966 110.836Z" fill="#A0616A"/>
<path d="M215.856 97.538C216.678 97.538 217.343 96.8745 217.343 96.0561C217.343 95.2377 216.678 94.5742 215.856 94.5742C215.035 94.5742 214.369 95.2377 214.369 96.0561C214.369 96.8745 215.035 97.538 215.856 97.538Z" fill="#FFDC29"/>
<path d="M54.3867 149.316C56.8094 149.316 58.7734 147.359 58.7734 144.945C58.7734 142.53 56.8094 140.573 54.3867 140.573C51.964 140.573 50 142.53 50 144.945C50 147.359 51.964 149.316 54.3867 149.316Z" fill="#2F2E41"/>
<path d="M70.2879 157.922L68.0784 155.782L63.6416 157.156L64.0677 162.275L73.1904 161.853L70.3879 158.058L70.2879 157.922Z" fill="#FBBEBE"/>
<path d="M65.4564 157.878C69.3732 157.878 72.5484 154.714 72.5484 150.811C72.5484 146.907 69.3732 143.743 65.4564 143.743C61.5395 143.743 58.3643 146.907 58.3643 150.811C58.3643 154.714 61.5395 157.878 65.4564 157.878Z" fill="#FBBEBE"/>
<path d="M109.484 166.993C109.484 166.993 118.197 181.914 120.27 184.154C121.256 185.256 122.307 186.3 123.416 187.279C123.416 187.279 122.441 190.501 120.889 190.386C120.004 190.333 119.136 190.12 118.328 189.757C118.328 189.757 117.635 187.967 116.426 187.182C115.217 186.397 105.343 176.716 105.573 173.622C105.804 170.527 109.484 166.993 109.484 166.993Z" fill="#2F2E41"/>
<path d="M78.4551 188.286C78.4551 188.286 87.7449 195.471 100.37 188.72L101.458 187.922C101.458 187.922 99.6219 192.038 99.4515 193.154C99.254 194.448 94.4736 202.028 93.6935 202.391C92.9134 202.754 92.7415 203.089 92.7415 203.089L96.052 206.72L97.276 205.822C97.276 205.822 102.049 199.084 103.445 197.851C104.841 196.619 111.491 183.907 111.491 183.907C111.491 183.907 114.034 179.117 107.688 178.757C101.342 178.396 98.4219 180.12 98.4219 180.12L87.1591 181.903L78.4551 188.286Z" fill="#2F2E41"/>
<path d="M123.523 186.572L128.222 189.812C128.222 189.812 134.217 191.684 130.524 192.929C126.831 194.175 117.101 194.625 116.88 192.907C116.659 191.188 117.264 188.484 117.749 188.631C118.235 188.779 121.604 189.651 123.523 186.572Z" fill="#2F2E41"/>
<path d="M97.6918 204.709L98.5615 209.468C98.5615 209.468 101.034 214.181 98.0652 212.719C95.0961 211.257 88.9788 205.702 89.8821 204.538C90.7854 203.373 92.7791 202.11 92.9816 202.49C93.1841 202.869 94.6826 205.41 97.6918 204.709Z" fill="#2F2E41"/>
<path d="M88.7328 183.464C88.7328 183.464 82.4178 190.812 78.5839 189.027C74.75 187.242 59.0648 166.57 60.8557 162.75C62.6467 158.929 63.2473 159.743 63.2473 159.743L71.346 160.489L69.0158 156.766C69.0158 156.766 70.1038 155.968 71.1406 157.088C72.1774 158.208 76.3398 161.005 77.7899 164.956C79.2399 168.907 83.4971 168.71 83.4971 168.71L88.7328 183.464Z" fill="white"/>
<path d="M114.234 168.315L103.288 179.894L93.4814 162.641L102.804 151.417L114.234 168.315Z" fill="#3F3D56"/>
<path d="M113.408 168.19L103.521 178.365L94.5615 162.685L102.778 152.377L113.408 168.19Z" fill="white"/>
<path d="M102.75 179.452L103.287 179.895L102.943 180.564L87.6359 185.104L87.4912 184.582L88.1876 183.864L102.75 179.452Z" fill="#B3B3B3"/>
<path d="M103.423 179.795L87.5726 184.733L77.9102 166.539L93.4812 162.642L103.423 179.795Z" fill="#D0CDE1"/>
<path d="M102.23 177.327L101.549 177.826L94.002 164.766L94.782 164.403L102.23 177.327Z" fill="#3F3D56"/>
<path d="M100.669 178.053L93.9643 180.045L86.3525 166.615L92.986 165.094L100.669 178.053Z" fill="#3F3D56"/>
<path d="M81.7797 168.089L83.1679 167.698C83.1679 167.698 90.9099 166.825 91.023 169.25C91.136 171.674 82.1288 170.549 82.1288 170.549L80.9277 168.923L81.7797 168.089Z" fill="#FBBEBE"/>
<path d="M88.5705 178.987L90.5028 178.197C90.5028 178.197 96.3355 175.591 94.6623 173.893C92.9891 172.195 87.8287 175.144 87.8287 175.144L86.8408 176.077L88.5705 178.987Z" fill="#FBBEBE"/>
<path d="M86.8486 175.236C86.8486 175.236 89.9949 178.36 89.2789 179.094C88.563 179.828 76.8234 189.482 73.9132 186.393C71.0031 183.304 56.8244 167.796 62.3415 166.466C67.8587 165.136 69.3164 168.245 69.3164 168.245L76.5997 180.662L86.8486 175.236Z" fill="white"/>
<path d="M77.428 165.744L82.5962 167.491L82.5118 171.209L77.0459 170.621L77.428 165.744Z" fill="white"/>
<path opacity="0.2" d="M82.0856 177.162L76.5173 180.41L70.1553 170.659L76.2964 178.691L82.0856 177.162Z" fill="black"/>
<path d="M62.3434 157.176C67.0063 157.176 70.7863 153.409 70.7863 148.762C70.7863 144.115 67.0063 140.349 62.3434 140.349C57.6804 140.349 53.9004 144.115 53.9004 148.762C53.9004 153.409 57.6804 157.176 62.3434 157.176Z" fill="#2F2E41"/>
<path d="M107.962 169.049L102.05 160.431L104.556 157.34L110.699 166.206L107.962 169.049Z" fill="#FFDC29"/>
<path d="M107.796 172.513L98.7959 159.475L99.2398 158.94L108.198 172.01L107.796 172.513Z" fill="#E6E6E6"/>
<path d="M106.636 173.782L97.6357 160.743L98.0796 160.209L107.038 173.278L106.636 173.782Z" fill="#E6E6E6"/>
<path d="M105.648 174.715L96.6475 161.677L97.0914 161.143L106.049 174.212L105.648 174.715Z" fill="#E6E6E6"/>
<path d="M66.082 143.145H68.6939C70.0163 143.145 71.2845 143.668 72.2196 144.6C73.1547 145.532 73.68 146.796 73.68 148.113H66.082V143.145Z" fill="#2F2E41"/>
<path d="M102.059 139.982L101.586 139.947C101.567 140.193 101.554 140.439 101.538 140.686L99.4131 140.615L101.642 144.778L104.146 140.773L102.013 140.701C102.028 140.462 102.041 140.221 102.059 139.982Z" fill="#3F3D56"/>
<path d="M114.524 106.049L114.902 106.336C115.468 105.597 116.06 104.859 116.66 104.143L116.295 103.84C115.691 104.561 115.095 105.304 114.524 106.049Z" fill="#3F3D56"/>
<path d="M118.162 101.711L118.513 102.03C119.143 101.342 119.797 100.659 120.457 100L120.12 99.666C119.456 100.33 118.797 101.018 118.162 101.711Z" fill="#3F3D56"/>
<path d="M122.168 97.7093L122.489 98.058C123.178 97.4275 123.89 96.8048 124.603 96.207L124.298 95.8447C123.579 96.4469 122.862 97.0743 122.168 97.7093Z" fill="#3F3D56"/>
<path d="M111.283 110.691L111.685 110.944C112.184 110.157 112.708 109.37 113.242 108.604L112.853 108.334C112.314 109.105 111.786 109.898 111.283 110.691Z" fill="#3F3D56"/>
<path d="M126.507 94.0756L126.796 94.4509C127.538 93.8832 128.301 93.3254 129.065 92.793L128.793 92.4053C128.023 92.9417 127.254 93.5036 126.507 94.0756Z" fill="#3F3D56"/>
<path d="M108.466 115.603L108.888 115.819C109.316 114.99 109.768 114.159 110.233 113.35L109.82 113.115C109.353 113.93 108.897 114.767 108.466 115.603Z" fill="#3F3D56"/>
<path d="M103.886 128.923L103.426 128.805C103.191 129.713 102.974 130.639 102.78 131.557L103.245 131.654C103.437 130.743 103.653 129.824 103.886 128.923Z" fill="#3F3D56"/>
<path d="M131.149 90.8374L131.404 91.2367C132.191 90.7376 133.001 90.2492 133.81 89.7851L133.573 89.375C132.758 89.8427 131.942 90.3346 131.149 90.8374Z" fill="#3F3D56"/>
<path d="M102.726 134.412L102.257 134.335C102.105 135.259 101.971 136.2 101.859 137.133L102.331 137.189C102.442 136.263 102.575 135.329 102.726 134.412Z" fill="#3F3D56"/>
<path d="M106.096 120.747L106.536 120.925C106.888 120.062 107.264 119.194 107.655 118.346L107.224 118.148C106.83 119.003 106.45 119.877 106.096 120.747Z" fill="#3F3D56"/>
<path d="M104.193 126.085L104.648 126.223C104.921 125.33 105.219 124.432 105.532 123.553L105.085 123.395C104.769 124.28 104.469 125.185 104.193 126.085Z" fill="#3F3D56"/>
<path d="M163.272 81.4056C164.203 81.3735 165.151 81.3607 166.089 81.3695L166.093 80.8962C165.149 80.8875 164.193 80.9003 163.256 80.9326L163.272 81.4056Z" fill="#3F3D56"/>
<path d="M136.058 88.0217L136.276 88.4418C137.105 88.0136 137.954 87.5988 138.799 87.2086L138.6 86.7793C137.748 87.1723 136.893 87.5903 136.058 88.0217Z" fill="#3F3D56"/>
<path d="M174.51 81.9959C175.436 82.1266 176.371 82.2796 177.289 82.4507L177.376 81.9855C176.451 81.8132 175.51 81.6589 174.576 81.5273L174.51 81.9959Z" fill="#3F3D56"/>
<path d="M180.044 83.0271C180.953 83.2388 181.871 83.474 182.771 83.7262L182.9 83.2706C181.993 83.0165 181.068 82.7797 180.152 82.5664L180.044 83.0271Z" fill="#3F3D56"/>
<path d="M185.464 84.5461C186.351 84.8376 187.243 85.1532 188.118 85.4843L188.286 85.0421C187.406 84.7084 186.506 84.3904 185.613 84.0967L185.464 84.5461Z" fill="#3F3D56"/>
<path d="M168.904 81.4549C169.839 81.5038 170.784 81.5741 171.713 81.6635L171.759 81.1926C170.823 81.1023 169.871 81.0316 168.929 80.9824L168.904 81.4549Z" fill="#3F3D56"/>
<path d="M157.603 81.375L157.66 81.8447C158.586 81.7313 159.528 81.6366 160.461 81.5636L160.424 81.0918C159.484 81.1654 158.535 81.2607 157.603 81.375Z" fill="#3F3D56"/>
<path d="M146.524 83.7425L146.665 84.1944C147.557 83.9191 148.468 83.6601 149.372 83.4245L149.252 82.9668C148.341 83.204 147.424 83.465 146.524 83.7425Z" fill="#3F3D56"/>
<path d="M141.194 85.6507L141.375 86.0886C142.238 85.7355 143.12 85.3976 143.996 85.0839L143.835 84.6387C142.953 84.9545 142.064 85.2951 141.194 85.6507Z" fill="#3F3D56"/>
<path d="M152.012 82.3131L152.111 82.7759C153.024 82.581 153.954 82.4037 154.876 82.249L154.797 81.7822C153.868 81.9382 152.931 82.1168 152.012 82.3131Z" fill="#3F3D56"/>
<path d="M195.204 88.41L192.55 84.502L191.617 86.416C191.391 86.3155 191.166 86.2128 190.941 86.1154L190.752 86.5498C190.972 86.6448 191.19 86.7445 191.409 86.8418L190.48 88.7468L195.204 88.41Z" fill="#3F3D56"/>
</g>
<defs>
<filter id="filter0_d" x="0" y="0" width="315" height="257" filterUnits="userSpaceOnUse" color-interpolation-filters="sRGB">
<feFlood flood-opacity="0" result="BackgroundImageFix"/>
<feColorMatrix in="SourceAlpha" type="matrix" values="0 0 0 0 0 0 0 0 0 0 0 0 0 0 0 0 0 0 127 0"/>
<feOffset dy="2"/>
<feGaussianBlur stdDeviation="4"/>
<feColorMatrix type="matrix" values="0 0 0 0 0 0 0 0 0 0 0 0 0 0 0 0 0 0 0.25 0"/>
<feBlend mode="normal" in2="BackgroundImageFix" result="effect1_dropShadow"/>
<feBlend mode="normal" in="SourceGraphic" in2="effect1_dropShadow" result="shape"/>
</filter>
<clipPath id="clip0">
<rect x="50" y="40" width="215" height="173" fill="white"/>
</clipPath>
</defs>
</svg>
