<svg width="316" height="257" viewBox="0 0 316 257" fill="none" xmlns="http://www.w3.org/2000/svg">
<g filter="url(#filter0_d)">
<rect x="8" y="6" width="300" height="241" rx="16" fill="white"/>
</g>
<g clip-path="url(#clip0)">
<path d="M190.585 199.783C187.727 199.085 184.249 196.179 184.993 192.185C185.363 190.204 186.78 188.922 188.25 188.093C190.283 186.946 192.598 186.514 194.829 186.405C197.403 186.279 199.974 186.597 202.528 186.932C205.05 187.264 207.572 187.561 210.105 187.742C215.096 188.098 220.102 188.104 225.094 187.762C229.989 187.429 234.859 186.759 239.677 185.755C242.068 185.255 244.445 184.669 246.808 183.997C249.03 183.406 251.217 182.666 253.357 181.782C256.166 180.561 260.734 178.187 260.361 173.788C260.164 171.456 258.646 169.594 257.116 168.296C255.265 166.727 253.124 165.695 251.026 164.693C241.27 160.03 231.495 155.422 221.729 150.788C219.45 149.706 217.155 148.653 214.943 147.386C212.872 146.199 210.811 144.82 209.145 142.914C207.689 141.249 206.388 139.014 206.434 136.516C206.472 134.444 207.514 132.685 208.79 131.371C211.949 128.118 216.418 126.799 220.458 126.108C225.476 125.249 230.567 125.254 235.588 124.425C239.643 123.755 243.975 122.463 247.273 119.435C248.537 118.274 249.652 116.78 250.121 114.932C250.541 113.132 250.332 111.225 249.535 109.587C248.642 107.656 247.217 106.118 245.719 104.859C243.947 103.401 241.999 102.223 239.931 101.359C235.477 99.4382 230.794 98.4382 226.232 96.9643C223.995 96.2414 221.735 95.4488 219.657 94.2072C217.897 93.1553 215.98 91.7374 215.001 89.6289C212.981 85.2786 217.8 82.6859 220.532 81.7038C222.403 81.0628 224.313 80.5679 226.247 80.2229C226.659 80.1429 226.484 79.399 226.075 79.4786C224.04 79.8364 222.033 80.3667 220.072 81.0648C218.425 81.684 216.726 82.4979 215.432 83.8983C214.346 85.0745 213.67 86.7457 213.96 88.5099C214.303 90.5972 215.792 92.2056 217.191 93.3705C219.041 94.911 221.15 95.9171 223.288 96.7372C225.54 97.6009 227.84 98.2741 230.14 98.9343C234.734 100.254 239.534 101.429 243.682 104.237C246.583 106.201 250.524 109.883 249.559 114.447C249.131 116.473 247.83 118.058 246.426 119.223C244.729 120.631 242.786 121.593 240.815 122.31C231.624 125.658 221.509 123.264 212.555 127.81C209.511 129.356 205.813 132.171 205.783 136.599C205.768 138.899 206.787 141.009 208.047 142.677C209.555 144.674 211.509 146.151 213.497 147.386C215.61 148.648 217.782 149.786 220.005 150.796C222.454 151.96 224.904 153.123 227.354 154.284L242.224 161.341L249.613 164.847C251.868 165.918 254.18 166.944 256.231 168.515C257.909 169.801 259.893 171.912 259.721 174.532C259.585 176.613 258.058 178.115 256.662 179.119C254.855 180.419 252.824 181.26 250.804 181.958C248.474 182.764 246.105 183.433 243.732 184.034C238.845 185.268 233.889 186.146 228.896 186.662C223.887 187.184 218.853 187.354 213.824 187.171C211.282 187.078 208.744 186.894 206.21 186.619C203.598 186.334 200.997 185.895 198.379 185.701C196.01 185.525 193.618 185.565 191.285 186.131C189.338 186.604 187.28 187.446 185.801 189.089C185.278 189.666 184.87 190.357 184.606 191.119C184.342 191.88 184.226 192.694 184.267 193.507C184.389 195.151 185.024 196.697 186.064 197.886C187.238 199.228 188.754 200.149 190.412 200.528C190.821 200.627 190.995 199.884 190.585 199.783L190.585 199.783Z" fill="#E6E6E6"/>
<path d="M262 200.361H54V200.938H262V200.361Z" fill="#3F3D56"/>
<path d="M244.55 172.895L254.331 188.825L245.225 198.829L244.044 196.235L246.068 191.048C246.068 191.048 245.73 186.232 244.55 184.935C243.369 183.639 238.142 175.858 238.142 175.858L244.55 172.895Z" fill="#FFB8B8"/>
<path d="M232.07 121.396C232.07 121.396 233.925 124.621 230.046 138.514C230.046 138.514 248.138 172.055 245.272 174.278C242.405 176.501 234.647 181.421 232.623 179.939C230.599 178.457 215.881 128.251 215.881 128.251L232.07 121.396Z" fill="#2F2E41"/>
<path d="M252.56 185.954L255.511 189.196C257.029 190.863 258.041 193.271 255.174 195.309C252.307 197.347 242.357 204.942 238.985 202.533C235.612 200.125 243.032 197.902 243.032 197.902C243.032 197.902 244.259 192.905 244.91 194.014C245.562 195.124 245.562 197.347 245.562 197.347L252.56 185.954Z" fill="#2F2E41"/>
<path d="M216.893 181.601C216.893 181.601 211.496 192.53 211.496 193.827C211.496 195.124 211.833 198.828 211.833 198.828L201.546 201.607L198.005 199.755L199.185 196.42C199.185 196.42 205.594 194.012 206.943 189.381C208.292 184.75 209.81 179.934 209.81 179.934L216.893 181.601Z" fill="#FFB8B8"/>
<path d="M223.133 72.8632C227.045 72.8632 230.216 69.3799 230.216 65.083C230.216 60.7861 227.045 57.3027 223.133 57.3027C219.221 57.3027 216.05 60.7861 216.05 65.083C216.05 69.3799 219.221 72.8632 223.133 72.8632Z" fill="#FFB8B8"/>
<path d="M221.277 71.7516L224.659 82.4244L232.07 78.7909C232.07 78.7909 227.011 70.2697 227.011 69.1582L221.277 71.7516Z" fill="#FFB8B8"/>
<path d="M220.266 109.727H229.203C229.203 109.727 235.612 120.471 231.902 131.771C231.334 133.501 230.77 135.925 230.207 138.791C228.912 145.381 227.623 154.309 226.302 162.512C224.447 174.035 222.528 184.13 220.443 184.313C216.227 184.684 208.028 184.622 208.028 182.769C208.028 180.917 213.52 127.325 213.52 127.325L214.7 125.102L214.924 115.419C214.959 113.891 215.538 112.439 216.537 111.375C217.535 110.311 218.874 109.719 220.266 109.727L220.266 109.727Z" fill="#2F2E41"/>
<path d="M211.412 193.734C211.412 193.734 213.351 197.347 212.845 199.94C212.339 202.533 211.496 202.163 207.786 202.533C204.076 202.904 191.428 202.904 191.428 200.311C191.428 197.717 201.294 194.349 201.336 195.385C201.378 196.42 201.715 198.458 200.703 198.829C199.691 199.199 200.619 198.921 200.619 198.921L211.412 193.734Z" fill="#2F2E41"/>
<path d="M217.037 131.88C217.037 131.88 215.009 144.874 210.532 140.397C206.054 135.92 213.513 129.695 213.513 129.695L217.037 131.88Z" fill="#FFB8B8"/>
<path d="M231.044 115.517C231.279 115.634 231.539 115.678 231.795 115.644C232.051 115.611 232.294 115.502 232.498 115.328C232.794 115.073 232.991 114.704 233.05 114.296C233.757 109.816 234.618 97.3975 235.115 91.1177C235.737 83.2379 232.628 77.1347 232.602 77.0976L230.769 74.33C230.579 74.0409 230.305 73.831 229.992 73.7346C229.68 73.6381 229.346 73.6608 229.047 73.799C229.047 73.799 223.326 80.3184 223.305 80.5702C223.215 81.6511 222.535 84.0464 218.986 87.9444C215.103 92.2096 215.082 95.9321 215.167 96.9715C215.173 97.0398 215.176 97.1081 215.176 97.1763C215.169 97.6426 215.226 98.1074 215.347 98.5545C216.974 104.187 215.7 110.93 213.655 117.968C213.577 118.286 213.592 118.623 213.696 118.931C213.8 119.24 213.989 119.505 214.237 119.691C214.834 120.137 214.118 119.475 214.331 119.762C215.741 121.659 217.769 119.015 220.09 116.129C220.898 115.124 221.814 113.985 222.894 112.799C224.378 111.168 227.215 114.889 228.534 114.889C229.401 114.901 230.257 115.115 231.044 115.517Z" fill="#FFDA63"/>
<path d="M232.747 80.5723C232.747 80.5723 236.091 84.4252 233.56 88.5989C231.028 92.7726 230.982 96.0692 230.982 96.0692C230.982 96.0692 227.407 126.397 221.016 124.137L217.147 132.799L211.987 130.026L215.883 122.444C215.883 122.444 213.412 121.976 214.324 120.201C214.964 118.955 219.124 105.095 221.543 96.9544C222.568 93.5049 223.281 91.0826 223.281 91.0826C223.281 91.0826 226.631 78.908 232.747 80.5723Z" fill="#FFDA63"/>
<path opacity="0.2" d="M231.986 96.1107L228.434 110.787L231.136 94.9629L231.986 96.1107Z" fill="black"/>
<path d="M215.405 61.6357C215.405 61.6357 214.214 51.4562 223.93 54.7943C223.93 54.7943 230.869 53.3957 233.144 62.9301L235.449 72.9244L234.326 72.253L233.802 73.5101L231.982 74.0163L231.204 72.3186L230.827 74.3803L215.923 76.0124C215.923 76.0124 222.598 71.6759 222.704 63.9039L221.432 65.3799L215.405 61.6357Z" fill="#2F2E41"/>
<path d="M76.1632 50.8555C75.9378 50.8564 75.722 50.9555 75.5631 51.131C75.4042 51.3065 75.3151 51.544 75.3154 51.7916V127.622C75.3151 127.87 75.4041 128.108 75.5631 128.283C75.722 128.458 75.9378 128.558 76.1632 128.558H174.72C174.945 128.558 175.161 128.458 175.32 128.283C175.479 128.107 175.568 127.87 175.568 127.622V51.7916C175.568 51.544 175.479 51.3065 175.32 51.131C175.161 50.9555 174.945 50.8564 174.72 50.8555H76.1632Z" fill="#3F3D56"/>
<path d="M75.8085 95.4214C78.8149 95.4119 81.6532 96.5855 84.1287 98.4106C86.7271 100.326 88.9231 102.864 90.8522 105.552C92.984 108.522 94.8106 111.736 96.7714 114.841C98.5822 117.708 100.523 120.495 102.856 122.878C105.064 125.131 107.622 127.026 110.506 128.054C110.857 128.179 111.212 128.29 111.57 128.389C111.974 128.5 112.146 127.815 111.742 127.704C108.781 126.887 106.133 125.119 103.856 122.915C101.481 120.615 99.5059 117.886 97.6903 115.049C95.7135 111.961 93.8945 108.75 91.8044 105.75C89.8705 102.974 87.6957 100.364 85.1125 98.3019C82.7154 96.3879 79.9387 95.0247 76.962 94.7586C76.5782 94.7243 76.1935 94.7098 75.8084 94.711C75.7246 94.7142 75.6452 94.753 75.5869 94.8193C75.5287 94.8856 75.4961 94.9741 75.4961 95.0662C75.4961 95.1583 75.5287 95.2469 75.5869 95.3131C75.6452 95.3794 75.7246 95.4182 75.8084 95.4214L75.8085 95.4214Z" fill="#FFDA63"/>
<path d="M76.1443 128.219C81.4329 122.343 88.6627 119.565 95.8423 117.763C103.351 115.879 111.099 114.867 118.233 111.505C121.64 109.943 124.767 107.728 127.469 104.965C129.992 102.318 132.085 99.2166 133.658 95.7955C136.867 88.8602 137.865 80.9426 136.492 73.3102C135.04 65.5509 131.439 58.4745 126.183 53.0504C125.542 52.3891 124.879 51.7559 124.194 51.151C123.872 50.8668 123.412 51.3664 123.736 51.6533C129.323 56.6012 133.368 63.337 135.31 70.9254C137.208 78.4111 136.717 86.3848 133.918 93.5214C132.561 96.9882 130.681 100.179 128.36 102.961C125.896 105.863 122.967 108.241 119.719 109.975C112.798 113.729 105.052 114.89 97.5794 116.619C90.534 118.248 83.3474 120.573 77.6987 125.693C76.9975 126.33 76.3261 127.005 75.687 127.716C75.3941 128.042 75.8511 128.544 76.1443 128.219Z" fill="#FFDA63"/>
<path d="M75.7474 83.7362C83.8639 81.3248 92.4527 81.6479 100.4 84.6637C102.709 85.5334 105.077 86.5443 107.008 88.2259C108.67 89.6725 110.129 91.8625 109.714 94.3213C109.331 96.588 107.433 98.3783 105.39 98.7059C103.283 99.0438 101.364 97.6355 100.397 95.6398C99.904 94.65 99.6787 93.5259 99.7479 92.4001C99.8171 91.2742 100.178 90.1936 100.788 89.2856C102.009 87.4787 104.04 86.4467 106.035 86.1606C108.317 85.8336 110.56 86.5722 112.533 87.8071C116.992 90.5982 119.84 95.4642 123.585 99.1736C125.38 101.007 127.487 102.433 129.786 103.368C132.009 104.212 134.354 104.602 136.705 104.518C141.633 104.38 146.358 102.424 150.384 99.357C154.423 96.2801 157.758 92.2402 160.679 87.9288C162.241 85.6234 163.598 83.1462 165.232 80.9017C166.841 78.6923 168.831 76.7281 171.376 75.9885C172.535 75.6365 173.758 75.6291 174.92 75.967C175.001 75.9884 175.087 75.9741 175.159 75.9272C175.232 75.8804 175.284 75.8045 175.307 75.7157C175.329 75.6268 175.319 75.532 175.279 75.451C175.239 75.3701 175.172 75.3095 175.092 75.2819C172.617 74.5407 170.015 75.4083 167.964 76.9903C165.769 78.6825 164.197 81.1353 162.705 83.5373C159.724 88.3365 156.514 92.9874 152.44 96.7417C148.372 100.49 143.477 103.176 138.14 103.714C135.588 103.997 133.009 103.721 130.554 102.902C127.988 102.017 125.762 100.417 123.795 98.4232C119.93 94.5058 116.923 89.3638 112.086 86.7416C110.047 85.6363 107.816 85.1061 105.556 85.5269C103.567 85.8974 101.61 86.975 100.355 88.7453C99.72 89.6352 99.3055 90.6909 99.1522 91.8093C98.999 92.9277 99.1122 94.0707 99.4809 95.1267C100.195 97.1876 101.79 98.9675 103.815 99.3734C105.859 99.783 107.994 98.7477 109.27 96.9855C109.909 96.1013 110.297 95.0302 110.386 93.9055C110.475 92.7809 110.261 91.6524 109.77 90.6605C108.72 88.4314 106.672 86.8903 104.677 85.8027C102.171 84.4811 99.5401 83.4655 96.8322 82.7741C91.2753 81.2856 85.5031 81.036 79.8569 82.0399C78.4153 82.2984 76.9864 82.6359 75.5755 83.0512C75.4954 83.0788 75.4283 83.1394 75.3881 83.2203C75.348 83.3012 75.338 83.3961 75.3603 83.4849C75.3826 83.5737 75.4354 83.6496 75.5076 83.6965C75.5798 83.7434 75.6658 83.7576 75.7474 83.7362H75.7474Z" fill="#FFDA63"/>
<path d="M143.222 128.531C145.511 125.155 147.85 121.575 148.838 117.446C149.33 115.475 149.402 113.406 149.049 111.399C148.707 109.65 148.042 107.996 147.093 106.541C145.149 103.507 142.282 101.252 139.231 99.7295C135.452 97.8444 131.378 96.8777 127.434 95.5183C123.799 94.2653 120.072 92.6303 117.357 89.5849C114.792 86.7075 113.338 82.3764 114.769 78.4808C116.067 74.9461 119.231 72.6021 122.39 71.3646C126.262 69.8474 130.41 69.5743 134.356 68.3718C137.656 67.3665 141.032 65.6523 143.075 62.5049C144.806 59.8376 145.361 55.9912 143.978 53.0101C143.64 52.2874 143.186 51.638 142.637 51.0937C142.33 50.7873 141.871 51.2882 142.18 51.596C144.513 53.9189 144.541 57.8932 143.226 60.8351C141.683 64.2894 138.35 66.2571 135.142 67.3747C131.323 68.705 127.283 68.9889 123.446 70.2405C120.167 71.3103 116.959 73.2283 115.029 76.4338C114.092 77.969 113.578 79.7686 113.549 81.6167C113.559 83.5943 114.039 85.5347 114.942 87.2455C116.767 90.8035 120.018 93.105 123.365 94.6581C130.4 97.9233 138.747 98.422 144.543 104.409C147.033 106.979 148.723 110.394 148.625 114.219C148.518 118.438 146.465 122.276 144.329 125.647C143.789 126.501 143.229 127.338 142.664 128.172C142.415 128.539 142.976 128.893 143.222 128.531V128.531Z" fill="#FFDA63"/>
<path d="M90.4028 51.8051C91.2929 52.5177 92.0133 53.4558 92.5028 54.5396C92.9923 55.6235 93.2364 56.8211 93.2144 58.0307C93.1794 59.2554 92.8691 60.4516 92.3113 61.5127C91.7534 62.5738 90.9652 63.4668 90.017 64.1122C88.221 65.2767 85.6966 65.4233 84.2665 63.5203C83.6749 62.7485 83.3799 61.7539 83.4442 60.7474C83.4951 60.2616 83.6517 59.7965 83.9009 59.3913C84.1501 58.9861 84.4844 58.6528 84.8757 58.4196C86.69 57.2825 88.8645 57.9519 90.5411 59.0415C91.5788 59.7159 92.5285 60.5363 93.5207 61.2855C94.4687 62.0074 95.481 62.6216 96.5421 63.1187C100.766 65.0787 105.723 65.102 109.887 62.9355C111.774 61.9432 113.464 60.5514 114.859 58.84C116.255 57.1286 117.33 55.1313 118.021 52.9626C118.188 52.4264 118.328 51.8808 118.442 51.3282C118.534 50.883 117.911 50.693 117.819 51.1393C116.847 55.8365 113.878 59.8982 109.988 62.0907C105.748 64.4804 100.512 64.4136 96.2266 62.1914C95.1279 61.5968 94.0806 60.894 93.0977 60.0914C92.0867 59.2955 91.0785 58.4737 89.9484 57.8895C88.1719 56.9712 85.8467 56.7127 84.1807 58.0709C83.79 58.3832 83.4644 58.7835 83.2259 59.245C82.9873 59.7066 82.8412 60.2188 82.7974 60.7474C82.7345 61.8297 83.0283 62.9006 83.6252 63.7645C85.0109 65.8177 87.5053 66.1084 89.5513 65.1605C91.7032 64.1635 93.2536 61.906 93.7137 59.4113C93.9894 57.8711 93.8544 56.2761 93.325 54.8181C92.7956 53.36 91.8942 52.1008 90.7292 51.1917C90.3908 50.9244 90.0675 51.5403 90.4028 51.8051H90.4028Z" fill="#FFDA63"/>
<path d="M158.988 128.395C159.674 124.971 161.043 121.756 162.995 118.983C164.939 116.201 167.397 113.902 170.207 112.237C171.785 111.305 173.465 110.599 175.207 110.138C175.611 110.031 175.44 109.346 175.035 109.453C171.855 110.315 168.888 111.939 166.347 114.209C163.795 116.464 161.706 119.288 160.218 122.494C159.38 124.303 158.757 126.222 158.365 128.206C158.277 128.652 158.901 128.842 158.988 128.395H158.988Z" fill="#FFDA63"/>
<path d="M155.555 51.1992C154.176 51.2145 153.013 52.2629 152.449 53.5996C151.808 55.1165 151.983 56.7859 152.67 58.2474C154.273 61.657 157.772 62.8653 160.292 65.2227C161.461 66.3165 162.48 67.7082 162.748 69.4112C163.009 71.0713 162.47 72.7821 161.585 74.1179C160.62 75.5765 159.164 76.5793 157.647 77.2118C156.087 77.8633 154.44 78.2262 152.772 78.2855C151.16 78.3356 149.457 78.0264 148.122 76.9705C147.568 76.5357 147.103 75.9792 146.755 75.3363C146.407 74.6935 146.184 73.9783 146.101 73.2361C146.033 72.5649 146.137 71.8861 146.401 71.2762C146.665 70.6662 147.078 70.1493 147.595 69.7835C148.637 69.1066 149.874 68.8862 151.057 69.1664C154.006 69.8065 155.534 73.0209 156.186 75.9675C157.017 79.7196 156.687 83.7085 157.964 87.3544C159.053 90.4396 161.035 93.046 163.605 94.7719C166.551 96.7402 169.723 97.3773 173.066 96.4158C173.917 96.166 174.745 95.8278 175.538 95.4056C175.913 95.2083 175.585 94.5956 175.211 94.7922C171.888 96.5394 168.488 96.5952 165.144 94.8735C162.373 93.4292 160.152 90.961 158.87 87.9003C157.356 84.2828 157.657 80.221 156.937 76.4C156.357 73.3245 154.949 69.8962 152.072 68.7398C149.757 67.8092 146.655 68.5316 145.691 71.2699C145.187 72.7013 145.479 74.338 146.171 75.6303C146.951 77.0459 148.184 78.0911 149.629 78.5619C151.251 79.1283 153.002 79.0808 154.666 78.7926C156.341 78.5355 157.96 77.9512 159.447 77.0672C160.872 76.2175 162.031 74.9162 162.772 73.3328C163.463 71.7852 163.686 69.984 163.16 68.3347C161.999 64.6908 158.488 63.1862 155.867 61.0793C154.575 60.0412 153.363 58.6776 152.881 56.9593C152.656 56.2233 152.625 55.4322 152.793 54.6778C152.96 53.9234 153.319 53.2367 153.828 52.6974C154.293 52.2059 154.91 51.9247 155.555 51.9096C155.639 51.9064 155.718 51.8676 155.777 51.8013C155.835 51.7351 155.868 51.6465 155.868 51.5544C155.868 51.4623 155.835 51.3738 155.777 51.3075C155.718 51.2412 155.639 51.2024 155.555 51.1992L155.555 51.1992Z" fill="#FFDA63"/>
<path d="M142.603 116.09C149.509 116.09 155.107 109.941 155.107 102.356C155.107 94.7702 149.509 88.6211 142.603 88.6211C135.698 88.6211 130.1 94.7702 130.1 102.356C130.1 109.941 135.698 116.09 142.603 116.09Z" fill="#FFDA63"/>
<path d="M145.836 71.5716C148.575 71.5716 150.795 69.1331 150.795 66.1252C150.795 63.1172 148.575 60.6787 145.836 60.6787C143.098 60.6787 140.878 63.1172 140.878 66.1252C140.878 69.1331 143.098 71.5716 145.836 71.5716Z" fill="#FFDA63"/>
<path d="M85.2591 75.597C87.9975 75.597 90.2174 73.1585 90.2174 70.1505C90.2174 67.1426 87.9975 64.7041 85.2591 64.7041C82.5207 64.7041 80.3008 67.1426 80.3008 70.1505C80.3008 73.1585 82.5207 75.597 85.2591 75.597Z" fill="#FFDA63"/>
<path opacity="0.2" d="M226.488 163.097L229.812 138.771L227.109 165.032L226.488 163.097Z" fill="black"/>
<path d="M231.921 59.0108C233.99 59.0108 235.668 57.1677 235.668 54.8941C235.668 52.6205 233.99 50.7773 231.921 50.7773C229.851 50.7773 228.173 52.6205 228.173 54.8941C228.173 57.1677 229.851 59.0108 231.921 59.0108Z" fill="#2F2E41"/>
<path d="M228.059 53.8858C228.12 52.8413 228.542 51.8619 229.238 51.147C229.934 50.4322 230.852 50.0356 231.805 50.0381C231.727 50.0273 231.651 50.0142 231.572 50.0087C231.08 49.9736 230.588 50.0452 230.122 50.2195C229.655 50.3937 229.225 50.6671 228.855 51.0241C228.485 51.381 228.183 51.8146 227.966 52.2999C227.748 52.7852 227.62 53.3129 227.589 53.8526C227.557 54.3923 227.623 54.9336 227.782 55.4455C227.941 55.9574 228.19 56.4299 228.515 56.836C228.84 57.242 229.235 57.5737 229.677 57.8121C230.119 58.0504 230.599 58.1908 231.091 58.2251C231.17 58.2307 231.247 58.2285 231.325 58.2287C230.38 58.0971 229.516 57.5747 228.909 56.7679C228.302 55.961 227.998 54.9303 228.059 53.8858Z" fill="#2F2E41"/>
<path d="M222.551 67.5006C223.198 67.5006 223.722 66.6942 223.722 65.6995C223.722 64.7048 223.198 63.8984 222.551 63.8984C221.904 63.8984 221.38 64.7048 221.38 65.6995C221.38 66.6942 221.904 67.5006 222.551 67.5006Z" fill="#FFB8B8"/>
<path opacity="0.2" d="M220.208 99.4053L215.014 118.311L221.379 97.5049L220.208 99.4053Z" fill="black"/>
</g>
<defs>
<filter id="filter0_d" x="0" y="0" width="316" height="257" filterUnits="userSpaceOnUse" color-interpolation-filters="sRGB">
<feFlood flood-opacity="0" result="BackgroundImageFix"/>
<feColorMatrix in="SourceAlpha" type="matrix" values="0 0 0 0 0 0 0 0 0 0 0 0 0 0 0 0 0 0 127 0"/>
<feOffset dy="2"/>
<feGaussianBlur stdDeviation="4"/>
<feColorMatrix type="matrix" values="0 0 0 0 0 0 0 0 0 0 0 0 0 0 0 0 0 0 0.25 0"/>
<feBlend mode="normal" in2="BackgroundImageFix" result="effect1_dropShadow"/>
<feBlend mode="normal" in="SourceGraphic" in2="effect1_dropShadow" result="shape"/>
</filter>
<clipPath id="clip0">
<rect x="54" y="50" width="208" height="153" fill="white"/>
</clipPath>
</defs>
</svg>
