<svg width="419" height="387" viewBox="0 0 419 387" fill="none" xmlns="http://www.w3.org/2000/svg">
<path d="M419 285.242C419 380.206 312.543 392.509 211.308 385.277C107.261 385.277 0 345.504 0 285.242C0 227.199 31.2155 133.549 84.6574 69.5026C118.652 28.7622 161.64 0 211.308 0C299.833 0 419 190.277 419 285.242Z" fill="#6F63AD" fill-opacity="0.1"/>
<rect x="89.9834" y="105.697" width="105.252" height="28.9243" rx="3" fill="white"/>
<rect x="221.75" y="67.9346" width="49.0105" height="50.6175" rx="3" fill="white"/>
<rect x="232.194" y="157.118" width="93.2004" height="49.814" rx="2" fill="white"/>
<rect x="102.035" y="173.99" width="49.0105" height="49.814" fill="white"/>
<rect x="177.56" y="227.821" width="48.2071" height="28.1208" rx="1" fill="white"/>
<g clip-path="url(#clip0)">
<path d="M193.656 134.439H91.7801C91.28 134.438 90.8005 134.239 90.4468 133.886C90.0931 133.532 89.8941 133.053 89.8936 132.552V107.287C89.8941 106.787 90.0931 106.307 90.4468 105.953C90.8005 105.6 91.28 105.401 91.7801 105.4H193.656C194.156 105.401 194.635 105.6 194.989 105.953C195.343 106.307 195.542 106.787 195.542 107.287V132.552C195.542 133.053 195.343 133.532 194.989 133.886C194.635 134.239 194.156 134.438 193.656 134.439ZM91.7801 106.155C91.48 106.155 91.1923 106.275 90.9801 106.487C90.7679 106.699 90.6485 106.987 90.6482 107.287V132.552C90.6485 132.853 90.7679 133.14 90.9801 133.352C91.1923 133.565 91.48 133.684 91.7801 133.684H193.656C193.956 133.684 194.244 133.565 194.456 133.352C194.668 133.14 194.787 132.853 194.788 132.552V107.287C194.787 106.987 194.668 106.699 194.456 106.487C194.244 106.275 193.956 106.155 193.656 106.155L91.7801 106.155Z" fill="#3F3D56"/>
<path d="M107.609 126.633C111.853 126.633 115.294 123.193 115.294 118.95C115.294 114.707 111.853 111.267 107.609 111.267C103.364 111.267 99.9238 114.707 99.9238 118.95C99.9238 123.193 103.364 126.633 107.609 126.633Z" fill="#FFDA63"/>
<path d="M125.358 113.828C125.018 113.828 124.692 113.963 124.452 114.203C124.212 114.443 124.077 114.769 124.077 115.109C124.077 115.448 124.212 115.774 124.452 116.014C124.692 116.254 125.018 116.389 125.358 116.389H185.74C186.079 116.389 186.405 116.254 186.645 116.014C186.885 115.774 187.02 115.448 187.02 115.109C187.02 114.769 186.885 114.443 186.645 114.203C186.405 113.963 186.079 113.828 185.74 113.828H125.358Z" fill="#E6E6E6"/>
<path d="M125.358 121.511C125.018 121.511 124.692 121.646 124.452 121.886C124.212 122.126 124.077 122.452 124.077 122.791C124.077 123.131 124.212 123.457 124.452 123.697C124.692 123.937 125.018 124.072 125.358 124.072H151.34C151.509 124.072 151.676 124.039 151.831 123.975C151.987 123.911 152.128 123.817 152.248 123.698C152.367 123.579 152.461 123.437 152.526 123.282C152.59 123.126 152.624 122.96 152.624 122.791C152.624 122.623 152.59 122.456 152.526 122.301C152.461 122.145 152.367 122.004 152.248 121.885C152.128 121.766 151.987 121.672 151.831 121.608C151.676 121.543 151.509 121.51 151.34 121.511H125.358Z" fill="#E6E6E6"/>
<path d="M149.427 224.5H104.149C103.649 224.5 103.17 224.301 102.816 223.947C102.462 223.594 102.263 223.114 102.263 222.614V175.468C102.263 174.968 102.462 174.489 102.816 174.135C103.17 173.782 103.649 173.583 104.149 173.582H149.427C149.928 173.583 150.407 173.782 150.761 174.135C151.114 174.489 151.313 174.968 151.314 175.468V222.614C151.313 223.114 151.114 223.594 150.761 223.947C150.407 224.301 149.928 224.5 149.427 224.5ZM104.149 174.337C103.849 174.337 103.561 174.456 103.349 174.668C103.137 174.881 103.018 175.168 103.017 175.468V222.614C103.018 222.914 103.137 223.202 103.349 223.414C103.561 223.626 103.849 223.745 104.149 223.746H149.427C149.728 223.745 150.015 223.626 150.227 223.414C150.44 223.202 150.559 222.914 150.559 222.614V175.468C150.559 175.168 150.44 174.881 150.227 174.668C150.015 174.456 149.728 174.337 149.427 174.337H104.149Z" fill="#3F3D56"/>
<path d="M113.796 183.304C113.457 183.304 113.131 183.439 112.891 183.679C112.651 183.919 112.516 184.245 112.516 184.584C112.516 184.924 112.651 185.25 112.891 185.49C113.131 185.73 113.457 185.865 113.796 185.865H139.779C140.119 185.865 140.444 185.73 140.685 185.49C140.925 185.25 141.06 184.924 141.06 184.584C141.06 184.245 140.925 183.919 140.685 183.679C140.444 183.439 140.119 183.304 139.779 183.304H113.796Z" fill="#E6E6E6"/>
<path d="M113.797 190.849C113.628 190.848 113.462 190.881 113.306 190.945C113.15 191.01 113.009 191.104 112.89 191.223C112.77 191.342 112.676 191.483 112.611 191.639C112.547 191.794 112.514 191.961 112.514 192.129C112.514 192.298 112.547 192.464 112.611 192.62C112.676 192.775 112.77 192.917 112.89 193.036C113.009 193.154 113.15 193.249 113.306 193.313C113.462 193.377 113.628 193.41 113.797 193.41H139.779C140.119 193.41 140.445 193.275 140.685 193.035C140.925 192.795 141.06 192.469 141.06 192.129C141.06 191.79 140.925 191.464 140.685 191.224C140.445 190.984 140.119 190.849 139.779 190.849H113.797Z" fill="#E6E6E6"/>
<path d="M126.788 214.777C125.193 214.777 123.634 214.305 122.309 213.419C120.983 212.533 119.949 211.274 119.339 209.801C118.729 208.329 118.569 206.708 118.881 205.144C119.192 203.581 119.959 202.144 121.087 201.017C122.214 199.89 123.651 199.122 125.215 198.811C126.779 198.5 128.4 198.66 129.873 199.27C131.346 199.88 132.605 200.913 133.491 202.239C134.377 203.564 134.85 205.123 134.85 206.717C134.848 208.854 133.997 210.903 132.486 212.414C130.974 213.925 128.925 214.775 126.788 214.777Z" fill="#FFDA63"/>
<path d="M223.6 67.9346H268.879C269.379 67.9352 269.858 68.1341 270.212 68.4877C270.566 68.8413 270.765 69.3207 270.765 69.8208V116.967C270.765 117.467 270.566 117.946 270.212 118.3C269.858 118.653 269.379 118.852 268.879 118.853H223.6C223.1 118.852 222.621 118.653 222.267 118.3C221.913 117.946 221.714 117.467 221.714 116.967V69.8208C221.714 69.3207 221.913 68.8413 222.267 68.4877C222.621 68.1341 223.1 67.9352 223.6 67.9346ZM268.879 118.098C269.179 118.098 269.466 117.979 269.679 117.766C269.891 117.554 270.01 117.267 270.011 116.967V69.8208C270.01 69.5207 269.891 69.2331 269.679 69.0209C269.466 68.8087 269.179 68.6894 268.879 68.689H223.6C223.3 68.6894 223.013 68.8087 222.8 69.0209C222.588 69.2331 222.469 69.5207 222.469 69.8208V116.967C222.469 117.267 222.588 117.554 222.8 117.766C223.013 117.979 223.3 118.098 223.6 118.098H268.879Z" fill="#3F3D56"/>
<path d="M259.23 109.13C259.57 109.13 259.896 108.996 260.136 108.755C260.376 108.515 260.511 108.19 260.511 107.85C260.511 107.51 260.376 107.185 260.136 106.944C259.896 106.704 259.57 106.569 259.23 106.569H233.248C232.908 106.569 232.582 106.704 232.342 106.944C232.102 107.185 231.967 107.51 231.967 107.85C231.967 108.19 232.102 108.515 232.342 108.755C232.582 108.996 232.908 109.13 233.248 109.13H259.23Z" fill="#E6E6E6"/>
<path d="M259.23 101.586C259.57 101.586 259.896 101.451 260.136 101.21C260.376 100.97 260.511 100.645 260.511 100.305C260.511 99.9654 260.376 99.6396 260.136 99.3995C259.896 99.1593 259.57 99.0244 259.23 99.0244H233.248C232.908 99.0244 232.582 99.1593 232.342 99.3995C232.102 99.6396 231.967 99.9654 231.967 100.305C231.967 100.645 232.102 100.97 232.342 101.21C232.582 101.451 232.908 101.586 233.248 101.586H259.23Z" fill="#E6E6E6"/>
<path d="M246.239 77.6572C247.834 77.6572 249.392 78.13 250.718 79.0157C252.044 79.9014 253.077 81.1603 253.687 82.6331C254.298 84.106 254.457 85.7267 254.146 87.2903C253.835 88.8539 253.067 90.2902 251.94 91.4175C250.812 92.5448 249.376 93.3125 247.812 93.6235C246.248 93.9345 244.627 93.7749 243.154 93.1648C241.681 92.5547 240.421 91.5216 239.535 90.196C238.65 88.8704 238.177 87.312 238.177 85.7178C238.179 83.5807 239.029 81.5319 240.541 80.0208C242.052 78.5097 244.101 77.6596 246.239 77.6572Z" fill="#FFDA63"/>
<path d="M90.4755 165.472C98.4877 159.268 107.849 155.037 117.8 153.122C127.831 151.211 138.175 151.742 147.957 154.671C152.874 156.135 157.599 158.182 162.03 160.768C166.545 163.407 170.624 166.655 174.55 170.094C178.526 173.578 182.372 177.218 186.522 180.498C198.373 189.969 213.085 195.143 228.257 195.176C229.51 195.178 230.763 195.144 232.014 195.073C232.693 195.035 232.697 193.975 232.014 194.013C216.549 194.864 201.278 190.25 188.872 180.979C184.57 177.762 180.642 174.085 176.632 170.521C172.743 167.066 168.751 163.705 164.34 160.929C153.55 154.133 140.998 150.664 128.249 150.954C115.5 151.245 103.119 155.282 92.6501 162.563C91.6547 163.255 90.6824 163.978 89.7258 164.722C89.188 165.141 89.9431 165.886 90.4755 165.472V165.472Z" fill="#3F3D56"/>
<path d="M89.9121 170.595C92.9551 170.595 95.4219 168.129 95.4219 165.087C95.4219 162.044 92.9551 159.578 89.9121 159.578C86.8692 159.578 84.4023 162.044 84.4023 165.087C84.4023 168.129 86.8692 170.595 89.9121 170.595Z" fill="#3F3D56"/>
<path d="M294.888 243.736C297.931 243.736 300.398 241.27 300.398 238.227C300.398 235.185 297.931 232.719 294.888 232.719C291.845 232.719 289.378 235.185 289.378 238.227C289.378 241.27 291.845 243.736 294.888 243.736Z" fill="#3F3D56"/>
<path d="M323.752 206.848H233.848C233.348 206.847 232.869 206.648 232.515 206.295C232.161 205.941 231.963 205.462 231.962 204.961V158.193C231.962 157.693 232.161 157.213 232.515 156.86C232.869 156.506 233.348 156.307 233.848 156.307H323.752C324.252 156.307 324.731 156.506 325.085 156.86C325.439 157.213 325.638 157.693 325.638 158.193V204.961C325.638 205.461 325.439 205.941 325.085 206.295C324.731 206.648 324.252 206.847 323.752 206.848ZM233.848 157.061C233.548 157.061 233.261 157.181 233.048 157.393C232.836 157.605 232.717 157.893 232.717 158.193V204.961C232.717 205.261 232.836 205.549 233.048 205.761C233.261 205.973 233.548 206.093 233.848 206.093H323.752C324.052 206.093 324.339 205.973 324.552 205.761C324.764 205.549 324.883 205.261 324.884 204.961V158.193C324.883 157.893 324.764 157.605 324.552 157.393C324.339 157.181 324.052 157.061 323.752 157.061H233.848Z" fill="#3F3D56"/>
<path d="M248.923 180.557C253.167 180.557 256.608 177.117 256.608 172.874C256.608 168.63 253.167 165.19 248.923 165.19C244.679 165.19 241.238 168.63 241.238 172.874C241.238 177.117 244.679 180.557 248.923 180.557Z" fill="#FFDA63"/>
<path d="M266.672 167.752C266.503 167.752 266.337 167.785 266.181 167.849C266.025 167.913 265.884 168.007 265.765 168.126C265.645 168.245 265.551 168.386 265.486 168.542C265.422 168.697 265.389 168.864 265.389 169.033C265.389 169.201 265.422 169.368 265.486 169.523C265.551 169.679 265.645 169.82 265.765 169.939C265.884 170.058 266.025 170.152 266.181 170.216C266.337 170.28 266.503 170.313 266.672 170.313H315.081C315.421 170.313 315.747 170.178 315.987 169.938C316.227 169.698 316.362 169.372 316.362 169.033C316.362 168.693 316.227 168.367 315.987 168.127C315.747 167.887 315.421 167.752 315.081 167.752H266.672Z" fill="#E6E6E6"/>
<path d="M266.672 175.435C266.503 175.434 266.337 175.467 266.181 175.531C266.025 175.596 265.884 175.69 265.765 175.809C265.645 175.928 265.551 176.069 265.486 176.225C265.422 176.38 265.389 176.547 265.389 176.715C265.389 176.883 265.422 177.05 265.486 177.206C265.551 177.361 265.645 177.503 265.765 177.621C265.884 177.74 266.025 177.835 266.181 177.899C266.337 177.963 266.503 177.996 266.672 177.996H292.654C292.994 177.996 293.32 177.861 293.56 177.621C293.8 177.38 293.935 177.055 293.935 176.715C293.935 176.376 293.8 176.05 293.56 175.81C293.32 175.569 292.994 175.435 292.654 175.435H266.672Z" fill="#E6E6E6"/>
<path d="M243.029 187.719C242.055 187.719 241.262 188.293 241.262 188.999C241.262 189.705 242.055 190.28 243.029 190.28H314.364C315.339 190.28 316.132 189.705 316.132 188.999C316.132 188.293 315.339 187.719 314.364 187.719H243.029Z" fill="#E6E6E6"/>
<path d="M243.029 195.401C242.055 195.401 241.262 195.976 241.262 196.682C241.262 197.388 242.055 197.962 243.029 197.962H314.364C315.339 197.962 316.132 197.388 316.132 196.682C316.132 195.976 315.339 195.401 314.364 195.401H243.029Z" fill="#E6E6E6"/>
<path d="M226.622 243.355C231.694 241.156 237.357 243.073 242.137 245.101C244.6 246.145 247.035 247.26 249.583 248.084C251.727 248.776 253.922 249.296 256.148 249.64C260.616 250.324 265.159 250.352 269.634 249.722C274.132 249.095 278.516 247.821 282.649 245.939C286.759 244.076 290.558 241.593 293.912 238.576C294.339 238.191 294.758 237.796 295.168 237.393C295.656 236.915 294.906 236.166 294.418 236.644C291.188 239.792 287.479 242.409 283.43 244.399C279.398 246.381 275.097 247.763 270.664 248.499C266.216 249.249 261.682 249.327 257.211 248.731C254.981 248.43 252.778 247.951 250.624 247.3C248.15 246.495 245.723 245.553 243.354 244.477C238.529 242.405 233.168 240.376 227.866 241.805C227.258 241.973 226.664 242.185 226.087 242.44C225.463 242.711 226.002 243.624 226.622 243.355V243.355Z" fill="#3F3D56"/>
<path d="M224.662 256.357H182.188L192.183 239.047C192.362 238.737 192.62 238.479 192.93 238.3C193.241 238.121 193.593 238.027 193.951 238.027C194.309 238.027 194.661 238.121 194.972 238.3C195.282 238.479 195.54 238.737 195.719 239.047L199.989 246.441L207.249 233.868C207.474 233.48 207.796 233.157 208.185 232.933C208.573 232.709 209.014 232.591 209.463 232.591C209.911 232.591 210.352 232.709 210.74 232.933C211.129 233.157 211.452 233.48 211.676 233.868L224.662 256.357Z" fill="#FFDA63"/>
<path d="M224.703 256.352H179.425C178.924 256.351 178.445 256.152 178.091 255.799C177.738 255.445 177.539 254.966 177.538 254.466V229.2C177.539 228.7 177.738 228.22 178.091 227.867C178.445 227.513 178.924 227.314 179.425 227.313H224.703C225.203 227.314 225.682 227.513 226.036 227.867C226.39 228.22 226.589 228.7 226.589 229.2V254.466C226.589 254.966 226.39 255.445 226.036 255.799C225.682 256.152 225.203 256.351 224.703 256.352ZM179.425 228.068C179.125 228.068 178.837 228.188 178.625 228.4C178.412 228.612 178.293 228.9 178.293 229.2V254.466C178.293 254.766 178.412 255.053 178.625 255.265C178.837 255.478 179.125 255.597 179.425 255.597H224.703C225.003 255.597 225.291 255.478 225.503 255.265C225.715 255.053 225.834 254.766 225.835 254.466V229.2C225.834 228.9 225.715 228.612 225.503 228.4C225.291 228.188 225.003 228.068 224.703 228.068H179.425Z" fill="#3F3D56"/>
<path d="M313.51 234.115L305.439 238.212C302.559 239.675 299.779 239.425 298.714 236.375C298.461 235.65 298.367 234.878 298.44 234.113C298.513 233.347 298.75 232.607 299.135 231.942C299.521 231.277 300.045 230.703 300.673 230.259C301.301 229.816 302.018 229.513 302.773 229.372L310.444 227.94L343.295 217.043L363.195 202.936L370.49 214.555L347.496 226.96L313.51 234.115Z" fill="#FFB8B8"/>
<path d="M351.185 370.123L345.01 369.094L345.696 357.433H352.214L351.185 370.123Z" fill="#FFB8B8"/>
<path d="M411.115 358.733L405.139 360.597L400.495 349.878L406.313 346.941L411.115 358.733Z" fill="#FFB8B8"/>
<path d="M407.787 348.515L400.24 351.601L364.22 304.27L352.9 359.833L345.353 358.461C340.511 310.559 336.564 261.699 341.408 238.59L369.366 237.39L382.059 277.861L388.234 305.299L407.787 348.515Z" fill="#2F2E41"/>
<path d="M350.844 379.553C349.715 379.795 348.538 379.67 347.485 379.196L343.817 377.546C340.742 377.388 338.647 378.001 336.935 375.766C336.452 375.128 336.148 374.371 336.056 373.576C335.964 372.78 336.086 371.975 336.411 371.243C336.732 370.508 337.244 369.872 337.892 369.4C338.541 368.928 339.303 368.638 340.101 368.558L345.14 365.384L345.404 367.763C347.707 369.068 350.441 368.504 353.338 367.235L354.919 372.768C355.123 373.482 355.178 374.229 355.081 374.965C354.984 375.701 354.736 376.409 354.354 377.045C353.972 377.681 353.464 378.232 352.86 378.663C352.256 379.095 351.57 379.398 350.844 379.553Z" fill="#2F2E41"/>
<path d="M413.56 368.203C412.571 368.798 411.418 369.062 410.268 368.956L406.262 368.586C403.302 369.435 401.52 370.694 399.175 369.137C398.511 368.69 397.978 368.073 397.632 367.35C397.287 366.628 397.141 365.826 397.21 365.029C397.275 364.229 397.553 363.462 398.013 362.805C398.473 362.148 399.1 361.626 399.829 361.291L403.563 356.653L404.586 358.818C407.187 359.304 409.59 357.884 411.918 355.742L415.21 360.462C415.635 361.071 415.93 361.76 416.077 362.488C416.224 363.215 416.22 363.965 416.066 364.691C415.911 365.416 415.609 366.103 415.178 366.707C414.747 367.311 414.196 367.82 413.56 368.203Z" fill="#2F2E41"/>
<path d="M359.074 188.687C365.895 188.687 371.424 183.159 371.424 176.339C371.424 169.52 365.895 163.992 359.074 163.992C352.254 163.992 346.725 169.52 346.725 176.339C346.725 183.159 352.254 188.687 359.074 188.687Z" fill="#FFB8B8"/>
<path d="M374.169 202.406L358.045 198.976L355.987 185.6L367.308 183.199L374.169 202.406Z" fill="#FFB8B8"/>
<path d="M369.709 239.105H340.893L347.388 222.801C346.916 217.191 349.294 213.065 352.698 209.472L357.016 198.633C363.993 194.042 369.253 194.385 374.854 200.348C381.495 209.749 376.899 223.881 369.709 239.105Z" fill="#FFDA63"/>
<path d="M356.673 273.746L355.853 282.759C355.561 285.976 353.871 288.197 350.722 287.477C349.972 287.306 349.269 286.975 348.659 286.506C348.049 286.038 347.548 285.443 347.19 284.763C346.831 284.083 346.624 283.334 346.582 282.567C346.54 281.799 346.665 281.032 346.947 280.317L349.812 273.06L358.045 239.448L356.673 215.097H370.395L368.68 241.163L356.673 273.746Z" fill="#FFB8B8"/>
<path d="M371.424 215.782H355.644L356.75 205.49C356.822 203.71 357.558 202.021 358.812 200.756C360.067 199.49 361.749 198.739 363.528 198.651C364.471 198.603 365.414 198.744 366.303 199.063C367.191 199.383 368.008 199.876 368.704 200.513C369.401 201.15 369.965 201.919 370.362 202.775C370.76 203.631 370.983 204.558 371.02 205.501L371.424 215.782Z" fill="#FFDA63"/>
<path d="M374.359 163.644C376.922 163.644 379.001 161.566 379.001 159.003C379.001 156.44 376.922 154.362 374.359 154.362C371.795 154.362 369.717 156.44 369.717 159.003C369.717 161.566 371.795 163.644 374.359 163.644Z" fill="#2F2E41"/>
<path d="M369.576 157.867C369.652 156.689 370.175 155.585 371.037 154.779C371.899 153.973 373.036 153.526 374.216 153.529C374.12 153.517 374.025 153.502 373.927 153.496C372.699 153.418 371.49 153.83 370.566 154.643C369.642 155.455 369.079 156.602 369 157.83C368.921 159.057 369.333 160.266 370.145 161.191C370.957 162.115 372.104 162.679 373.332 162.759C373.429 162.765 373.526 162.762 373.622 162.763C372.451 162.614 371.381 162.025 370.629 161.116C369.878 160.206 369.501 159.044 369.576 157.867Z" fill="#2F2E41"/>
<path d="M369.55 159.848C365.41 156.415 353.536 160.779 352.769 163.087C347.171 163.85 342.933 167.116 342.933 172.922V172.922C346.261 174.285 350.046 174.117 354.138 172.922C360.661 178.237 361.108 184.918 357.141 192.592L362.022 192.689L368.071 183.85L368.36 192.816L379.547 192.592V179.742C379.584 175.47 378.6 171.251 376.678 167.435C374.935 164.048 372.23 162.071 369.55 159.848Z" fill="#2F2E41"/>
<path d="M359.132 182.551C360.358 182.551 361.352 181.16 361.352 179.444C361.352 177.728 360.358 176.337 359.132 176.337C357.906 176.337 356.912 177.728 356.912 179.444C356.912 181.16 357.906 182.551 359.132 182.551Z" fill="#FFB8B8"/>
<path d="M79.832 183.386C79.832 183.386 81.1682 160.263 88.1052 165.517C95.0421 170.771 85.0757 185.531 85.0757 185.531L79.832 183.386Z" fill="#FFB9B9"/>
<path d="M54.0233 251.977C54.0233 251.977 69.4327 269.272 60.8114 270.461C52.1902 271.65 48.7988 254.167 48.7988 254.167L54.0233 251.977Z" fill="#FFB9B9"/>
<path d="M33.9157 170.108C35.8497 170.617 37.5903 171.686 38.9187 173.18C40.2472 174.675 41.1044 176.529 41.3826 178.509L46.2841 213.389L53.1555 241.212C53.1555 241.212 56.5911 244.304 55.2169 246.021C53.8426 247.739 56.9347 254.952 56.9347 254.952L48.3455 257.7C48.3455 257.7 47.3148 250.487 45.597 250.143C44.0873 249.841 27.1874 204.705 23.1139 193.77C22.5522 192.263 22.2344 191.405 22.2344 191.405C22.2344 191.405 22.9215 168.391 33.9157 170.108Z" fill="#575A89"/>
<path d="M35.485 352.005L40.7607 361.352C44.8462 370.073 41.2156 371.657 31.1984 367.334L28.915 356.297L35.485 352.005Z" fill="#FFB9B9"/>
<path d="M38.1464 364.428C38.1464 364.428 40.6508 360.352 41.5566 361.034C42.4625 361.716 46.1987 364.673 46.1987 364.673L51.0653 369.334C51.0653 369.334 67.5075 371.072 57.0598 376.831C46.612 382.591 40.8383 377.815 40.8383 377.815C40.8383 377.815 26.2053 378.576 26.4413 374.494C26.6773 370.413 31.3966 363.955 31.3966 363.955C31.3966 363.955 37.3445 367.942 38.1464 364.428Z" fill="#2F2E41"/>
<path d="M12.0732 246.347L17.0192 306.181C17.0192 306.181 17.1841 341.95 22.4598 348.873C27.7356 355.796 27.9004 359.257 27.9004 359.257L38.7816 353.653C38.7816 353.653 33.1761 344.315 34.3302 342.885C35.0416 341.978 35.5478 340.928 35.814 339.807L32.8464 302.885L38.4519 238.6L12.0732 246.347Z" fill="#2F2E41"/>
<path d="M25.5921 352.005L20.9759 364.203L10.5068 359.827L16.03 350.687L25.5921 352.005Z" fill="#FFB9B9"/>
<path d="M17.8914 360.095C17.8914 360.095 21.8179 357.641 22.3087 358.622C22.7995 359.604 24.7627 363.775 24.7627 363.775L26.9713 369.909C26.9713 369.909 40.4684 378.496 28.9345 378.987C17.4006 379.477 14.4558 372.853 14.4558 372.853C14.4558 372.853 1.44953 367.21 3.41276 363.775C5.37599 360.34 12.2472 356.777 12.2472 356.777C12.2472 356.777 15.6828 362.793 17.8914 360.095Z" fill="#2F2E41"/>
<path d="M53.9493 246.512L56.5872 301.566C56.5872 301.566 32.5167 351.345 29.8788 352.664C29.0928 353.07 28.396 353.629 27.8297 354.308C27.2634 354.988 26.839 355.774 26.5815 356.62L12.0732 352.994L18.6679 342.444L33.1762 307.17C33.1762 307.17 35.4843 306.181 36.1437 302.885C36.8032 299.588 38.1221 299.588 34.8248 298.929C31.5275 298.269 31.5275 294.973 31.5275 294.973L20.6463 244.863L53.9493 246.512Z" fill="#2F2E41"/>
<path d="M55.098 149.065C56.2648 141.876 51.3818 135.103 44.1917 133.936C37.0015 132.769 30.2268 137.651 29.06 144.84C27.8932 152.029 32.7761 158.802 39.9663 159.969C47.1565 161.135 53.9312 156.253 55.098 149.065Z" fill="#FFB9B9"/>
<path d="M30.3738 147.777C30.3738 147.777 29.3846 164.59 28.0657 166.239C26.7467 167.887 41.9144 167.557 41.9144 167.557C41.9144 167.557 40.9252 153.382 41.9144 152.063C42.9036 150.744 30.3738 147.777 30.3738 147.777Z" fill="#FFB9B9"/>
<path d="M54.9374 250.139C54.9374 250.139 17.6775 246.843 10.7549 250.139C10.7549 250.139 13.3033 240.687 12.6448 239.699C12.1659 238.976 13.4872 212.053 13.0724 196.521C12.8372 187.758 10.8147 179.199 16.6941 172.693C18.6952 170.482 20.9272 168.627 23.2832 167.721C23.2832 167.721 22.6247 161.458 25.9214 161.129C25.9214 161.129 38.454 159.808 43.0676 163.766C44.5428 165.023 45.4707 168.854 45.569 172.154C43.2857 183.38 44.0938 195.837 46.189 208.761C46.3173 209.582 46.4584 210.407 46.5995 211.232C48.8229 224.048 52.1837 237.262 54.9374 250.139Z" fill="#124780"/>
<path d="M35.1894 150.838C36.3048 150.772 37.3939 151.149 38.5016 151.296C42.4646 151.822 46.5873 148.947 47.4624 145.047C47.5325 144.527 47.6873 144.023 47.9207 143.554C48.5306 142.558 49.9196 142.368 51.0647 142.597C52.2098 142.826 53.2952 143.362 54.4614 143.423C56.2619 143.518 57.9905 142.409 58.9501 140.883C59.8569 139.309 60.2426 137.488 60.0518 135.681L59.1887 136.587C58.8379 135.845 58.7025 135.019 58.7978 134.204C58.3404 134.083 57.8594 134.08 57.4008 134.198C56.9422 134.315 56.5214 134.548 56.1788 134.874C55.4177 134.955 55.9921 133.463 55.4266 132.947C55.1516 132.778 54.8238 132.717 54.5064 132.775C52.8872 132.791 51.5773 131.553 50.3014 130.556C48.0906 128.833 45.5054 127.654 42.7546 127.114C40.9262 126.758 38.982 126.7 37.248 127.381C35.8483 128.009 34.585 128.905 33.5294 130.018C30.8147 132.628 28.4108 135.694 27.2815 139.287C26.3633 142.229 26.3373 145.377 27.2067 148.334C27.6618 149.869 29.0333 155.128 31.0411 155.251C33.5639 155.405 32.0492 151.026 35.1894 150.838Z" fill="#2F2E41"/>
<path d="M40.6482 171.727L45.3735 172.233C45.3735 172.233 50.0121 181.23 49.6752 183.107C49.3383 184.983 48.6048 183.844 50.6925 186.847C52.7803 189.849 58.7045 197.61 59.4381 198.75C60.1717 199.889 80.1712 184.633 78.9278 180.062C78.9278 180.062 85.2442 184.592 87.9503 185.195C87.9503 185.195 67.3392 212.221 64.467 215.68C61.5948 219.138 59.2831 218.428 55.3359 216.377C51.3887 214.327 31.4199 193.872 31.4199 193.872L40.6482 171.727Z" fill="#124780"/>
<path opacity="0.1" d="M46.6004 211.232L30.1768 194.811L34.3329 193.456L46.1899 208.761C46.3182 209.581 46.4593 210.406 46.6004 211.232Z" fill="black"/>
</g>
<defs>
<clipPath id="clip0">
<rect x="3.21094" y="67.9346" width="412.974" height="311.739" fill="white"/>
</clipPath>
</defs>
</svg>
