<svg width="492" height="250" viewBox="0 0 492 250" fill="none" xmlns="http://www.w3.org/2000/svg">
<path d="M105.878 226.758C115.285 226.758 122.911 211.224 122.911 192.061C122.911 172.899 115.285 157.365 105.878 157.365C96.47 157.365 88.8438 172.899 88.8438 192.061C88.8438 211.224 96.47 226.758 105.878 226.758Z" fill="#E6E6E6"/>
<path d="M107.45 248.854C100.628 207.992 107.381 167.277 107.45 166.871L108.777 167.095C108.708 167.5 101.994 208 108.777 248.633L107.45 248.854Z" fill="#124780"/>
<path d="M120.874 184.6L105.471 192.825L106.106 194.01L121.509 185.785L120.874 184.6Z" fill="#124780"/>
<path d="M89.8482 188.72L89.2129 189.905L104.614 198.135L105.249 196.95L89.8482 188.72Z" fill="#124780"/>
<path d="M449.416 2.31592H421.498V98.7919H449.416V2.31592Z" fill="#124780"/>
<path d="M467.853 80.6427L399.951 0L263.65 1.24412L180.969 81.6402L182.639 82.7126H182.043V249.938H467.67V82.7126L467.853 80.6427Z" fill="#124780"/>
<path d="M400.022 0.171875L315.193 99.4553V249.938H467.671V80.5686L400.022 0.171875Z" fill="#FFDA63"/>
<path d="M407.538 166.719H376.398V194.196H407.538V166.719Z" fill="#3F3D56"/>
<path d="M407.538 119.159H376.398V146.2H407.538V119.159Z" fill="#3F3D56"/>
<path d="M407.538 166.719H376.398V194.196H407.538V166.719Z" fill="white"/>
<path d="M407.538 119.159H376.398V146.2H407.538V119.159Z" fill="white"/>
<path d="M294.047 245.034C294.047 245.034 294.714 231.07 308.4 232.693L294.047 245.034Z" fill="#E6E6E6"/>
<path d="M290.179 231.746C293.962 231.746 297.029 228.684 297.029 224.908C297.029 221.132 293.962 218.071 290.179 218.071C286.397 218.071 283.33 221.132 283.33 224.908C283.33 228.684 286.397 231.746 290.179 231.746Z" fill="#FFDA63"/>
<path d="M290.998 236.422H289.064V249.933H290.998V236.422Z" fill="#E6E6E6"/>
<path d="M64.9488 206.414C83.3487 206.414 98.2648 176.031 98.2648 138.551C98.2648 101.072 83.3487 70.6892 64.9488 70.6892C46.5489 70.6892 31.6328 101.072 31.6328 138.551C31.6328 176.031 46.5489 206.414 64.9488 206.414Z" fill="#FFDA63"/>
<path d="M68.6595 249.526C55.3339 169.71 68.5251 90.1843 68.6598 89.3904L69.9868 89.6148C69.8524 90.4068 56.7 169.718 69.9872 249.305L68.6595 249.526Z" fill="#124780"/>
<path d="M94.5844 124.525L64.457 140.612L65.092 141.797L95.2194 125.71L94.5844 124.525Z" fill="#124780"/>
<path d="M33.2974 132.584L32.6621 133.769L62.7851 149.864L63.4203 148.679L33.2974 132.584Z" fill="#124780"/>
<path d="M143.856 190.571C169.035 190.571 189.446 148.994 189.446 97.7068C189.446 46.4194 169.035 4.84277 143.856 4.84277C118.677 4.84277 98.2656 46.4194 98.2656 97.7068C98.2656 148.994 118.677 190.571 143.856 190.571Z" fill="#FFDA63"/>
<path d="M149.18 249.526C130.951 140.344 148.996 31.561 149.18 30.4751L150.507 30.6995C150.323 31.7835 132.318 140.353 150.507 249.305L149.18 249.526Z" fill="#124780"/>
<path d="M184.526 78.7309L143.299 100.745L143.934 101.93L185.161 79.9159L184.526 78.7309Z" fill="#124780"/>
<path d="M100.424 89.7588L99.7891 90.9436L141.01 112.968L141.645 111.784L100.424 89.7588Z" fill="#124780"/>
<path d="M492 248.831H0V250H492V248.831Z" fill="#124780"/>
<path d="M269.152 159.428H238.012V186.905H269.152V159.428Z" fill="#3F3D56"/>
<path d="M269.152 111.868H238.012V138.91H269.152V111.868Z" fill="#3F3D56"/>
<path d="M269.152 159.428H238.012V186.905H269.152V159.428Z" fill="white"/>
<path d="M269.152 111.868H238.012V138.91H269.152V111.868Z" fill="white"/>
</svg>
