<?xml version="1.0" encoding="UTF-8"?>
<svg width="380px" height="214px" viewBox="0 0 380 214" version="1.1" xmlns="http://www.w3.org/2000/svg" xmlns:xlink="http://www.w3.org/1999/xlink">
    <!-- Generator: Sketch 51.3 (57544) - http://www.bohemiancoding.com/sketch -->
    <title>undraw_at_home_octe (1)</title>
    <desc>Created with Sketch.</desc>
    <defs></defs>
    <g id="Page-1" stroke="none" stroke-width="1" fill="none" fill-rule="evenodd">
        <g id="A6" transform="translate(0.000000, -6.000000)" fill-rule="nonzero">
            <g id="undraw_at_home_octe-(1)" transform="translate(-40.000000, 6.000000)">
                <ellipse id="Oval" fill="#E6E6E6" cx="90.328581" cy="164.137099" rx="14.5323596" ry="29.6518851"></ellipse>
                <path d="M91.6705834,212.672449 C85.8502224,177.751391 91.6119831,142.956499 91.670863,142.609392 L92.8030152,142.801164 C92.744415,143.146592 87.0157348,177.758673 92.8032949,212.484033 L91.6705834,212.672449 Z" id="Shape" fill="#134780"></path>
                <rect id="Rectangle-path" fill="#134780" transform="translate(96.823225, 161.781917) rotate(-28.141600) translate(-96.823225, -161.781917) " x="89.3717563" y="161.20767" width="14.9029384" height="1.14849275"></rect>
                <rect id="Rectangle-path" fill="#134780" transform="translate(82.953074, 165.304865) rotate(-61.842040) translate(-82.953074, -165.304865) " x="82.3788273" y="157.853139" width="1.14849275" height="14.9034528"></rect>
                <rect id="Rectangle-path" fill="#134780" x="359.601313" y="1.97909394" width="23.8186595" height="82.4492112"></rect>
                <polygon id="Shape" fill="#134780" points="341.218787 0 224.934221 1.06323424 154.394197 69.77044 155.819501 70.686849 155.310606 213.598716 398.993508 213.598716 398.993508 70.686849 399.149822 68.9179548"></polygon>
                <polygon id="Shape" fill="#FFDA63" points="341.279215 0.146825208 268.907372 84.9953151 268.907372 213.598716 398.993508 213.598716 398.993508 68.8545303"></polygon>
                <rect id="Rectangle-path" fill="#3F3D56" x="321.125003" y="142.479272" width="26.5669876" height="23.4821401"></rect>
                <rect id="Rectangle-path" fill="#3F3D56" x="321.125003" y="101.834254" width="26.5669876" height="23.1097534"></rect>
                <rect id="Rectangle-path" fill="#FFFFFF" x="321.125003" y="142.479272" width="26.5669876" height="23.4821401"></rect>
                <rect id="Rectangle-path" fill="#FFFFFF" x="321.125003" y="101.834254" width="26.5669876" height="23.1097534"></rect>
                <path d="M250.86606,209.408369 C250.86606,209.408369 251.435592,197.474536 263.111063,198.86168" id="Shape" fill="#E6E6E6"></path>
                <circle id="Oval" fill="#FFDA63" cx="247.567102" cy="192.208361" r="5.84348847"></circle>
                <rect id="Rectangle-path" fill="#E6E6E6" x="246.616279" y="202.048446" width="1.64947634" height="11.5463444"></rect>
                <ellipse id="Oval" fill="#FFDA63" cx="55.4116338" cy="118.407229" rx="28.4235824" ry="57.9955926"></ellipse>
                <path d="M58.5775848,213.246665 C47.208829,145.035219 58.4629113,77.0721924 58.5778694,76.3936801 L59.7100216,76.5854518 C59.5953482,77.2622861 48.3743465,145.042505 59.7103013,213.058244 L58.5775848,213.246665 Z" id="Shape" fill="#134780"></path>
                <rect id="Rectangle-path" fill="#134780" transform="translate(68.114358, 113.800573) rotate(-28.141600) translate(-68.114358, -113.800573) " x="53.5398059" y="113.226327" width="29.1491037" height="1.14849275"></rect>
                <rect id="Rectangle-path" fill="#134780" transform="translate(40.986126, 120.691120) rotate(-61.842580) translate(-40.986126, -120.691120) " x="40.4118797" y="106.116568" width="1.14849275" height="29.1491037"></rect>
                <ellipse id="Oval" fill="#FFDA63" cx="122.730647" cy="83.501074" rx="38.8954309" ry="79.362391"></ellipse>
                <path d="M127.271841,213.246665 C111.720405,119.93916 127.114828,26.9723201 127.272121,26.0442699 L128.404273,26.2360416 C128.24726,27.1624088 112.885917,119.946447 128.404552,213.058244 L127.271841,213.246665 Z" id="Shape" fill="#134780"></path>
                <rect id="Rectangle-path" fill="#134780" transform="translate(140.113422, 77.197110) rotate(-28.141600) translate(-140.113422, -77.197110) " x="120.16935" y="76.6228636" width="39.8881441" height="1.14849275"></rect>
                <rect id="Rectangle-path" fill="#134780" transform="translate(102.990560, 86.626226) rotate(-61.843290) translate(-102.990560, -86.626226) " x="102.416314" y="66.6821535" width="1.14849275" height="39.8881441"></rect>
                <rect id="Rectangle-path" fill="#134780" x="0" y="212.653306" width="419.750297" height="1"></rect>
                <rect id="Rectangle-path" fill="#3F3D56" x="203.059473" y="136.248429" width="26.5669876" height="23.4821401"></rect>
                <rect id="Rectangle-path" fill="#3F3D56" x="203.059473" y="95.6034114" width="26.5669876" height="23.1097534"></rect>
                <rect id="Rectangle-path" fill="#FFFFFF" x="203.059473" y="136.248429" width="26.5669876" height="23.4821401"></rect>
                <rect id="Rectangle-path" fill="#FFFFFF" x="203.059473" y="95.6034114" width="26.5669876" height="23.1097534"></rect>
            </g>
        </g>
    </g>
</svg>