<svg width="315" height="257" viewBox="0 0 315 257" fill="none" xmlns="http://www.w3.org/2000/svg">
<g filter="url(#filter0_d)">
<rect x="8" y="6" width="299" height="241" rx="16" fill="white"/>
</g>
<g clip-path="url(#clip0)">
<path opacity="0.1" d="M174.525 71.3097C161.447 70.9714 148.991 67.8277 137.098 64.3882C125.204 60.9487 113.423 57.1304 100.658 55.3073C92.4476 54.1345 83.0573 53.9684 76.4435 57.2479C70.0762 60.3997 68.0191 65.8405 66.9138 70.9046C66.0812 74.7066 65.5922 78.7072 67.8716 82.2662C69.4558 84.7375 72.2646 86.8137 74.2086 89.1817C80.9719 97.4178 76.1909 107.572 68.8638 115.614C65.4285 119.386 61.4376 122.983 58.7844 127C56.1312 131.017 54.9046 135.615 57.2264 139.713C59.526 143.764 65.0082 146.82 70.9471 148.966C83.0088 153.323 97.2165 154.568 111.081 155.275C141.761 156.839 172.604 156.161 203.365 155.478C214.75 155.227 226.183 154.974 237.382 153.655C243.602 152.928 250.022 151.771 254.538 148.982C260.269 145.441 261.689 139.445 257.848 135.005C251.406 127.557 233.599 125.705 229.091 117.712C226.613 113.313 229.158 108.413 232.761 104.331C240.488 95.5786 253.439 87.8995 254.12 77.8929C254.588 71.022 248.363 64.139 238.736 60.8879C228.646 57.4808 214.653 57.9082 207.213 63.5496C199.544 69.3651 186.074 71.6014 174.525 71.3097Z" fill="#FFDA63"/>
<g opacity="0.8">
<path opacity="0.8" d="M245.699 86.2136C245.699 86.2136 243.42 85.2858 236.17 88.62C228.919 91.9541 228.014 91.5308 226.137 91.0203C224.26 90.5099 223.213 90.3904 221.2 87.6072C221.2 87.6072 219.786 79.8957 218.408 78.6945C217.029 77.4933 211.198 79.3771 211.198 79.3771C211.198 79.3771 204.202 80.9895 202.86 71.6129C202.86 71.6129 203.806 64.5476 202.517 62.3782C202.517 62.3782 205.119 63.5024 209.411 61.6874C213.703 59.8725 217.139 63.6442 217.139 63.6442C217.139 63.6442 218.222 66.4537 218.108 68.1269C217.995 69.8 218.68 70.432 220.735 69.6218C220.735 69.6218 221.746 68.1876 220.317 65.8177C218.888 63.4477 217.876 61.6813 218.274 59.8401C218.672 57.9988 219.814 55.4485 223.486 54.1683C227.157 52.8882 232.146 52.6491 234.541 51.6606C236.936 50.6721 237.513 50.0098 237.513 50.0098C237.513 50.0098 236.04 51.4905 239.512 57.7618C242.984 64.0331 240.771 66.7575 240.771 66.7575C240.771 66.7575 238.924 71.1693 230.772 70.8088C230.772 70.8088 222.918 71.0964 227.2 74.4346C227.2 74.4346 229.942 73.8755 234.044 72.569C238.146 71.2625 241.102 76.6547 241.838 80.4061C242.573 84.1576 245.699 86.2136 245.699 86.2136Z" fill="#FFDA63"/>
<path opacity="0.8" d="M235.144 54.7582L235.186 54.7461C235.501 55.9432 231.991 60.752 228.99 64.5764L228.956 64.5501C233.187 59.1559 235.394 55.6779 235.144 54.7582Z" fill="#444053"/>
<path opacity="0.8" d="M229.017 64.4707L229.035 64.5193C226.638 67.5739 223.623 71.22 221.211 73.9202C220.98 74.1774 220.752 74.4468 220.534 74.7304L220.463 74.6757C220.685 74.3982 220.914 74.1268 221.144 73.8655C223.557 71.1613 226.622 67.5233 229.017 64.4707Z" fill="#444053"/>
<path opacity="0.8" d="M220.522 74.5947L220.571 74.6757C216.18 80.1712 215.889 88.7031 215.879 88.7781L214.953 87.7167C214.963 87.6316 216.101 80.1267 220.522 74.5947Z" fill="#444053"/>
<path opacity="0.8" d="M240.609 83.234C240.609 83.234 235.432 80.5359 231.396 81.5042C227.361 82.4724 218.278 78.0809 218.278 78.0809C218.278 78.0809 214.42 76.511 213.644 74.7204C213.644 74.7204 210.999 71.9149 210.848 70.4666C210.696 69.0183 208.114 65.3641 206.44 65.2324" stroke="#444053" stroke-miterlimit="10"/>
<path opacity="0.8" d="M239.859 85.8308C239.859 85.8308 237.253 84.0706 237.556 82.0166" stroke="#444053" stroke-miterlimit="10"/>
<path opacity="0.8" d="M235.861 88.1054C235.861 88.1054 232.131 86.7483 231.757 81.4209" stroke="#444053" stroke-miterlimit="10"/>
<path opacity="0.8" d="M229.843 89.4828C229.843 89.4828 226.279 86.5193 227.463 81.3398" stroke="#444053" stroke-miterlimit="10"/>
<path opacity="0.8" d="M222.611 88.0349C222.611 88.0349 220.238 83.0458 222.35 79.8008" stroke="#444053" stroke-miterlimit="10"/>
<path opacity="0.8" d="M240.67 79.9443C240.67 79.9443 237.972 80.8032 238.552 82.2252" stroke="#444053" stroke-miterlimit="10"/>
<path opacity="0.8" d="M237.415 75.0381C237.415 75.0381 233.806 76.1846 233.721 81.3033" stroke="#444053" stroke-miterlimit="10"/>
<path opacity="0.8" d="M232.383 73.8574C232.383 73.8574 229.1 77.9208 229.332 81.6135" stroke="#444053" stroke-miterlimit="10"/>
<path opacity="0.8" d="M226.632 75.4512C226.632 75.4512 223.368 78.5767 223.785 80.3126" stroke="#444053" stroke-miterlimit="10"/>
<path opacity="0.8" d="M224.662 74.3474C224.662 74.3474 221.603 74.8964 221.177 73.8896" stroke="#444053" stroke-miterlimit="10"/>
<path opacity="0.8" d="M220.689 70.6445C220.689 70.6445 222.235 72.6965 222.633 72.2367" stroke="#444053" stroke-miterlimit="10"/>
<path opacity="0.8" d="M236.01 69.3465C236.01 69.3465 228.299 69.9076 226.555 67.5781" stroke="#444053" stroke-miterlimit="10"/>
<path opacity="0.8" d="M219.066 60.3057C219.066 60.3057 222.686 68.0901 225.312 69.0826" stroke="#444053" stroke-miterlimit="10"/>
<path opacity="0.8" d="M222.865 56.5977C222.865 56.5977 225.088 63.7582 227.84 65.9945" stroke="#444053" stroke-miterlimit="10"/>
<path opacity="0.8" d="M239.255 63.4376C239.255 63.4376 233.395 65.9595 229.871 63.4072" stroke="#444053" stroke-width="0.75" stroke-miterlimit="10"/>
<path opacity="0.8" d="M228.087 55.0703C228.087 55.0703 229.427 60.3369 231.231 61.607" stroke="#444053" stroke-width="0.75" stroke-miterlimit="10"/>
<path opacity="0.8" d="M238.37 57.5352C238.37 57.5352 235.074 58.785 233.844 57.8268" stroke="#444053" stroke-width="0.75" stroke-miterlimit="10"/>
<path opacity="0.8" d="M217.866 72.3643C217.866 72.3643 217.866 76.9523 216.619 77.2784" stroke="#444053" stroke-miterlimit="10"/>
<path opacity="0.8" d="M207.678 78.3098C207.678 78.3098 212.628 78.7352 214.91 76.1748" stroke="#444053" stroke-miterlimit="10"/>
<path opacity="0.8" d="M216.589 66.9443C216.589 66.9443 215.393 71.6033 212.089 72.851" stroke="#444053" stroke-miterlimit="10"/>
<path opacity="0.8" d="M204.708 73.4074C204.708 73.4074 208.212 74.6228 211.225 71.5195" stroke="#444053" stroke-miterlimit="10"/>
<path opacity="0.8" d="M212.694 62.9434C212.694 62.9434 212.363 66.8953 210.219 68.7447" stroke="#444053" stroke-miterlimit="10"/>
<path opacity="0.8" d="M204.842 67.3858C204.842 67.3858 207.75 67.404 208.431 66.4561" stroke="#444053" stroke-miterlimit="10"/>
</g>
<path opacity="0.1" d="M109.118 202C133.447 202 153.17 200.594 153.17 198.86C153.17 197.126 133.447 195.721 109.118 195.721C84.789 195.721 65.0664 197.126 65.0664 198.86C65.0664 200.594 84.789 202 109.118 202Z" fill="#FFDA63"/>
<path d="M134.637 181.767C135.244 180.675 135.969 179.646 136.555 178.54C137.091 177.527 137.509 176.453 137.992 175.412C138.818 173.63 139.837 171.944 140.764 170.21C141.37 169.074 141.956 167.836 141.839 166.552C141.728 165.337 141.017 164.283 140.742 163.109C139.622 158.286 136.929 153.858 135.286 149.193C134.866 148.01 134.458 146.819 133.932 145.676C132.922 143.478 131.507 141.503 130.093 139.545C129.583 138.796 129.015 138.089 128.395 137.43C127.888 136.921 127.318 136.474 126.858 135.923C125.908 134.788 125.463 133.156 124.275 132.277C124.255 132.329 124.233 132.38 124.21 132.433C123.36 130.255 120.506 128.819 118.851 127.014C117.888 125.912 117.002 124.744 116.198 123.52L112.595 118.3C111.975 117.401 111.342 116.477 111.092 115.405C110.785 114.113 111.07 112.736 110.767 111.443C110.573 110.665 110.195 109.946 109.665 109.345C109.7 109.335 109.736 109.32 109.772 109.312C110.459 109.128 111.187 109.096 111.868 108.932C113.353 108.577 114.644 107.625 116.124 107.244C116.879 107.042 117.686 107.001 118.371 106.637C118.704 106.437 118.966 106.138 119.122 105.781C119.278 105.425 119.319 105.028 119.239 104.647C118.761 102.105 120.098 99.5286 119.872 96.95C119.811 96.237 119.629 95.5422 119.512 94.8353C119.239 93.1945 119.29 91.5133 119.387 89.8482C119.848 89.0979 120.401 88.4085 121.034 87.7963C121.943 86.9172 123.028 86.1758 123.661 85.0759C124.212 84.1016 124.346 82.9247 124.206 81.8106C124.107 81.0003 123.833 80.1476 123.196 79.6553C122.56 79.1631 121.646 79.1267 120.876 79.3839C120.769 79.4183 120.664 79.4609 120.561 79.5054C120.239 79.344 119.888 79.25 119.529 79.2291C119.17 79.2082 118.81 79.2609 118.472 79.3839C117.704 79.6391 117.045 80.1476 116.427 80.6763C116.06 80.9643 115.739 81.3057 115.473 81.6891C115.083 82.2967 114.97 83.0462 114.822 83.7613C114.508 85.1416 114.051 86.4852 113.458 87.7699C113.349 87.9968 113.054 88.404 112.816 88.7929L112.383 88.7038C112.195 90.5086 110.688 91.8333 109.77 93.393C109.324 94.1506 109.011 94.9791 108.608 95.763C108.15 96.6164 107.637 97.4397 107.075 98.2282C106.529 99.0384 105.983 99.8413 105.436 100.637C104.75 101.681 104.008 102.688 103.213 103.651C102.472 103.59 101.73 103.535 100.99 103.523C99.749 103.505 98.5091 103.616 97.2904 103.853C97.2193 103.424 97.1755 102.99 97.159 102.555C97.159 102.529 97.159 102.502 97.159 102.476C97.159 102.371 97.1711 102.245 97.1853 102.109C98.2355 101.404 99.0903 100.444 99.6698 99.3177C100.249 98.1916 100.534 96.9367 100.499 95.6701C100.463 94.4036 100.107 93.1668 99.4655 92.0753C98.8235 90.9838 97.9159 90.0734 96.8276 89.4289C96.8678 89.2012 96.8934 88.9712 96.9044 88.7402C96.9044 88.6045 96.9044 88.4668 96.9044 88.3351C96.9044 88.2662 96.9044 88.1973 96.8903 88.1325C96.8778 87.9959 96.8548 87.8605 96.8216 87.7274C96.8054 87.6626 96.7872 87.5978 96.765 87.5248C96.722 87.3978 96.6658 87.2755 96.5973 87.1602C96.593 87.1532 96.5883 87.1464 96.5831 87.14C96.5569 87.0974 96.5306 87.0549 96.5003 87.0144C96.47 86.9739 96.474 86.982 96.4619 86.9658C96.4406 86.9361 96.4177 86.9077 96.3932 86.8807L96.3427 86.828C96.3204 86.8037 96.2982 86.7794 96.274 86.7571L96.2174 86.7065L96.1466 86.6437L96.082 86.5951L96.0092 86.5404L95.9385 86.4938L95.8658 86.4472C95.8415 86.431 95.8152 86.4168 95.789 86.4027L95.7142 86.3601L95.6334 86.3196L95.5586 86.2831L95.4697 86.2447L95.397 86.2123L95.3 86.1758L95.2313 86.1495L95.1262 86.113L95.0635 86.0927L94.9484 86.0563L94.8938 86.0401L94.7685 86.0056L94.72 85.9915L94.5887 85.9591L94.5503 85.9489L94.4048 85.9165H94.3805L94.1663 85.8699C93.2813 85.6876 92.3908 85.5303 91.4949 85.398C90.7614 85.2886 90.0097 85.1954 89.2863 85.3595C88.2881 85.5823 87.4555 86.2588 86.5219 86.6781C85.4186 87.1764 84.1941 87.3081 83.018 87.5816C81.8419 87.855 80.6315 88.3229 79.894 89.2892C79.3322 90.0265 79.1079 90.9643 78.9402 91.8779C77.5418 99.5023 79.0493 107.323 79.3342 115.073C79.4454 118.089 79.31 121.314 77.6045 123.783L82.5714 123.652C82.8099 123.652 83.0503 123.637 83.2928 123.623C83.5353 123.609 83.7778 123.591 84.0162 123.563C84.6462 123.503 85.2581 123.32 85.8167 123.022C86.0754 122.874 86.3115 122.69 86.5179 122.475C87.1928 121.778 87.5525 120.804 87.8819 119.872C87.993 119.558 88.1042 119.24 88.2032 118.92C88.2436 118.786 88.282 118.652 88.3163 118.515L88.3325 118.45L88.3891 118.476C88.5912 118.857 88.8195 119.23 89.062 119.59C89.9289 120.87 91.0282 121.964 92.1193 123.052C94.2876 125.209 96.5043 127.405 99.2222 128.791C100.14 129.255 101.132 129.645 101.831 130.411C102.174 130.782 102.472 131.258 102.958 131.385C103.262 131.464 103.595 131.385 103.884 131.515C104.308 131.693 104.464 132.206 104.66 132.627C104.856 133.048 105.298 133.478 105.719 133.285C105.64 133.677 105.673 134.082 105.813 134.456C105.953 134.829 106.195 135.156 106.511 135.398C106.714 135.511 106.89 135.669 107.024 135.86C107.089 136.034 107.124 136.217 107.129 136.403C107.216 136.92 107.488 137.388 107.895 137.718C107.501 138.372 107.816 139.31 107.826 140.126C107.826 140.811 107.602 141.471 107.449 142.137C107.002 144.092 107.246 146.138 107.61 148.109C107.812 149.197 108.069 150.323 108.776 151.168C109.007 151.441 109.281 151.678 109.524 151.943C109.987 152.466 110.371 153.054 110.666 153.687C111.279 154.942 111.697 156.284 111.904 157.666C112.002 158.359 112.199 159.035 112.49 159.671C112.933 160.639 112.529 161.83 112.925 162.819C113.105 163.263 113.436 163.641 113.543 164.105C113.695 164.78 113.341 165.454 113.246 166.141C113.016 167.749 114.174 169.242 114.279 170.863C114.296 170.958 114.276 171.056 114.222 171.136C114.143 171.225 114.008 171.223 113.901 171.274C113.699 171.371 113.644 171.645 113.579 171.871C113.515 172.098 113.333 172.356 113.109 172.287C109.789 174.067 106.351 175.712 103.031 177.492L101.516 178.303L93.4106 182.644C93.3122 182.693 93.2295 182.768 93.172 182.862C93.1144 182.956 93.0844 183.064 93.0853 183.174C93.0853 183.272 93.0974 183.377 93.1055 183.468C92.5376 183.61 91.992 183.78 91.6041 183.851C91.4444 183.881 91.2848 183.912 91.1272 183.946C91.1655 183.884 91.1903 183.815 91.1999 183.744C91.2006 183.644 91.1644 183.547 91.0984 183.472C91.0324 183.398 90.9412 183.35 90.8422 183.338C90.6443 183.319 90.4444 183.345 90.2583 183.415C89.7949 183.542 89.3218 183.63 88.8438 183.677C88.2759 183.731 87.698 183.729 87.1484 183.879C86.5987 184.029 86.0572 184.363 85.8349 184.892C85.7237 185.198 85.6742 185.523 85.6894 185.848C85.6771 187.1 85.8251 188.349 86.1299 189.563C86.1347 189.611 86.1506 189.658 86.1761 189.699C86.2017 189.74 86.2364 189.775 86.2774 189.8C86.3482 189.828 86.433 189.8 86.5038 189.833C86.566 189.87 86.6126 189.929 86.6351 189.999C86.9746 190.772 87.0534 191.635 87.1443 192.478C87.279 193.727 87.4495 194.973 87.6556 196.215C87.7768 196.94 87.9263 197.698 88.3972 198.257C88.9145 198.865 89.7329 199.134 90.523 199.241C92.1901 199.466 93.8733 199.128 95.5182 198.782C95.8253 198.717 96.1547 198.638 96.3608 198.399C96.5116 198.208 96.5838 197.967 96.5629 197.724C96.5245 196.892 95.7688 196.306 95.0817 195.838L94.1441 195.188C94.0641 195.146 94.0007 195.077 93.9641 194.994C93.9275 194.911 93.9197 194.818 93.942 194.73L94.0027 193.501H93.8208C94.0229 192.634 94.3482 191.801 94.9847 191.206C95.4232 190.801 95.9951 190.517 96.4538 190.148C97.0423 190.602 97.7552 190.864 98.4967 190.9C99.7092 189.263 101.417 188.149 103.124 187.051C104.511 186.173 105.945 185.371 107.418 184.649C108.612 184.057 109.824 183.503 111.056 182.986C112.793 182.253 114.564 181.598 116.336 180.96C117.518 180.535 118.71 180.116 119.799 179.488C122.628 177.849 124.627 174.578 124.245 171.302C123.764 167.17 124.792 162.863 124.724 158.703C124.703 157.488 124.659 156.272 124.291 155.107C124.377 155.168 124.457 155.236 124.532 155.31C125.267 155.999 125.445 157.093 126.148 157.878C126.696 158.496 127.528 158.891 127.86 159.645C128.112 160.222 128.076 161.002 128.603 161.334C128.753 161.429 128.931 161.47 129.08 161.563C129.259 161.691 129.41 161.854 129.523 162.043C130.083 162.843 130.663 163.7 130.723 164.676C130.749 165.063 130.713 165.511 130.996 165.772C131.077 165.847 131.18 165.902 131.222 166.003C131.311 166.206 131.077 166.42 131.036 166.645C130.978 166.957 131.285 167.194 131.475 167.456C131.633 167.674 131.719 167.936 131.719 168.206C131.719 168.476 131.633 168.739 131.475 168.957C129.818 171.114 129.519 174.021 128.07 176.328C127.569 177.124 127.011 177.877 126.526 178.684C125.035 181.159 124.281 184.003 123.55 186.804C123.862 187.35 124.286 187.823 124.792 188.194C124.519 189.137 124.047 190.011 123.408 190.756C123.245 190.938 123.093 191.13 122.952 191.329C122.833 191.179 122.678 191.062 122.501 190.989C122.235 192.152 122.1 193.341 122.097 194.534C122.097 195.32 122.204 196.217 122.84 196.671C123.094 196.831 123.374 196.947 123.667 197.013L125.053 197.418C125.297 197.512 125.562 197.538 125.819 197.493C125.983 197.447 126.128 197.345 126.296 197.313C126.478 197.294 126.662 197.319 126.833 197.384L128.032 197.734C128.437 197.843 128.833 197.983 129.216 198.154C129.557 198.318 129.873 198.53 130.208 198.713C130.766 198.995 131.345 199.234 131.94 199.426L134.005 200.139C134.58 200.367 135.182 200.524 135.795 200.605C136.22 200.641 136.65 200.605 137.068 200.678C137.388 200.732 137.697 200.848 138.018 200.88C138.551 200.896 139.075 200.74 139.513 200.435C139.684 200.338 139.832 200.204 139.946 200.044C140.249 199.57 139.988 198.944 139.693 198.466C139.146 197.578 138.461 196.748 137.557 196.237C137.192 196.035 136.796 195.885 136.418 195.699C135.343 195.172 134.532 194.293 133.516 193.691C133.386 193.599 133.229 193.554 133.07 193.565C132.911 193.576 132.761 193.641 132.645 193.75C131.8 193.201 130.887 192.664 130.422 191.771C130.215 191.34 130.079 190.878 130.018 190.404C130.493 190.517 130.972 190.606 131.455 190.685C132.241 187.631 133.1 184.521 134.637 181.767ZM115.224 95.3761C115.184 95.605 115.139 95.8319 115.091 96.0588C114.687 97.9608 114.109 100.092 112.787 101.508C112.353 101.923 111.848 102.257 111.296 102.494L111.148 102.567C112.1 100.019 113.616 97.657 115.224 95.3761Z" fill="url(#paint0_linear)"/>
<path d="M117.181 84.0927C117.331 83.3858 117.444 82.6444 117.834 82.0347C118.1 81.6514 118.422 81.31 118.79 81.0219C119.408 80.4973 120.069 79.9929 120.839 79.7377C121.608 79.4825 122.514 79.5169 123.16 80.0071C123.807 80.4973 124.08 81.342 124.181 82.1482C124.318 83.2562 124.181 84.4229 123.633 85.3891C123.007 86.485 121.92 87.2122 121.006 88.0913C120.345 88.7259 119.769 89.4451 119.295 90.2304C119.079 90.6396 118.817 91.0229 118.515 91.3728C118.361 91.5469 118.169 91.6824 117.954 91.7686C117.739 91.8548 117.507 91.8892 117.276 91.8691C116.886 91.8063 116.569 91.5349 116.266 91.2756C115.892 90.9474 114.885 90.362 114.851 89.8414C114.827 89.4201 115.613 88.464 115.805 88.069C116.402 86.7959 116.863 85.4631 117.181 84.0927Z" fill="#FBBEBE"/>
<path opacity="0.1" d="M117.181 84.0927C117.331 83.3858 117.444 82.6444 117.834 82.0347C118.1 81.6514 118.422 81.31 118.79 81.0219C119.408 80.4973 120.069 79.9929 120.839 79.7377C121.608 79.4825 122.514 79.5169 123.16 80.0071C123.807 80.4973 124.08 81.342 124.181 82.1482C124.318 83.2562 124.181 84.4229 123.633 85.3891C123.007 86.485 121.92 87.2122 121.006 88.0913C120.345 88.7259 119.769 89.4451 119.295 90.2304C119.079 90.6396 118.817 91.0229 118.515 91.3728C118.361 91.5469 118.169 91.6824 117.954 91.7686C117.739 91.8548 117.507 91.8892 117.276 91.8691C116.886 91.8063 116.569 91.5349 116.266 91.2756C115.892 90.9474 114.885 90.362 114.851 89.8414C114.827 89.4201 115.613 88.464 115.805 88.069C116.402 86.7959 116.863 85.4631 117.181 84.0927Z" fill="black"/>
<path d="M95.9639 104.339C97.5829 103.908 99.2537 103.703 100.929 103.732C103.723 103.772 106.601 104.451 109.262 103.592C109.949 103.353 110.617 103.063 111.261 102.723C111.796 102.456 112.342 102.18 112.752 101.742C114.076 100.337 114.645 98.2199 115.06 96.3301C115.474 94.4402 115.581 92.4996 115.688 90.5692C116.377 90.8913 117.103 91.2093 117.866 91.1445C118.63 91.0797 119.392 90.4963 119.388 89.7266C119.275 91.5152 119.186 93.3261 119.487 95.0924C119.604 95.7933 119.786 96.484 119.849 97.193C120.075 99.7533 118.735 102.312 119.214 104.838C119.293 105.217 119.252 105.611 119.096 105.965C118.94 106.319 118.678 106.616 118.345 106.813C117.658 107.183 116.85 107.23 116.094 107.42C114.613 107.799 113.32 108.743 111.833 109.095C111.139 109.26 110.418 109.298 109.735 109.474C108.753 109.734 107.862 110.297 106.862 110.475C106.112 110.609 105.34 110.517 104.582 110.582C103.923 110.637 103.277 110.811 102.616 110.827C101 110.868 99.4698 109.95 98.3948 108.733C97.3198 107.515 96.6388 105.814 95.9639 104.339Z" fill="#FFDA63"/>
<path opacity="0.1" d="M95.9639 104.339C97.5829 103.908 99.2537 103.703 100.929 103.732C103.723 103.772 106.601 104.451 109.262 103.592C109.949 103.353 110.617 103.063 111.261 102.723C111.796 102.456 112.342 102.18 112.752 101.742C114.076 100.337 114.645 98.2199 115.06 96.3301C115.474 94.4402 115.581 92.4996 115.688 90.5692C116.377 90.8913 117.103 91.2093 117.866 91.1445C118.63 91.0797 119.392 90.4963 119.388 89.7266C119.275 91.5152 119.186 93.3261 119.487 95.0924C119.604 95.7933 119.786 96.484 119.849 97.193C120.075 99.7533 118.735 102.312 119.214 104.838C119.293 105.217 119.252 105.611 119.096 105.965C118.94 106.319 118.678 106.616 118.345 106.813C117.658 107.183 116.85 107.23 116.094 107.42C114.613 107.799 113.32 108.743 111.833 109.095C111.139 109.26 110.418 109.298 109.735 109.474C108.753 109.734 107.862 110.297 106.862 110.475C106.112 110.609 105.34 110.517 104.582 110.582C103.923 110.637 103.277 110.811 102.616 110.827C101 110.868 99.4698 109.95 98.3948 108.733C97.3198 107.515 96.6388 105.814 95.9639 104.339Z" fill="black"/>
<path d="M168.635 106.828C171.386 106.828 174.076 107.646 176.364 109.178C178.651 110.711 180.434 112.889 181.487 115.437C182.54 117.985 182.815 120.789 182.278 123.494C181.741 126.199 180.416 128.683 178.471 130.633C176.525 132.584 174.046 133.911 171.348 134.449C168.649 134.987 165.852 134.711 163.31 133.655C160.768 132.599 158.596 130.812 157.068 128.518C155.539 126.225 154.724 123.529 154.724 120.771C154.725 117.073 156.191 113.526 158.799 110.912C161.408 108.297 164.946 106.828 168.635 106.828ZM168.635 103.385C165.204 103.385 161.85 104.405 158.998 106.315C156.145 108.226 153.922 110.942 152.609 114.119C151.296 117.296 150.953 120.793 151.623 124.166C152.292 127.539 153.944 130.637 156.37 133.068C158.796 135.5 161.887 137.156 165.252 137.827C168.617 138.497 172.105 138.153 175.274 136.836C178.444 135.52 181.153 133.291 183.059 130.431C184.964 127.572 185.981 124.21 185.981 120.771C185.976 116.161 184.146 111.742 180.894 108.482C177.642 105.223 173.234 103.39 168.635 103.385Z" fill="#3F3D56"/>
<path d="M170.131 99.3174H166.065V103.608H170.131V99.3174Z" fill="#3F3D56"/>
<path d="M180.87 103.157L177.385 101.058L175.18 104.735L178.665 106.834L180.87 103.157Z" fill="#3F3D56"/>
<path d="M188.016 111.648L186.045 108.083L182.302 110.163L184.273 113.728L188.016 111.648Z" fill="#3F3D56"/>
<path d="M185.993 133.342L188.147 129.886L184.518 127.612L182.363 131.069L185.993 133.342Z" fill="#3F3D56"/>
<path d="M152.999 113.727L154.97 110.162L151.226 108.082L149.255 111.647L152.999 113.727Z" fill="#3F3D56"/>
<path d="M154.909 131.067L152.755 127.61L149.125 129.884L151.28 133.34L154.909 131.067Z" fill="#3F3D56"/>
<path d="M158.605 106.834L162.09 104.735L159.886 101.058L156.401 103.157L158.605 106.834Z" fill="#3F3D56"/>
<path d="M170.131 137.934H166.065V142.224H170.131V137.934Z" fill="#3F3D56"/>
<path d="M178.666 134.709L175.181 136.808L177.385 140.485L180.87 138.386L178.666 134.709Z" fill="#3F3D56"/>
<path d="M156.401 138.386L159.886 140.485L162.09 136.808L158.605 134.709L156.401 138.386Z" fill="#3F3D56"/>
<path d="M151.73 119.056H146.808V122.702H151.73V119.056Z" fill="#3F3D56"/>
<path d="M185.54 122.701H190.463V119.055H185.54V122.701Z" fill="#3F3D56"/>
<path d="M200.95 81.7287C203.702 81.7287 206.391 82.5466 208.679 84.0789C210.967 85.6112 212.75 87.7891 213.802 90.3372C214.855 92.8853 215.131 95.6892 214.594 98.3942C214.057 101.099 212.732 103.584 210.786 105.534C208.84 107.484 206.362 108.812 203.663 109.35C200.964 109.887 198.167 109.611 195.626 108.555C193.084 107.5 190.911 105.712 189.383 103.419C187.855 101.125 187.039 98.429 187.04 95.671C187.04 91.9731 188.506 88.4268 191.115 85.8122C193.723 83.1975 197.261 81.7287 200.95 81.7287ZM200.95 78.2852C197.52 78.2852 194.166 79.305 191.313 81.2157C188.461 83.1264 186.237 85.8421 184.925 89.0194C183.612 92.1968 183.268 95.693 183.938 99.066C184.607 102.439 186.26 105.537 188.686 107.969C191.112 110.4 194.203 112.056 197.568 112.727C200.933 113.398 204.42 113.053 207.59 111.737C210.759 110.42 213.468 108.191 215.374 105.332C217.28 102.472 218.297 99.1101 218.296 95.671C218.291 91.0613 216.462 86.6419 213.21 83.3826C209.958 80.1232 205.549 78.29 200.95 78.2852Z" fill="#3F3D56"/>
<path d="M202.448 74.2207H198.382V78.511H202.448V74.2207Z" fill="#3F3D56"/>
<path d="M213.186 78.0561L209.701 75.957L207.497 79.6345L210.982 81.7336L213.186 78.0561Z" fill="#3F3D56"/>
<path d="M220.332 86.5479L218.361 82.9834L214.618 85.0634L216.589 88.6279L220.332 86.5479Z" fill="#3F3D56"/>
<path d="M218.306 108.242L220.461 104.786L216.831 102.513L214.677 105.969L218.306 108.242Z" fill="#3F3D56"/>
<path d="M185.312 88.629L187.283 85.0645L183.54 82.9845L181.569 86.549L185.312 88.629Z" fill="#3F3D56"/>
<path d="M187.225 105.969L185.07 102.513L181.441 104.786L183.595 108.242L187.225 105.969Z" fill="#3F3D56"/>
<path d="M190.92 81.7338L194.405 79.6348L192.201 75.9573L188.716 78.0564L190.92 81.7338Z" fill="#3F3D56"/>
<path d="M202.448 112.835H198.382V117.125H202.448V112.835Z" fill="#3F3D56"/>
<path d="M210.981 109.61L207.496 111.709L209.7 115.386L213.185 113.287L210.981 109.61Z" fill="#3F3D56"/>
<path d="M188.714 113.286L192.199 115.385L194.404 111.707L190.919 109.608L188.714 113.286Z" fill="#3F3D56"/>
<path d="M184.044 93.9561H179.121V97.6021H184.044V93.9561Z" fill="#3F3D56"/>
<path d="M217.858 97.6016H222.78V93.9555H217.858V97.6016Z" fill="#3F3D56"/>
<path d="M136.312 80.6555C136.476 80.6555 136.639 80.6555 136.803 80.6555C140.449 80.7801 143.9 82.3355 146.413 84.9866C148.926 87.6377 150.299 91.1723 150.237 94.8287C150.175 98.4852 148.683 101.971 146.082 104.535C143.48 107.099 139.978 108.536 136.33 108.536C136.166 108.536 136.003 108.536 135.837 108.536C132.191 108.411 128.739 106.856 126.226 104.204C123.714 101.553 122.34 98.0184 122.403 94.3617C122.465 90.7051 123.958 87.2194 126.559 84.6556C129.161 82.0918 132.664 80.6553 136.312 80.6555ZM136.312 77.2119C131.763 77.2114 127.395 79.0024 124.151 82.1991C120.906 85.3958 119.044 89.7423 118.966 94.302C118.888 98.8617 120.601 103.27 123.734 106.576C126.867 109.882 131.171 111.822 135.718 111.978C135.92 111.978 136.122 111.988 136.324 111.988C140.873 111.988 145.24 110.196 148.484 106.999C151.728 103.803 153.59 99.4561 153.667 94.8966C153.745 90.3371 152.033 85.9295 148.899 82.6235C145.766 79.3175 141.463 77.3777 136.916 77.222C136.714 77.222 136.512 77.2119 136.31 77.2119H136.312Z" fill="#3F3D56"/>
<path d="M138.556 73.2148L134.493 73.0732L134.345 77.3609L138.408 77.5024L138.556 73.2148Z" fill="#3F3D56"/>
<path d="M149.152 77.4232L145.742 75.2041L143.412 78.8026L146.822 81.0217L149.152 77.4232Z" fill="#3F3D56"/>
<path d="M156.003 86.1574L154.156 82.5264L150.343 84.4748L152.19 88.1058L156.003 86.1574Z" fill="#3F3D56"/>
<path d="M153.231 107.762L155.504 104.383L151.955 101.984L149.682 105.364L153.231 107.762Z" fill="#3F3D56"/>
<path d="M120.933 87.0143L123.026 83.5205L119.357 81.3115L117.264 84.8053L120.933 87.0143Z" fill="#3F3D56"/>
<path d="M121.959 104.746L119.926 101.2L116.202 103.345L118.235 106.891L121.959 104.746Z" fill="#3F3D56"/>
<path d="M126.779 80.3173L130.335 78.3408L128.259 74.5889L124.704 76.5653L126.779 80.3173Z" fill="#3F3D56"/>
<path d="M137.221 111.804L133.158 111.662L133.01 115.95L137.073 116.091L137.221 111.804Z" fill="#3F3D56"/>
<path d="M145.862 108.881L142.307 110.857L144.382 114.609L147.938 112.633L145.862 108.881Z" fill="#3F3D56"/>
<path d="M123.486 111.777L126.896 113.996L129.227 110.398L125.817 108.178L123.486 111.777Z" fill="#3F3D56"/>
<path d="M119.483 92.2983L114.563 92.127L114.437 95.7709L119.357 95.9422L119.483 92.2983Z" fill="#3F3D56"/>
<path d="M153.152 97.1128L158.071 97.2842L158.198 93.6403L153.278 93.4689L153.152 97.1128Z" fill="#3F3D56"/>
<path d="M91.519 183.51C91.0184 183.571 90.533 183.723 90.0863 183.957C89.4801 184.328 89.1063 184.982 88.8395 185.643C88.1707 187.3 88.0313 189.119 88.003 190.909C87.9787 192.351 88.0272 193.828 88.5425 195.173C88.6838 195.599 88.929 195.983 89.2558 196.289C89.5433 196.516 89.8762 196.678 90.2318 196.763C90.9997 196.966 91.8908 196.966 92.5193 196.48C93.2185 195.931 93.3943 194.964 93.5418 194.087C93.7438 192.904 94.0247 191.657 94.9017 190.832C95.5524 190.225 96.4839 189.921 96.9568 189.167C97.5206 188.272 97.2235 187.103 96.8638 186.106C96.5506 185.244 96.0919 183.491 95.1907 183.05C94.2894 182.608 92.4566 183.34 91.519 183.51Z" fill="#FBBEBE"/>
<path d="M124.753 187.754C124.481 188.72 123.997 189.613 123.338 190.369C122.934 190.831 122.439 191.392 122.651 191.965C122.738 192.159 122.866 192.331 123.027 192.469C125.99 195.376 130.134 196.79 134.246 197.305C134.312 197.322 134.382 197.322 134.448 197.305C134.57 197.25 134.598 197.102 134.614 196.966C134.68 196.537 134.68 196.099 134.614 195.67C134.412 194.657 133.533 193.954 132.672 193.399C131.811 192.844 130.87 192.305 130.389 191.4C129.783 190.274 130.043 188.807 129.33 187.754C128.752 186.897 127.679 186.538 126.661 186.37C126.307 186.316 125.555 185.927 125.246 186.107C124.931 186.289 124.86 187.401 124.753 187.754Z" fill="#FBBEBE"/>
<path d="M91.1133 183.405C91.114 183.305 91.0779 183.209 91.0118 183.134C90.9458 183.059 90.8546 183.011 90.7557 183C90.5579 182.98 90.358 183.005 90.1717 183.075C89.7083 183.201 89.2351 183.288 88.7572 183.334C88.1894 183.389 87.6094 183.387 87.0577 183.537C86.5061 183.687 85.9666 184.017 85.7423 184.55C85.6332 184.854 85.5838 185.176 85.5968 185.5C85.5853 186.743 85.7334 187.983 86.0373 189.188C86.0426 189.236 86.0589 189.283 86.0848 189.324C86.1107 189.365 86.1456 189.4 86.1868 189.425C86.2575 189.454 86.3424 189.425 86.4131 189.458C86.4753 189.495 86.5219 189.553 86.5445 189.622C86.886 190.391 86.9648 191.242 87.0557 192.085C87.1904 193.326 87.3609 194.563 87.567 195.796C87.6882 196.515 87.8377 197.27 88.3106 197.821C88.8279 198.429 89.6483 198.69 90.4384 198.798C92.1075 199.02 93.7928 198.684 95.4417 198.34C95.7561 198.308 96.0518 198.175 96.2844 197.961C96.435 197.772 96.5074 197.532 96.4864 197.291C96.4481 196.464 95.6903 195.873 95.0032 195.419L94.0575 194.781C93.9916 194.744 93.9349 194.693 93.8918 194.631C93.847 194.536 93.8309 194.431 93.8454 194.327L93.906 193.112C93.2778 193.122 92.6641 193.302 92.1303 193.635C91.5965 193.967 91.1626 194.438 90.8749 194.998C90.7436 195.259 90.6203 195.565 90.3475 195.666C90.01 195.794 89.6342 195.508 89.521 195.166C89.4423 194.812 89.4527 194.445 89.5513 194.096C90.105 191.123 89.9757 188.066 90.3131 185.06C90.334 184.723 90.4374 184.396 90.6142 184.108C90.7779 183.881 91.083 183.683 91.1133 183.405Z" fill="#3F3D56"/>
<path d="M132.385 194.934C132.525 195.165 132.741 195.339 132.87 195.578C133 195.817 132.998 196.166 132.765 196.302C132.628 196.362 132.475 196.378 132.329 196.346C129.362 195.977 126.577 194.714 124.341 192.724C123.97 192.41 123.641 192.048 123.363 191.649C123.102 191.244 122.882 190.768 122.437 190.602C122.172 191.756 122.036 192.937 122.033 194.122C122.033 194.902 122.14 195.793 122.777 196.245C123.032 196.404 123.312 196.518 123.605 196.583L124.994 196.976C125.238 197.069 125.503 197.095 125.761 197.051C125.925 197.007 126.071 196.903 126.238 196.873C126.421 196.853 126.606 196.877 126.778 196.942L127.976 197.292C128.382 197.396 128.778 197.531 129.162 197.697C129.504 197.859 129.821 198.072 130.154 198.252C130.714 198.533 131.294 198.77 131.89 198.959L134 199.692C134.577 199.921 135.179 200.076 135.794 200.154C136.219 200.191 136.649 200.154 137.069 200.227C137.389 200.282 137.698 200.397 138.021 200.43C138.554 200.444 139.077 200.289 139.516 199.986C139.688 199.89 139.836 199.758 139.951 199.599C140.254 199.127 139.993 198.505 139.696 198.029C139.149 197.15 138.464 196.326 137.558 195.824C137.191 195.621 136.795 195.471 136.417 195.287C135.342 194.764 134.527 193.891 133.511 193.294C132.551 192.735 131.933 194.191 132.385 194.934Z" fill="#3F3D56"/>
<path d="M102.755 109.796C101.64 110.564 100.363 111.062 99.0246 111.251C98.3242 111.338 97.6186 111.376 96.9129 111.364C93.9704 111.36 91.0332 111.115 88.1309 110.629C89.2867 109.353 90.4547 107.995 90.8912 106.322C91.1074 105.44 91.152 104.524 91.0225 103.624C90.8475 102.47 90.573 101.334 90.2021 100.227C91.44 100.294 92.6813 100.262 93.9142 100.132C94.6174 100.061 96.339 99.4189 96.9452 99.9051C97.5131 100.357 97.0847 101.955 97.0746 102.692C97.0746 102.719 97.0746 102.745 97.0746 102.771C97.1064 103.891 97.3469 104.994 97.7838 106.024C98.673 108.018 100.574 109.654 102.755 109.796Z" fill="#FBBEBE"/>
<path opacity="0.1" d="M97.0838 102.682C96.1981 103.262 95.1989 103.645 94.1533 103.805C93.1077 103.966 92.0399 103.901 91.0216 103.613C90.8466 102.459 90.5721 101.323 90.2012 100.216C91.4391 100.283 92.6803 100.251 93.9132 100.121C94.6164 100.05 96.3381 99.4082 96.9443 99.8943C97.5222 100.346 97.0939 101.944 97.0838 102.682Z" fill="black"/>
<path d="M93.0326 103.545C97.1172 103.545 100.428 100.226 100.428 96.1315C100.428 92.037 97.1172 88.7178 93.0326 88.7178C88.948 88.7178 85.6367 92.037 85.6367 96.1315C85.6367 100.226 88.948 103.545 93.0326 103.545Z" fill="#FBBEBE"/>
<path d="M124.414 133.645C124.418 134.244 124.266 134.833 123.974 135.355C123.681 135.877 123.259 136.313 122.747 136.621C122.175 136.922 121.562 137.137 120.928 137.259C117.545 138.069 114.08 138.736 110.606 138.537C109.854 138.495 109.091 138.406 108.416 138.075C107.741 137.745 107.165 137.127 107.064 136.382C107.059 136.197 107.023 136.015 106.957 135.843C106.823 135.653 106.647 135.497 106.443 135.385C106.131 135.145 105.892 134.821 105.754 134.451C105.616 134.081 105.585 133.68 105.664 133.293C105.241 133.481 104.801 133.056 104.603 132.637C104.405 132.217 104.249 131.711 103.825 131.535C103.536 131.411 103.202 131.484 102.897 131.405C102.41 131.279 102.113 130.797 101.77 130.437C101.068 129.685 100.074 129.296 99.1568 128.834C96.4349 127.459 94.2161 125.28 92.0438 123.136C90.9506 122.057 89.8493 120.969 88.9824 119.693C88.7379 119.334 88.5177 118.966 88.3095 118.587C87.6523 117.324 87.0825 116.017 86.6041 114.675C86.3292 113.958 86.0504 113.201 86.1635 112.447C86.1736 112.378 86.1878 112.31 86.204 112.245C86.3448 111.755 86.572 111.295 86.8748 110.886C87.6265 109.778 88.6127 108.728 89.9059 108.388C91.1992 108.048 92.4904 108.459 93.8039 108.738C94.24 108.836 94.6822 108.903 95.1275 108.941C96.5197 109.04 97.8979 108.665 99.2437 108.293L100.711 107.888C101.446 107.685 101.814 106.794 102.558 106.638C102.89 106.59 103.228 106.607 103.554 106.688C105.063 106.976 106.585 107.347 107.913 108.117C108.208 108.289 108.491 108.481 108.759 108.694C109.705 109.443 110.453 110.442 110.727 111.609C111.031 112.891 110.746 114.26 111.053 115.542C111.303 116.602 111.938 117.525 112.56 118.419L116.171 123.588C116.977 124.805 117.865 125.965 118.828 127.06C120.764 129.173 124.365 130.771 124.414 133.645Z" fill="#FFDA63"/>
<path d="M114.771 84.0927C114.92 83.3858 115.032 82.6444 115.422 82.0347C115.688 81.6514 116.01 81.31 116.377 81.0219C116.998 80.4973 117.657 79.9929 118.426 79.7377C119.196 79.4825 120.102 79.5169 120.748 80.0071C121.395 80.4973 121.668 81.342 121.769 82.1482C121.906 83.2562 121.769 84.4229 121.221 85.3891C120.595 86.485 119.508 87.2122 118.594 88.0913C117.933 88.7265 117.358 89.4456 116.883 90.2304C116.667 90.6396 116.405 91.0229 116.103 91.3728C115.949 91.5469 115.757 91.6824 115.542 91.7686C115.327 91.8548 115.095 91.8892 114.864 91.8691C114.476 91.8063 114.157 91.5349 113.854 91.2756C113.48 90.9474 112.471 90.362 112.439 89.8414C112.415 89.4201 113.201 88.464 113.393 88.069C113.99 86.7956 114.452 85.4629 114.771 84.0927Z" fill="#FBBEBE"/>
<path d="M140.762 169.971C139.833 171.691 138.814 173.366 137.986 175.137C137.503 176.172 137.085 177.237 136.547 178.244C135.961 179.342 135.24 180.363 134.627 181.448C133.086 184.185 132.227 187.272 131.433 190.312C129.211 189.979 127.074 189.223 125.136 188.084C125.005 188.007 124.879 187.926 124.758 187.839C124.24 187.467 123.807 186.988 123.487 186.435C124.221 183.654 124.974 180.826 126.468 178.369C126.955 177.559 127.512 176.82 128.014 176.03C129.466 173.741 129.766 170.852 131.425 168.709C131.583 168.493 131.669 168.232 131.669 167.964C131.669 167.696 131.583 167.434 131.425 167.218C131.233 166.969 130.927 166.732 130.984 166.424C131.026 166.199 131.261 165.997 131.17 165.786C131.128 165.685 131.024 165.63 130.944 165.557C130.661 165.296 130.697 164.85 130.673 164.468C130.61 163.497 130.03 162.645 129.46 161.853C129.347 161.665 129.196 161.502 129.018 161.374C128.868 161.283 128.691 161.243 128.541 161.15C128.012 160.817 128.05 160.044 127.795 159.47C127.464 158.715 126.629 158.33 126.082 157.716C125.385 156.936 125.207 155.849 124.465 155.166C124.39 155.092 124.31 155.025 124.225 154.963C124.593 156.108 124.629 157.329 124.655 158.535C124.726 162.665 123.695 166.941 124.178 171.045C124.558 174.3 122.562 177.549 119.723 179.176C118.631 179.799 117.439 180.217 116.255 180.64C114.479 181.27 112.709 181.92 110.967 182.649C109.735 183.16 108.523 183.71 107.329 184.3C105.854 185.018 104.418 185.815 103.027 186.687C101.318 187.776 99.6083 188.884 98.3938 190.511C97.2198 190.478 96.1448 189.772 95.4012 188.86C94.6575 187.949 94.1887 186.834 93.7623 185.749C93.3845 184.807 93.0127 183.834 92.9844 182.82C92.9894 182.711 93.0251 182.605 93.0873 182.516C93.1495 182.426 93.2357 182.356 93.336 182.313L101.453 178.001L102.971 177.19C106.295 175.422 109.738 173.787 113.062 172.021C113.287 172.088 113.466 171.833 113.533 171.616C113.6 171.399 113.646 171.12 113.856 171.022C113.961 170.972 114.099 170.974 114.178 170.885C114.229 170.805 114.249 170.709 114.234 170.615C114.127 168.995 112.967 167.522 113.2 165.924C113.299 165.243 113.648 164.573 113.497 163.898C113.39 163.435 113.058 163.06 112.878 162.62C112.474 161.638 112.878 160.455 112.442 159.493C112.152 158.86 111.954 158.189 111.856 157.499C111.647 156.127 111.228 154.795 110.615 153.55C110.32 152.92 109.935 152.337 109.473 151.818C109.229 151.554 108.954 151.319 108.722 151.046C108.017 150.207 107.756 149.089 107.556 148.007C107.192 146.049 106.95 144.017 107.394 142.076C107.548 141.414 107.782 140.758 107.772 140.079C107.762 139.182 107.368 138.135 107.99 137.486C108.248 137.254 108.561 137.093 108.9 137.019C110.33 136.591 111.82 136.397 113.301 136.208L120.08 135.319C120.856 135.216 121.65 135.116 122.335 134.73C123.255 134.221 123.865 133.279 124.239 132.299C125.429 133.17 125.874 134.792 126.823 135.917C127.286 136.466 127.858 136.909 128.365 137.414C128.985 138.068 129.554 138.771 130.065 139.514C131.479 141.461 132.894 143.421 133.904 145.605C134.431 146.739 134.84 147.922 135.26 149.099C136.915 153.732 139.613 158.129 140.732 162.918C141.007 164.089 141.72 165.146 141.831 166.343C141.957 167.613 141.371 168.841 140.762 169.971Z" fill="#3F3D56"/>
<path opacity="0.1" d="M105.258 131.497C105.092 131.805 105.006 132.149 105.008 132.499C105.159 131.75 106.188 131.335 106.255 130.593C106.285 130.251 106.222 130.267 106.012 130.447C105.693 130.725 105.553 131.203 105.258 131.497Z" fill="black"/>
<path opacity="0.1" d="M108.393 133.773C108.175 133.957 108.013 134.197 107.924 134.468C107.749 134.849 107.715 135.279 107.829 135.683C107.98 135.612 108.031 135.426 108.077 135.264C108.152 135.011 108.26 134.77 108.399 134.547C108.52 134.344 109.08 133.892 109.078 133.68C109.071 133.354 108.542 133.657 108.393 133.773Z" fill="black"/>
<path opacity="0.1" d="M108.756 108.68C108.28 109.09 107.756 109.44 107.196 109.721C105.731 110.465 104.108 110.858 102.633 111.579C101.905 111.953 101.198 112.366 100.515 112.817L96.1302 115.602C95.7779 115.804 95.4532 116.051 95.1643 116.337C94.6369 116.9 94.6389 117.891 94.1539 118.494C93.6689 119.098 92.8324 119.438 92.0261 119.479C91.2185 119.484 90.4162 119.347 89.6558 119.074C89.1953 118.936 88.7432 118.771 88.3019 118.579C87.8404 118.383 87.4036 118.133 87.0006 117.834C86.2185 117.243 85.5861 116.382 85.4689 115.403C85.4162 114.732 85.505 114.057 85.7295 113.422C85.8509 113.009 86.0071 112.607 86.1963 112.221C86.3041 112.001 86.4284 111.79 86.5681 111.589C87.5785 110.159 89.3507 109.489 91.0663 109.158C91.9675 108.982 92.8849 108.875 93.7962 108.721C94.2324 108.818 94.6746 108.886 95.1198 108.923C96.5121 109.023 97.8902 108.648 99.236 108.275L100.703 107.87C101.439 107.667 101.806 106.776 102.55 106.62C102.882 106.572 103.221 106.59 103.546 106.671C105.056 106.959 106.577 107.329 107.905 108.099C108.202 108.272 108.486 108.466 108.756 108.68Z" fill="black"/>
<path d="M112.332 89.0029C112.144 90.7956 110.634 92.1122 109.705 93.6618C109.258 94.4133 108.945 95.2378 108.543 96.0156C108.082 96.8637 107.569 97.6822 107.007 98.4666L105.364 100.857C104.398 102.263 103.422 103.681 102.188 104.857C100.036 105.224 98.2311 106.826 96.1902 107.604C94.5574 108.226 92.7772 108.311 91.0636 108.645C89.35 108.98 87.5738 109.658 86.5675 111.076C86.1928 111.635 85.909 112.251 85.7269 112.899C85.501 113.533 85.4128 114.207 85.4682 114.878C85.5915 115.854 86.2159 116.713 86.9979 117.309C87.7799 117.904 88.7155 118.257 89.6531 118.549C90.4138 118.82 91.2159 118.957 92.0234 118.954C92.8317 118.913 93.6521 118.601 94.1533 117.969C94.6544 117.337 94.6302 116.375 95.1636 115.812C95.4533 115.526 95.7787 115.279 96.1316 115.077L100.517 112.291C101.199 111.844 101.905 111.433 102.632 111.062C104.107 110.339 105.73 109.948 107.195 109.204C108.66 108.461 110.024 107.233 110.317 105.613C111.21 100.634 114.647 96.4369 117.592 92.3249C117.495 92.3047 117.525 92.0839 117.489 91.9907C117.113 91.0144 116.276 90.2791 115.334 89.8152C114.393 89.3513 113.342 89.2217 112.332 89.0029Z" fill="#FFDA63"/>
<path d="M96.8288 89.0401C96.8834 88.5 96.7773 87.9559 96.5237 87.4763C96.0367 86.6661 95.0162 86.3804 94.0988 86.19C93.211 86.0077 92.3192 85.8511 91.4234 85.7201C90.6878 85.6127 89.9341 85.5175 89.2107 85.6836C88.2003 85.9044 87.3779 86.5749 86.4423 86.9922C85.3369 87.4864 84.1124 87.6161 82.9323 87.8895C81.7522 88.163 80.5438 88.6269 79.8042 89.587C79.2424 90.3162 79.0181 91.248 78.8504 92.1555C77.4501 99.7292 78.9575 107.497 79.2445 115.195C79.3556 118.191 79.2202 121.393 77.5127 123.854L82.4857 123.723C83.7587 123.69 85.1268 123.623 86.123 122.835C87.004 122.143 87.4203 121.027 87.7982 119.969C88.0952 119.137 88.3943 118.288 88.4327 117.405C88.5115 115.596 87.487 113.819 87.8265 112.039C88.075 110.71 89.0389 109.637 90.0715 108.763C91.1041 107.89 92.2518 107.143 93.0864 106.073C94.5777 104.184 94.8626 101.601 94.6767 99.2006C94.5656 97.7725 94.311 96.3444 94.4342 94.9164C94.5272 93.8489 94.8646 92.7469 95.5618 91.9144C96.3458 90.9705 96.7601 90.379 96.8288 89.0401Z" fill="#3F3D56"/>
<path opacity="0.1" d="M96.524 87.4763C96.0451 86.6782 95.0509 86.3906 94.1395 86.2002C94.624 86.373 95.0386 86.7003 95.3196 87.132C95.5742 87.6112 95.6804 88.1557 95.6248 88.6957C95.5561 90.0327 95.1418 90.6241 94.3497 91.5701C93.6525 92.4026 93.3151 93.5025 93.2221 94.5721C93.0989 96.0001 93.3535 97.4282 93.4646 98.8562C93.6505 101.257 93.3656 103.839 91.8763 105.729C91.0397 106.791 89.892 107.552 88.8614 108.419C87.8308 109.286 86.8629 110.366 86.6144 111.695C86.2809 113.475 87.3055 115.252 87.2206 117.06C87.1822 117.944 86.8811 118.792 86.5841 119.625C86.2082 120.682 85.7899 121.796 84.9089 122.489C83.8985 123.277 82.5386 123.346 81.2716 123.378L77.7495 123.471C77.6706 123.601 77.5898 123.731 77.5029 123.854L82.4759 123.723C83.749 123.69 85.117 123.623 86.1132 122.835C86.9943 122.143 87.4105 121.027 87.7884 119.969C88.0855 119.137 88.3845 118.288 88.4229 117.405C88.5017 115.596 87.4772 113.819 87.8167 112.039C88.0652 110.71 89.0291 109.637 90.0617 108.763C91.0943 107.89 92.2421 107.143 93.0766 106.073C94.5679 104.184 94.8529 101.601 94.6669 99.2006C94.5558 97.7725 94.3012 96.3445 94.4245 94.9164C94.5174 93.8489 94.8549 92.747 95.552 91.9145C96.3441 90.9705 96.7645 90.379 96.8271 89.0401C96.8824 88.5003 96.7769 87.9561 96.524 87.4763Z" fill="black"/>
<path opacity="0.1" d="M133.886 165.537L124.758 187.849C124.24 187.477 123.807 186.999 123.487 186.446C124.221 183.665 124.975 180.837 126.468 178.38C126.955 177.569 127.513 176.83 128.014 176.04C129.467 173.751 129.766 170.863 131.425 168.72C131.583 168.504 131.669 168.242 131.669 167.974C131.669 167.706 131.583 167.445 131.425 167.229C131.233 166.98 130.928 166.743 130.984 166.435C131.027 166.21 131.261 166.007 131.17 165.797C131.128 165.695 131.025 165.641 130.944 165.568C130.661 165.306 130.697 164.861 130.673 164.478C130.61 163.508 130.03 162.655 129.461 161.863C129.347 161.675 129.196 161.512 129.018 161.385C128.868 161.294 128.691 161.253 128.541 161.16C128.012 160.828 128.05 160.054 127.795 159.481C127.464 158.725 126.63 158.34 126.082 157.727C125.385 156.947 125.207 155.859 124.465 155.176L124.403 155.018L125.114 150.714L133.886 165.537Z" fill="black"/>
</g>
<defs>
<filter id="filter0_d" x="0" y="0" width="315" height="257" filterUnits="userSpaceOnUse" color-interpolation-filters="sRGB">
<feFlood flood-opacity="0" result="BackgroundImageFix"/>
<feColorMatrix in="SourceAlpha" type="matrix" values="0 0 0 0 0 0 0 0 0 0 0 0 0 0 0 0 0 0 127 0"/>
<feOffset dy="2"/>
<feGaussianBlur stdDeviation="4"/>
<feColorMatrix type="matrix" values="0 0 0 0 0 0 0 0 0 0 0 0 0 0 0 0 0 0 0.25 0"/>
<feBlend mode="normal" in2="BackgroundImageFix" result="effect1_dropShadow"/>
<feBlend mode="normal" in="SourceGraphic" in2="effect1_dropShadow" result="shape"/>
</filter>
<linearGradient id="paint0_linear" x1="109.724" y1="200.888" x2="109.724" y2="79.2097" gradientUnits="userSpaceOnUse">
<stop stop-color="#808080" stop-opacity="0.25"/>
<stop offset="0.54" stop-color="#808080" stop-opacity="0.12"/>
<stop offset="1" stop-color="#808080" stop-opacity="0.1"/>
</linearGradient>
<clipPath id="clip0">
<rect x="56" y="50" width="204" height="152" fill="white"/>
</clipPath>
</defs>
</svg>
