<?xml version="1.0" encoding="UTF-8"?>
<svg width="356px" height="286px" viewBox="0 0 356 286" version="1.1" xmlns="http://www.w3.org/2000/svg" xmlns:xlink="http://www.w3.org/1999/xlink">
    <!-- Generator: Sketch 51.3 (57544) - http://www.bohemiancoding.com/sketch -->
    <title>undraw_new_ideas_jdea (1)</title>
    <desc>Created with Sketch.</desc>
    <defs></defs>
    <g id="Page-1" stroke="none" stroke-width="1" fill="none" fill-rule="evenodd">
        <g id="A6" transform="translate(0.000000, -11.000000)" fill-rule="nonzero">
            <g id="undraw_new_ideas_jdea-(1)" transform="translate(0.000000, 11.000000)">
                <path d="M336.365231,95.0083669 C336.365231,107.369893 333.437408,117.545219 328.358568,126.261905 C326.682296,129.132997 324.779432,131.865646 322.668118,134.433799 C303.997538,157.269408 269.285443,169.768012 237.912402,190.013219 C145.304639,249.771728 135.27342,154.01471 139.456023,95.0083669 C141.143124,71.1991598 150.415147,49.3898698 165.145644,32.6910888 C168.239287,29.1790571 171.581072,25.8936537 175.14523,22.860213 C191.868615,8.61827219 213.474047,-5.68434189e-14 237.912402,-5.68434189e-14 C279.840366,-5.68434189e-14 315.645562,25.2889349 329.84181,60.9254201 C334.157817,71.7699697 336.371638,83.3365149 336.365241,95.0083669 L336.365231,95.0083669 Z" id="Shape" fill="#FFDA63"></path>
                <path d="M258.888689,21.4121113 L165.145648,32.6910817 C168.23929,29.1790501 171.581075,25.8936467 175.145234,22.860206 L258.888689,21.4121113 Z" id="Shape" fill="#E2C259"></path>
                <path d="M328.358571,126.261898 C326.682299,129.13299 324.779435,131.865639 322.668121,134.433792 L242.369163,124.775141 L328.358571,126.261898 Z" id="Shape" fill="#E2C259"></path>
                <path d="M333.117565,70.7246522 L197.02832,53.0733622 L329.8418,60.9254096 C331.117343,64.1275453 332.211006,67.3991697 333.117565,70.7246522 Z" id="Shape" fill="#E2C259"></path>
                <path d="M148.687465,25.307261 C148.687465,25.5497818 148.680435,25.7887877 148.659347,26.0242788 C148.368098,30.0180629 145.685786,33.4370516 141.876095,34.6704986 C138.066404,35.9039456 133.889229,34.7058229 131.312513,31.6405874 C128.735796,28.5753519 128.273499,24.254407 130.143418,20.7134267 C130.355008,20.3078811 130.597051,19.918967 130.867465,19.5500303 C133.278045,16.2066314 137.51733,14.7204889 141.487854,15.8268999 C145.458379,16.9333109 148.31818,20.3976572 148.652317,24.5058883 C148.67691,24.7694872 148.687465,25.036615 148.687465,25.307261 Z" id="Shape" fill="#FFDA63"></path>
                <path d="M148.687465,25.307261 C148.687465,25.5497818 148.680435,25.7887877 148.659347,26.0242788 L133.925335,24.2528232 L148.652317,24.5058883 C148.67691,24.7694872 148.687465,25.036615 148.687465,25.307261 Z" id="Shape" fill="#E2C259"></path>
                <path d="M145.172672,30.2666268 L131.542305,31.9080351 C131.155399,31.4767172 130.807259,31.0121388 130.501927,30.5196919 L145.172672,30.2666268 Z" id="Shape" fill="#E2C259"></path>
                <path d="M141.3064,19.3707688 L130.143418,20.7134197 C130.355008,20.3078741 130.597051,19.91896 130.867465,19.5500232 L141.3064,19.3707688 Z" id="Shape" fill="#E2C259"></path>
                <path d="M283.561632,202.497001 C283.447943,202.711224 283.329688,202.919039 283.200663,203.117161 C281.071209,206.508406 277.099142,208.271053 273.155769,207.57469 C269.212396,206.878327 266.084277,203.861853 265.245122,199.94638 C264.405967,196.030907 266.023156,191.997429 269.334805,189.746186 C269.711815,189.487149 270.107928,189.257079 270.519737,189.057954 C274.216346,187.234682 278.657653,187.909211 281.646236,190.747805 C284.634819,193.586399 285.536937,197.987124 283.906251,201.772637 C283.804402,202.017038 283.688502,202.257931 283.561632,202.497001 Z" id="Shape" fill="#FFDA63"></path>
                <path d="M283.561632,202.497001 C283.447943,202.711224 283.329688,202.919039 283.200663,203.117161 L271.016271,194.645484 L283.906261,201.772651 C283.804402,202.017038 283.688502,202.257931 283.561632,202.497001 Z" id="Shape" fill="#E2C259"></path>
                <path d="M278.132128,205.230051 L265.322725,200.290361 C265.18316,199.727997 265.09343,199.154428 265.054575,198.576309 L278.132128,205.230051 Z" id="Shape" fill="#E2C259"></path>
                <path d="M279.82468,193.793126 L269.334816,189.746193 C269.711826,189.487156 270.107939,189.257086 270.519747,189.057961 L279.82468,193.793126 Z" id="Shape" fill="#E2C259"></path>
                <path d="M353.264327,32.8466324 C353.433655,33.0202632 353.595491,33.1962735 353.744799,33.3795804 C356.324768,36.4420905 356.79164,40.7625541 354.925463,44.3055178 C353.059287,47.8484815 349.232297,49.9072496 345.247463,49.511897 C341.262629,49.1165443 337.914783,46.3459298 336.781161,42.505343 C336.649486,42.0672797 336.551226,41.6198603 336.487226,41.1669345 C335.8786,37.0903167 337.87589,33.0665091 341.490898,31.0863692 C345.105906,29.1062292 349.572057,29.5896528 352.679634,32.2974566 C352.881299,32.4690101 353.075364,32.6528759 353.264327,32.8466324 Z" id="Shape" fill="#FFDA63"></path>
                <path d="M353.264327,32.8466324 C353.433655,33.0202632 353.595491,33.1962735 353.744799,33.3795804 L341.959856,42.3986726 L352.679623,32.2974566 C352.881299,32.4690101 353.075364,32.6528759 353.264327,32.8466324 Z" id="Shape" fill="#E2C259"></path>
                <path d="M354.210706,38.8510867 L345.598704,49.5428969 C345.020573,49.5042483 344.446972,49.4147223 343.884561,49.2753579 L354.210706,38.8510867 Z" id="Shape" fill="#E2C259"></path>
                <path d="M343.835346,33.750138 L336.781157,42.505343 C336.649482,42.0672797 336.551222,41.6198603 336.487222,41.1669345 L343.835346,33.750138 Z" id="Shape" fill="#E2C259"></path>
                <path d="M168.63286,214.210174 C168.63286,214.210174 190.229706,215.110046 190.229706,220.509256 C190.229706,225.908467 165.933253,220.509256 165.933253,220.509256 L168.63286,214.210174 Z" id="Shape" fill="#A0616A"></path>
                <path d="M136.237591,296.998088 L95.7435034,294.298481 L93.9437642,272.701632 L84.945079,291.598874 L45.3508596,286.19966 C46.2507274,252.004655 60.6486442,218.709517 61.5484945,214.210171 C62.4483447,209.710825 64.5990641,191.119514 64.5990641,191.119514 C68.5314847,182.777768 89.1383886,181.994887 105.291094,182.750746 C111.986173,183.056727 117.925284,183.632608 121.587702,184.046559 C124.008297,184.316495 125.439166,184.514508 125.439166,184.514508 C131.891155,191.164549 136.048653,200.226177 138.604248,210.349702 C147.818893,246.821407 136.237591,296.998088 136.237591,296.998088 Z" id="Shape" fill="#134780"></path>
                <circle id="Oval" fill="#A0616A" cx="91.2441572" cy="65.7318537" r="22.4967167"></circle>
                <path d="M75.9463937,71.1310712 C75.9463937,71.1310712 69.6473189,99.0269948 59.7487588,107.125812 C49.8501987,115.22463 98.4431139,107.125812 98.4431139,107.125812 C98.4431139,107.125812 87.644693,89.1284382 95.7435104,81.0296208 C103.842328,72.9308033 75.9463937,71.1310712 75.9463937,71.1310712 Z" id="Shape" fill="#A0616A"></path>
                <path d="M121.839691,186.314247 L106.910802,187.969975 L65.1479693,192.613329 C65.1479693,192.613329 64.9500232,192.082381 64.5990641,191.119518 C61.5665008,182.849723 46.9616611,142.607643 45.3508596,130.522379 C43.551124,117.024348 62.4483623,100.826713 62.4483623,100.826713 C62.4483623,100.826713 80.4457363,97.227238 85.8449327,97.227238 C91.2441291,97.227238 112.841003,105.326055 112.841003,105.326055 L120.894799,177.774489 L121.587716,184.046545 L121.839691,186.314247 Z" id="Shape" fill="#D0CDE1"></path>
                <path d="M138.604248,210.349705 L108.341674,192.613329 C108.341674,192.613329 107.810673,190.885541 106.910802,187.969975 C106.46087,186.512193 105.912073,184.748488 105.291104,182.75075 C101.799611,171.538367 95.9414565,153.03707 91.2441713,139.521082 C84.0452217,118.824104 119.140095,176.415694 119.140095,176.415694 L120.894795,177.774513 L121.587712,184.04657 C124.008308,184.316506 125.439177,184.514519 125.439177,184.514519 C131.891155,191.164553 136.048653,200.226181 138.604248,210.349705 Z" id="Shape" fill="#000000" opacity="0.15"></path>
                <path d="M98.4431068,107.125812 C98.4431068,107.125812 89.4444216,118.824097 96.6433712,139.521082 C103.842321,160.218066 113.740874,192.613329 113.740874,192.613329 L165.933253,223.208863 L173.132203,214.210174 L124.539298,176.415694 C124.539298,176.415694 122.739559,108.02568 113.740874,105.326073 C104.742189,102.626466 98.4431068,107.125812 98.4431068,107.125812 Z" id="Shape" fill="#D0CDE1"></path>
                <path d="M53.8996127,185.864315 C53.8996127,185.864315 66.4977728,211.960503 71.8969832,209.260886 C77.2961937,206.561268 58.3989553,179.565244 58.3989553,179.565244 L53.8996127,185.864315 Z" id="Shape" fill="#A0616A"></path>
                <path d="M52.5498092,114.324758 L4.85677246,153.918978 C4.85677246,153.918978 -13.140598,166.517141 20.1545571,175.515826 C53.4497122,184.514512 56.149284,189.913722 56.149284,189.913722 C56.149284,189.913722 59.7487588,178.215437 64.2481015,180.015169 L25.5537464,161.117927 L57.0491483,142.220685 L52.5498092,114.324758 Z" id="Shape" fill="#D0CDE1"></path>
                <path d="M33.3815066,84.1964492 C35.8846261,82.9568133 41.4120667,80.4550259 46.1202864,77.4409469 C45.7901349,67.6355112 46.9976034,58.7343017 50.5321318,54.0160402 C52.5160989,49.5112989 56.6822918,45.0012643 59.9452393,41.4495133 C67.9582641,32.7274247 85.6768905,27.8588355 88.8194809,32.2167007 C112.588387,32.6859572 115.090688,51.3171643 115.090688,51.3171643 C114.967038,59.1101175 106.86763,59.3567083 99.7726019,59.0727306 C100.407953,64.3928863 98.7147511,69.9208718 93.8116818,72.3724082 C84.4356203,77.0604389 81.6227737,83.1548825 86.3108291,87.3741523 C90.9988844,91.5934222 99.4373504,102.844682 88.1860519,105.657476 C76.9347535,108.47027 75.5283161,114.09598 78.8099904,116.439989 C82.0916646,118.783997 71.3090849,112.220758 71.3090849,112.220758 C71.3090849,112.220758 69.4339007,123.472056 59.589008,120.65922 C58.7067493,120.407136 57.8249616,119.761229 56.9580414,118.795216 C54.2991779,121.716712 51.9271602,123.444085 50.1394592,123.453579 C39.9007761,123.507872 41.128567,112.167681 41.128567,112.167681 C41.128567,112.167681 28.9757875,115.580717 32.767894,114.208292 C36.5600006,112.835867 36.7224473,107.039355 26.6462144,101.29714 C16.5699815,95.5549242 27.7294735,86.9954404 33.3815066,84.1964492 Z" id="Shape" fill="#2F2E41"></path>
                <path d="M159.003547,113.591393 L158.840331,113.569876 L159.238511,115.083497 C159.614902,117.19519 160.161477,119.27298 160.87289,121.296543 L172.551264,165.691126 C173.31298,168.5867 175.718929,170.755143 178.677819,171.21289 L202.493953,174.897311 C205.65002,175.385543 208.770474,173.828305 210.277849,171.012821 L232.910957,128.738207 C233.618166,127.566978 234.264384,126.359989 234.847028,125.122069 L235.615457,123.686743 L235.495623,123.670944 C242.072804,108.112082 238.171309,90.0988504 225.745768,78.6557979 C213.320228,67.2127455 195.047288,64.8048751 180.08161,72.6385191 C165.115931,80.4721631 156.681343,96.8598385 159.003537,113.591393 L159.003547,113.591393 Z" id="Shape" fill="#134780"></path>
                <path d="M203.955534,177.797795 C203.536069,177.79778 203.117225,177.765534 202.7027,177.701342 L177.808255,173.849832 C174.576924,173.350508 171.949404,170.982355 171.118135,167.820107 L158.911108,121.415744 C158.165077,119.291375 157.591718,117.110261 157.196617,114.893642 L156.88787,112.863539 C155.203933,99.7148533 159.798243,86.5393192 169.292859,77.2885962 C178.787474,68.0378732 192.078079,63.7879086 205.178503,65.8133688 L205.070725,66.5080887 C192.111078,64.5109829 178.969959,68.7564281 169.628323,77.9583142 C160.286687,87.1602004 155.843663,100.23584 157.645217,113.224115 L157.882571,114.742614 C158.274691,116.940496 158.843221,119.103219 159.582645,121.209802 L171.798096,167.64127 C172.558074,170.533015 174.9608,172.69861 177.915688,173.155102 L202.810137,177.006612 C205.961171,177.490871 209.075355,175.936736 210.582838,173.127641 L211.202735,173.459212 C209.769624,176.129015 206.985658,177.795654 203.955534,177.797795 Z" id="Shape" fill="#FFFFFF"></path>
                <rect id="Rectangle-path" fill="#FFFFFF" transform="translate(203.123518, 144.517876) rotate(-69.884990) translate(-203.123518, -144.517876) " x="181.100889" y="144.06328" width="44.0452582" height="1"></rect>
                <rect id="Rectangle-path" fill="#FFFFFF" transform="translate(186.050620, 141.876649) rotate(-2.515830) translate(-186.050620, -141.876649) " x="185.596024" y="119.85402" width="1" height="44.0452582"></rect>
                <path d="M201.851006,198.835616 L169.951684,193.900703 C169.457901,193.821371 169.120874,193.358163 169.197333,192.863926 C169.273792,192.36969 169.735032,192.029975 170.229704,192.103558 L202.129026,197.038471 C202.451591,197.086453 202.723758,197.303502 202.84231,197.607304 C202.960861,197.911105 202.90764,198.25513 202.702831,198.508907 C202.498021,198.762685 202.172991,198.887347 201.851006,198.835616 Z" id="Shape" fill="#134780"></path>
                <path d="M202.668951,192.06157 L170.769629,187.126657 C170.447065,187.078675 170.174898,186.861626 170.056346,186.557824 C169.937794,186.254022 169.991015,185.909998 170.195825,185.65622 C170.400635,185.402443 170.725665,185.277781 171.04765,185.329511 L202.946975,190.264425 C203.269539,190.312406 203.541707,190.529456 203.660258,190.833257 C203.77881,191.137059 203.725589,191.481084 203.520779,191.734861 C203.31597,191.988638 202.990939,192.113301 202.668955,192.06157 L202.668951,192.06157 Z" id="Shape" fill="#134780"></path>
                <path d="M203.486896,185.287524 L171.58756,180.35261 C171.093777,180.273278 170.75675,179.81007 170.833209,179.315834 C170.909668,178.821597 171.370908,178.481882 171.86558,178.555465 L203.764902,183.490378 C204.258686,183.569711 204.595712,184.032918 204.519254,184.527155 C204.442795,185.021391 203.981555,185.361107 203.486882,185.287524 L203.486896,185.287524 Z" id="Shape" fill="#134780"></path>
                <path d="M184.909803,202.777509 C191.23721,203.756379 196.912153,201.023459 197.585123,196.673368 L174.671528,193.128573 C173.998554,197.47866 178.582392,201.798643 184.909803,202.777509 Z" id="Shape" fill="#134780"></path>
                <path d="M196.376266,114.968696 C195.015212,114.758361 193.889139,113.682497 193.271776,112.961398 C193.069342,112.724997 192.87232,112.47977 192.674704,112.234005 C191.95575,111.339051 191.276938,110.493887 190.331596,110.053153 C188.244913,109.079587 185.786234,110.439429 183.657482,111.898363 L183.14318,111.148507 C185.483596,109.543955 188.212784,108.06177 190.716079,109.228945 C191.85309,109.759306 192.631188,110.727877 193.383477,111.664376 C193.575033,111.902915 193.766237,112.140726 193.962338,112.370084 C194.604266,113.11969 195.884519,114.334417 197.256311,114.054253 C197.834393,113.885763 198.372036,113.601138 198.836368,113.217781 C199.190124,112.9538 199.563991,112.717901 199.954547,112.512243 C201.574082,111.735648 203.501622,112.008067 204.842513,113.203058 C205.076289,113.424563 205.297723,113.658741 205.505814,113.904533 C205.914838,114.370792 206.300963,114.810823 206.803641,114.970802 C207.546791,115.208402 208.332225,114.783629 209.164478,114.334863 C210.022791,113.871705 210.910055,113.39259 211.916526,113.510778 C211.949164,113.514704 211.982172,113.519136 212.014642,113.524159 C213.805643,113.801233 214.631349,115.781932 215.098563,117.260162 L214.231376,117.533929 C213.596541,115.524582 212.823413,114.52533 211.810035,114.413936 C211.08907,114.329131 210.364049,114.720587 209.596418,115.134876 C208.634138,115.654503 207.638158,116.191602 206.527617,115.837177 C205.784299,115.60066 205.295015,115.043361 204.82224,114.50434 C204.635923,114.283719 204.437815,114.073332 204.228785,113.874099 C203.161601,112.939501 201.642584,112.724781 200.358168,113.326968 C200.010101,113.512085 199.676813,113.723745 199.361264,113.960067 C198.797024,114.420213 198.141883,114.755882 197.438809,114.94506 C197.088884,115.01635 196.729016,115.024355 196.376266,114.968696 Z" id="Shape" fill="#FFFFFF"></path>
            </g>
        </g>
    </g>
</svg>