<svg width="331" height="283" viewBox="0 0 331 283" fill="none" xmlns="http://www.w3.org/2000/svg">
<path d="M45.0155 191.048C64.2035 191.048 79.7584 159.352 79.7584 120.253C79.7584 81.1545 64.2035 49.4585 45.0155 49.4585C25.8274 49.4585 10.2725 81.1545 10.2725 120.253C10.2725 159.352 25.8274 191.048 45.0155 191.048Z" fill="#FFDA63"/>
<path d="M44.6954 120.988C46.4285 90.1714 49.9203 69.3558 49.9554 69.1492L49.1977 69.021C49.1627 69.2279 45.6646 90.0768 43.9288 120.933C42.3269 149.412 41.9404 192.487 49.1976 235.972L49.9556 235.846C42.7107 192.435 43.0963 149.425 44.6954 120.988Z" fill="#3F3D56"/>
<path d="M76.0665 105.896L44.6533 122.687L45.016 123.364L76.4291 106.573L76.0665 105.896Z" fill="#3F3D56"/>
<path d="M11.8557 114.312L11.4932 114.989L42.9108 131.771L43.2733 131.094L11.8557 114.312Z" fill="#3F3D56"/>
<path d="M285.927 183.689C310.82 183.689 331 142.569 331 91.8444C331 41.1201 310.82 0 285.927 0C261.033 0 240.854 41.1201 240.854 91.8444C240.854 142.569 261.033 183.689 285.927 183.689Z" fill="#FFDA63"/>
<path d="M285.379 92.7851C287.628 52.7994 292.159 25.7906 292.205 25.5224L291.486 25.4009C291.441 25.6693 286.904 52.7097 284.653 92.733C282.575 129.672 282.073 185.545 291.486 241.947L292.205 241.827C282.804 185.495 283.304 129.685 285.379 92.7851Z" fill="#3F3D56"/>
<path d="M326.276 73.3364L285.522 95.1196L285.866 95.7612L326.62 73.9779L326.276 73.3364Z" fill="#3F3D56"/>
<path d="M242.844 84.2544L242.5 84.896L283.259 106.668L283.603 106.027L242.844 84.2544Z" fill="#3F3D56"/>
<path d="M231.622 208.564C240.923 208.564 248.462 193.201 248.462 174.249C248.462 155.297 240.923 139.933 231.622 139.933C222.321 139.933 214.781 155.297 214.781 174.249C214.781 193.201 222.321 208.564 231.622 208.564Z" fill="#E6E6E6"/>
<path d="M231.606 175.727L231.706 175.913L246.932 167.774L246.589 167.133L231.638 175.124C232.465 159.917 234.157 149.708 234.191 149.507L233.473 149.386C233.436 149.605 231.425 161.728 230.712 179.27L215.633 171.21L215.289 171.851L230.515 179.99L230.697 179.651C230.126 194.129 230.446 212.233 233.473 230.369L234.192 230.249C230.892 210.476 230.819 190.74 231.606 175.727Z" fill="#3F3D56"/>
<path d="M316.951 249.482C227.251 221.124 145.915 222.635 93.4771 228.896C36.6674 235.679 0.618827 249.337 0.261476 249.474L0 248.795C0.358419 248.658 36.4919 234.967 93.3906 228.173C126.86 224.182 160.629 223.319 194.258 225.597C236.007 228.419 277.269 236.204 317.171 248.788L316.951 249.482Z" fill="#3F3D56"/>
<path d="M115.302 241.467C115.302 241.467 115.553 236.203 120.71 236.815L115.302 241.467Z" fill="#3F3D56"/>
<path d="M113.845 236.458C115.27 236.458 116.426 235.304 116.426 233.88C116.426 232.457 115.27 231.303 113.845 231.303C112.419 231.303 111.264 232.457 111.264 233.88C111.264 235.304 112.419 236.458 113.845 236.458Z" fill="#FFDA63"/>
<path d="M114.152 238.221H113.424V243.314H114.152V238.221Z" fill="#3F3D56"/>
<path d="M209.287 242.559C209.287 242.559 209.539 237.295 214.696 237.907L209.287 242.559Z" fill="#3F3D56"/>
<path d="M207.831 237.549C209.257 237.549 210.412 236.395 210.412 234.972C210.412 233.548 209.257 232.394 207.831 232.394C206.406 232.394 205.25 233.548 205.25 234.972C205.25 236.395 206.406 237.549 207.831 237.549Z" fill="#FFDA63"/>
<path d="M208.139 239.312H207.41V244.406H208.139V239.312Z" fill="#3F3D56"/>
<path d="M54.4648 233.464C54.4648 233.464 54.7164 228.2 59.8735 228.812L54.4648 233.464Z" fill="#3F3D56"/>
<path d="M53.0088 228.455C54.4343 228.455 55.5899 227.301 55.5899 225.877C55.5899 224.453 54.4343 223.299 53.0088 223.299C51.5833 223.299 50.4277 224.453 50.4277 225.877C50.4277 227.301 51.5833 228.455 53.0088 228.455Z" fill="#FFDA63"/>
<path d="M53.3165 230.217H52.5879V235.31H53.3165V230.217Z" fill="#3F3D56"/>
<path d="M94.1729 226.552C94.1729 226.552 94.4244 221.288 99.5815 221.9L94.1729 226.552Z" fill="#3F3D56"/>
<path d="M92.7158 221.542C94.1413 221.542 95.2969 220.388 95.2969 218.965C95.2969 217.541 94.1413 216.387 92.7158 216.387C91.2904 216.387 90.1348 217.541 90.1348 218.965C90.1348 220.388 91.2904 221.542 92.7158 221.542Z" fill="#FFDA63"/>
<path d="M93.0235 223.305H92.2949V228.398H93.0235V223.305Z" fill="#3F3D56"/>
<path d="M193.623 236.374C193.623 236.374 193.875 231.11 199.032 231.722L193.623 236.374Z" fill="#3F3D56"/>
<path d="M192.166 231.365C193.592 231.365 194.747 230.211 194.747 228.787C194.747 227.364 193.592 226.209 192.166 226.209C190.741 226.209 189.585 227.364 189.585 228.787C189.585 230.211 190.741 231.365 192.166 231.365Z" fill="#FFDA63"/>
<path d="M192.475 233.128H191.746V238.221H192.475V233.128Z" fill="#3F3D56"/>
<path d="M305.643 225.821L320.636 248.023L306.677 261.964L304.867 258.35L307.969 251.121C307.969 251.121 307.452 244.409 305.643 242.602C303.833 240.795 295.819 229.952 295.819 229.952L305.643 225.821Z" fill="#FFB8B8"/>
<path d="M286.512 154.052C286.512 154.052 289.355 158.546 283.409 177.908C283.409 177.908 311.143 224.652 306.748 227.75C302.353 230.848 290.461 237.704 287.359 235.639C284.257 233.573 261.695 163.604 261.695 163.604L286.512 154.052Z" fill="#2F2E41"/>
<path d="M317.921 244.022L322.445 248.54C324.772 250.863 326.323 254.219 321.928 257.059C317.533 259.899 302.281 270.484 297.111 267.128C291.941 263.771 303.315 260.673 303.315 260.673C303.315 260.673 305.196 253.709 306.195 255.255C307.193 256.801 307.193 259.899 307.193 259.899L317.921 244.022Z" fill="#2F2E41"/>
<path d="M263.248 237.955C263.248 237.955 254.976 253.187 254.976 254.994C254.976 256.801 255.493 261.964 255.493 261.964L239.724 265.837L234.295 263.255L236.104 258.608C236.104 258.608 245.928 255.252 247.996 248.798C250.064 242.344 252.39 235.632 252.39 235.632L263.248 237.955Z" fill="#FFB8B8"/>
<path d="M272.812 86.4141C278.809 86.4141 283.67 81.5596 283.67 75.5713C283.67 69.583 278.809 64.7285 272.812 64.7285C266.816 64.7285 261.955 69.583 261.955 75.5713C261.955 81.5596 266.816 86.4141 272.812 86.4141Z" fill="#FFB8B8"/>
<path d="M269.968 84.8652L275.151 99.7393L286.512 94.6754C286.512 94.6754 278.757 82.7999 278.757 81.251L269.968 84.8652Z" fill="#FFB8B8"/>
<path d="M268.416 137.788H282.117C282.117 137.788 291.941 152.762 286.253 168.509C285.383 170.921 284.518 174.299 283.655 178.293C281.671 187.478 279.695 199.919 277.67 211.352C274.826 227.411 271.885 241.479 268.688 241.735C262.225 242.251 249.658 242.165 249.658 239.583C249.658 237.002 258.076 162.314 258.076 162.314L259.886 159.216L260.228 145.721C260.282 143.592 261.169 141.569 262.7 140.085C264.231 138.602 266.284 137.777 268.416 137.788Z" fill="#2F2E41"/>
<path d="M254.846 254.865C254.846 254.865 257.819 259.899 257.043 263.513C256.268 267.127 254.975 266.611 249.288 267.127C243.601 267.644 224.213 267.644 224.213 264.029C224.213 260.415 239.337 255.722 239.401 257.165C239.465 258.608 239.982 261.448 238.431 261.964C236.88 262.48 238.302 262.093 238.302 262.093L254.846 254.865Z" fill="#2F2E41"/>
<path d="M269.97 170.011C269.97 170.011 268.845 188.35 261.345 182.89C253.845 177.431 264.268 167.569 264.268 167.569L269.97 170.011Z" fill="white"/>
<path d="M284.939 145.859C285.3 146.021 285.698 146.082 286.09 146.036C286.483 145.989 286.856 145.837 287.168 145.595C287.622 145.239 287.924 144.726 288.014 144.157C289.098 137.914 290.419 120.606 291.179 111.855C292.133 100.873 287.367 92.3674 287.327 92.3156L284.518 88.4587C284.226 88.0557 283.807 87.7632 283.327 87.6288C282.848 87.4944 282.337 87.5261 281.878 87.7186C281.878 87.7186 273.109 96.8043 273.077 97.1551C272.939 98.6615 271.895 102 266.456 107.432C260.504 113.376 260.471 118.564 260.602 120.013C260.611 120.108 260.616 120.203 260.616 120.298C260.604 120.948 260.693 121.596 260.878 122.219C263.371 130.068 261.419 139.465 258.283 149.274C258.165 149.717 258.187 150.187 258.347 150.617C258.507 151.047 258.797 151.417 259.176 151.675C260.092 152.297 258.994 151.374 259.32 151.774C261.481 154.418 264.591 150.733 268.147 146.712C269.386 145.311 270.791 143.723 272.446 142.07C274.721 139.798 279.069 144.984 281.091 144.984C282.421 145 283.733 145.298 284.939 145.859Z" fill="#575A89"/>
<path d="M286.146 96.3198C286.146 96.3198 291.824 101.102 288.598 107.305C285.372 113.508 285.801 118.082 285.801 118.082C285.801 118.082 284.942 160.692 274.861 158.622L270.276 171.265L261.994 168.28L266.783 157.129C266.783 157.129 262.947 156.89 264.068 154.281C264.855 152.447 269.096 132.555 271.551 120.876C272.591 115.927 273.311 112.452 273.311 112.452C273.311 112.452 276.574 95.0293 286.146 96.3198Z" fill="#575A89"/>
<path opacity="0.2" d="M287.338 117.974L284.145 138.896L285.867 116.524L287.338 117.974Z" fill="black"/>
<path d="M260.966 70.7671C260.966 70.7671 259.141 56.5806 274.034 61.2327C274.034 61.2327 284.671 59.2836 288.16 72.571L291.692 86.4995L289.97 85.5638L289.168 87.3157L286.378 88.0212L285.185 85.6551L284.607 88.5284L261.76 90.803C261.76 90.803 271.993 84.7596 272.155 73.9282L270.206 75.9852L260.966 70.7671Z" fill="#2F2E41"/>
<path opacity="0.2" d="M277.955 212.168L283.05 178.267L278.906 214.864L277.955 212.168Z" fill="black"/>
<path d="M286.284 67.1087C289.457 67.1087 292.029 64.54 292.029 61.3715C292.029 58.2029 289.457 55.6343 286.284 55.6343C283.111 55.6343 280.539 58.2029 280.539 61.3715C280.539 64.54 283.111 67.1087 286.284 67.1087Z" fill="#2F2E41"/>
<path d="M280.361 59.9671C280.456 58.5115 281.102 57.1465 282.169 56.1503C283.236 55.154 284.643 54.6013 286.104 54.6048C285.985 54.5898 285.867 54.5715 285.746 54.5638C284.993 54.515 284.238 54.6149 283.524 54.8578C282.809 55.1007 282.15 55.4817 281.583 55.9792C281.016 56.4767 280.553 57.0809 280.22 57.7572C279.886 58.4335 279.69 59.1687 279.642 59.9209C279.593 60.673 279.694 61.4273 279.937 62.1406C280.181 62.8539 280.563 63.5124 281.061 64.0782C281.56 64.6441 282.165 65.1064 282.842 65.4386C283.52 65.7709 284.256 65.9666 285.009 66.0145C285.13 66.0223 285.249 66.0192 285.369 66.0195C283.92 65.8362 282.595 65.1081 281.665 63.9836C280.734 62.8591 280.268 61.4228 280.361 59.9671Z" fill="#2F2E41"/>
<path opacity="0.2" d="M269.888 124.493L264.834 151.547L271.385 121.666L269.888 124.493Z" fill="black"/>
<path d="M270.204 83.3851L267.258 85.6033C264.224 84.0785 261.948 80.5507 261.121 77.1835L264.331 75.5659C264.584 79.0002 267.025 81.2834 270.204 83.3851Z" fill="white"/>
<path d="M271.428 76.0546H264.087C264.023 76.0546 263.96 76.0289 263.914 75.9831C263.869 75.9373 263.843 75.8751 263.843 75.8103C263.843 75.7455 263.869 75.6833 263.914 75.6375C263.96 75.5917 264.023 75.5659 264.087 75.5659H271.428C271.493 75.5659 271.555 75.5917 271.601 75.6375C271.647 75.6833 271.672 75.7455 271.672 75.8103C271.672 75.8751 271.647 75.9373 271.601 75.9831C271.555 76.0289 271.493 76.0546 271.428 76.0546Z" fill="white"/>
<path d="M269.958 83.3851C269.918 83.3851 269.879 83.3753 269.844 83.3566C269.808 83.3379 269.778 83.3108 269.756 83.2777C269.733 83.2447 269.72 83.2066 269.715 83.1669C269.711 83.1272 269.717 83.0871 269.731 83.05L271.689 78.163C271.701 78.1332 271.718 78.1059 271.741 78.0829C271.763 78.0598 271.79 78.0414 271.819 78.0287C271.849 78.016 271.881 78.0092 271.913 78.0088C271.945 78.0084 271.977 78.0143 272.007 78.0263C272.037 78.0382 272.064 78.0559 272.087 78.0783C272.11 78.1008 272.128 78.1276 272.141 78.1571C272.154 78.1867 272.16 78.2185 272.161 78.2506C272.161 78.2827 272.155 78.3146 272.143 78.3444L270.185 83.2314C270.167 83.2768 270.136 83.3157 270.096 83.343C270.055 83.3704 270.007 83.3851 269.958 83.3851Z" fill="white"/>
<path d="M271.92 78.9419C272.912 78.9419 273.716 77.8182 273.716 76.4319C273.716 75.0457 272.912 73.9219 271.92 73.9219C270.929 73.9219 270.125 75.0457 270.125 76.4319C270.125 77.8182 270.929 78.9419 271.92 78.9419Z" fill="#FFB8B8"/>
<path d="M145.42 83.9928L164.54 88.3624L172.618 73.1465L156.269 66.772L145.42 83.9928Z" fill="#2F2E41"/>
<path d="M155.578 165.902C155.578 165.902 149.432 179.968 149.432 184.06C149.432 184.06 151.865 195.185 151.097 198.254L148.408 204.008L142.774 201.707L141.237 186.362L141.493 161.811L155.578 165.902Z" fill="#FFB9B9"/>
<path d="M159.035 81.7626C159.035 81.7626 159.547 90.2022 158.523 92.7597C157.498 95.3171 162.364 100.176 162.364 100.176L170.047 90.2022C170.047 90.2022 164.925 85.0873 166.205 79.4609L159.035 81.7626Z" fill="#FFB9B9"/>
<path d="M143.03 140.201C143.03 140.201 135.604 154.011 142.774 152.988C149.945 151.965 147.512 139.817 147.512 139.817" fill="#E6E6E6"/>
<path d="M147.511 139.817L149.943 115.649L149.816 100.944L144.182 101.966V115.521L143.029 140.2" fill="#FFB9B9"/>
<path d="M141.366 199.917L152.377 195.569L153.658 217.307C153.658 217.307 155.963 223.957 155.194 226.514C155.194 226.514 155.706 230.862 154.426 231.117C153.146 231.373 149.56 231.885 149.304 231.629C149.048 231.373 149.048 230.606 149.048 230.606C149.048 230.606 146.487 232.396 146.231 234.442C146.231 234.442 135.475 237.767 135.219 234.698C134.963 231.629 140.597 229.071 140.597 229.071L144.951 222.422L141.366 199.917Z" fill="#2F2E41"/>
<path d="M178.5 165.902C178.5 165.902 172.354 179.968 172.354 184.06C172.354 184.06 174.787 195.185 174.019 198.254L171.33 204.008L165.696 201.707L164.159 186.362L164.415 161.811L178.5 165.902Z" fill="#FFB9B9"/>
<path d="M164.67 199.917L175.682 195.569L176.962 217.307C176.962 217.307 179.267 223.957 178.499 226.514C178.499 226.514 179.011 230.862 177.731 231.117C176.45 231.373 172.865 231.885 172.609 231.629C172.353 231.373 172.353 230.606 172.353 230.606C172.353 230.606 169.792 232.396 169.536 234.442C169.536 234.442 158.78 237.767 158.524 234.698C158.268 231.629 163.902 229.071 163.902 229.071L168.255 222.422L164.67 199.917Z" fill="#2F2E41"/>
<path d="M169.793 75.8816C169.792 77.8957 169.048 79.8386 167.702 81.3388C166.357 82.839 164.504 83.791 162.5 84.0126C160.495 84.2343 158.48 83.7101 156.838 82.5403C155.196 81.3705 154.044 79.6372 153.602 77.6722C153.467 77.0849 153.4 76.4842 153.401 75.8816C153.403 73.7118 154.267 71.6313 155.804 70.0975C157.341 68.5637 159.425 67.7021 161.597 67.7021C163.77 67.7021 165.854 68.5637 167.391 70.0975C168.928 71.6313 169.792 73.7118 169.793 75.8816Z" fill="#FFB9B9"/>
<path d="M162.62 92.2482L168.979 88.9502L171.839 91.2252C171.839 91.2252 178.753 90.9694 181.314 94.0384C183.875 97.1073 185.284 104.908 185.284 104.908C185.284 104.908 176.833 103.117 177.857 110.278L176.321 106.186L174.912 109.639L157.754 115.521L150.072 102.478C150.072 102.478 144.95 100.944 143.157 104.524C143.157 104.524 143.541 91.6088 148.535 91.2252C151.893 90.9672 154.425 90.9695 154.425 90.9695L157.242 90.458L159.046 89.8186L162.62 92.2482Z" fill="#575A89"/>
<path d="M173.505 120.252C173.505 120.252 186.95 160.532 183.109 166.159C183.109 166.159 168.768 173.319 140.086 163.601L151.738 118.462C158.895 117 166.151 117.597 173.505 120.252Z" fill="#2F2E41"/>
<path d="M173.504 120.252L177.288 107.266C172.749 102.337 176.667 91.4056 176.667 91.4056L171.19 90.2335C171.19 90.2335 165.694 105.035 160.06 103.245C154.426 101.455 157.499 89.9463 157.499 89.9463L152.377 90.4578L150.072 99.4089L151.737 118.462C158.679 117.867 165.96 118.559 173.504 120.252Z" fill="#575A89"/>
<path d="M180.163 139.817L181.956 115.521L182.468 100.944L176.834 101.966V115.521L175.682 140.2" fill="#FFB9B9"/>
<path d="M175.682 140.201C175.682 140.201 168.255 154.011 175.426 152.988C182.596 151.965 180.163 139.817 180.163 139.817" fill="white"/>
<path d="M185.285 104.907C185.285 104.907 184.374 91.7735 176.763 91.819V107.008C176.763 107.008 182.468 103.629 185.285 104.907Z" fill="#575A89"/>
<path d="M164.218 77.9938C164.175 77.9938 164.132 77.9804 164.097 77.9554C164.062 77.9303 164.035 77.895 164.021 77.8541C164.006 77.8133 164.005 77.7691 164.017 77.7275C164.029 77.6859 164.053 77.649 164.087 77.622L168.267 74.2829C168.288 74.2656 168.313 74.2527 168.339 74.2449C168.366 74.2371 168.393 74.2346 168.421 74.2375C168.448 74.2405 168.475 74.2488 168.499 74.2621C168.523 74.2753 168.544 74.2932 168.562 74.3147C168.579 74.3362 168.592 74.3609 168.599 74.3874C168.607 74.4138 168.609 74.4415 168.606 74.4689C168.603 74.4962 168.594 74.5227 168.581 74.5468C168.568 74.5708 168.55 74.592 168.528 74.609L164.348 77.9481C164.311 77.9777 164.265 77.9938 164.218 77.9938Z" fill="white"/>
<path d="M164.534 83.0024C164.442 83.1151 164.35 83.2278 164.254 83.3322C163.145 83.8343 161.938 84.0833 160.72 84.0612C159.503 84.0391 158.306 83.7464 157.216 83.2044C156.126 82.6624 155.171 81.8847 154.42 80.9277C153.668 79.9708 153.14 78.8588 152.873 77.6724L156.833 76.9448L164.534 77.6724C162.77 79.8178 162.983 80.5607 164.534 83.0024Z" fill="white"/>
<path d="M156.969 64.4261C156.969 64.4261 152.734 65.2217 151.754 70.4971C151.601 71.3868 151.573 72.2934 151.671 73.1908C151.769 74.2063 151.627 76.351 149.419 78.8765C147.979 80.5145 146.636 82.2361 145.399 84.0324L149.825 85.209L151.803 77.8862C152.761 74.3359 154.238 70.9459 156.186 67.8253L156.226 67.7601C156.226 67.7601 157.696 71.6825 161.636 72.2202L160.421 70.623C160.421 70.623 165.027 73.2818 167.636 74.0941C167.934 74.1868 168.201 74.359 168.408 74.5919C168.615 74.8249 168.755 75.1099 168.812 75.4162C168.869 75.7225 168.841 76.0385 168.731 76.3301C168.622 76.6218 168.434 76.8781 168.19 77.0714C168.171 77.0859 168.152 77.1004 168.133 77.115C166.214 78.5708 162.298 82.0445 163.845 85.4048C165.392 88.7651 163.588 89.3778 163.588 89.3778L166.915 88.114L168.437 87.4629L168.283 88.5871L175.716 88.7426C175.716 88.7426 177.724 88.7304 174.156 83.3766C174.156 83.3766 173.296 81.3691 174.002 79.8355C174.569 78.674 174.852 77.3945 174.826 76.1026C174.601 70.705 172.325 59.7239 156.969 64.4261Z" fill="#2F2E41"/>
<path d="M52.7106 218.176C52.7106 218.176 52.7106 252.905 44.7293 262.014C44.7293 262.014 43.0191 266.568 42.449 268.276C42.1302 269.249 41.7494 270.2 41.3088 271.123V273.4C41.3088 273.4 25.9163 271.692 24.2061 267.707L27.0565 264.291C27.0565 264.291 27.6266 263.722 27.0565 262.014C26.4864 260.306 28.1967 260.306 28.1967 260.306L32.1873 251.197L31.6172 213.621L34.4677 161.812L58.9816 160.673L52.7106 218.176Z" fill="#2F2E41"/>
<path d="M40.1698 269.985C40.1698 269.985 44.1605 281.941 40.1698 282.51C36.1792 283.079 1.40364 283.649 1.97373 279.094C2.54382 274.539 13.9456 275.109 13.9456 275.109L25.9176 267.708L40.1698 269.985Z" fill="#2F2E41"/>
<path d="M75.5143 161.812C75.5143 161.812 76.6545 169.213 72.0938 177.184C67.5331 185.155 70.3835 211.913 70.3835 211.913L110.86 247.211C110.86 247.211 102.879 260.875 100.028 260.306C97.1778 259.737 52.1406 223.3 52.1406 223.3L34.4678 164.089L75.5143 161.812Z" fill="#2F2E41"/>
<path d="M110.305 245.703C110.305 245.703 122.553 248.738 120.898 252.408C119.243 256.079 101.108 285.717 97.5607 282.798C94.0137 279.879 100.599 270.566 100.599 270.566L100.749 256.506L110.305 245.703Z" fill="#2F2E41"/>
<path d="M66.3928 55.9181C66.3974 58.9175 65.3649 61.8264 63.4699 64.1534C61.9716 66.008 59.9937 67.4178 57.7505 68.2303C55.5074 69.0428 53.0844 69.227 50.7439 68.763C49.572 68.5368 48.4378 68.147 47.3746 67.6052C45.6862 66.7553 44.2019 65.5505 43.0236 64.0736C41.8454 62.5967 41.0012 60.8827 40.549 59.0492C40.2942 58.025 40.1662 56.9734 40.168 55.9181C40.168 52.4452 41.5495 49.1144 44.0085 46.6586C46.4676 44.2029 49.8028 42.8232 53.2804 42.8232C56.758 42.8232 60.0932 44.2029 62.5523 46.6586C65.0113 49.1144 66.3928 52.4452 66.3928 55.9181Z" fill="#A0616A"/>
<path d="M63.5979 60.5371L63.0179 77.3874L51.9851 81.7408C51.9851 81.7408 50.9031 64.4872 49.3758 63.5307C47.8485 62.5741 63.5979 60.5371 63.5979 60.5371Z" fill="#A0616A"/>
<path d="M49.2912 83.8141C49.2912 83.8141 64.6836 68.4422 68.6743 69.0115C72.6649 69.5809 72.6649 71.2888 72.6649 72.4275C72.6649 73.5662 71.5247 74.1355 72.6649 74.7048C73.8051 75.2741 74.9453 74.7048 74.9453 76.4128C74.9453 78.1208 85.2069 95.2007 81.7864 113.989C78.3658 132.776 74.3752 141.886 76.0855 152.134C77.7957 162.381 76.6555 164.659 76.6555 164.659C76.6555 164.659 33.8987 168.075 33.3286 164.089C32.7585 160.104 35.0389 162.381 32.1884 159.535C29.338 156.688 30.4782 156.688 30.4782 154.98C30.4782 153.272 43.0202 83.8141 49.2912 83.8141Z" fill="#575A89"/>
<path d="M57.2725 161.243C57.2725 161.243 50.4314 177.753 45.3006 173.768C40.1698 169.783 47.581 156.119 47.581 156.119L57.2725 161.243Z" fill="white"/>
<path d="M73.8051 84.9525C73.8051 84.9525 87.1994 86.4839 82.2125 111.053C77.2257 135.623 57.8426 164.089 57.8426 164.089L44.7305 157.827L61.8332 124.236L57.8426 103.171C57.8426 103.171 55.5622 83.2445 73.8051 84.9525Z" fill="#575A89"/>
<path opacity="0.2" d="M62.117 124.521L43.3037 155.834L45.014 157.542L62.117 124.521Z" fill="black"/>
<path opacity="0.2" d="M72.0751 139.113L56.9863 163.805H62.1173L72.0751 139.113Z" fill="black"/>
<path opacity="0.2" d="M37.9904 183.985L37.2324 184.273L52.2344 223.555L52.9923 223.266L37.9904 183.985Z" fill="black"/>
<path d="M49.3715 86.9401C49.8194 86.9401 50.1825 86.5775 50.1825 86.1302C50.1825 85.6829 49.8194 85.3203 49.3715 85.3203C48.9236 85.3203 48.5605 85.6829 48.5605 86.1302C48.5605 86.5775 48.9236 86.9401 49.3715 86.9401Z" fill="#D0CDE1"/>
<path d="M42.4775 108.808C42.5641 108.808 42.6485 108.78 42.7182 108.729C42.7879 108.677 42.8392 108.605 42.8648 108.522L49.7582 86.2498C49.7741 86.199 49.7797 86.1455 49.7749 86.0925C49.77 86.0395 49.7547 85.988 49.7299 85.9409C49.7051 85.8938 49.6712 85.852 49.6302 85.818C49.5892 85.784 49.5419 85.7584 49.4909 85.7427C49.44 85.727 49.3865 85.7214 49.3334 85.7264C49.2804 85.7313 49.2288 85.7467 49.1817 85.7716C49.1346 85.7964 49.0928 85.8304 49.0588 85.8714C49.0249 85.9124 48.9993 85.9597 48.9836 86.0106L42.0902 108.283C42.0715 108.344 42.0674 108.408 42.078 108.47C42.0887 108.533 42.1138 108.592 42.1515 108.643C42.1892 108.694 42.2383 108.735 42.2949 108.764C42.3515 108.793 42.414 108.808 42.4775 108.808V108.808Z" fill="#D0CDE1"/>
<path d="M50.6503 65.9468L47.3736 69.0599C43.9989 67.364 40.7393 62.7941 39.8193 59.0488L44.1186 57.2495C44.3993 61.0695 47.1145 63.6091 50.6503 65.9468Z" fill="white"/>
<path d="M51.4692 58.8803C51.4563 58.8803 51.4433 58.8795 51.4304 58.8777L43.8101 57.7905C43.7747 57.7855 43.7407 57.7735 43.7099 57.7554C43.6791 57.7372 43.6522 57.7132 43.6307 57.6846C43.6093 57.6561 43.5936 57.6236 43.5847 57.589C43.5758 57.5545 43.5738 57.5185 43.5789 57.4831C43.5839 57.4478 43.5959 57.4138 43.614 57.383C43.6322 57.3523 43.6563 57.3255 43.6849 57.304C43.7135 57.2826 43.746 57.267 43.7806 57.2581C43.8152 57.2492 43.8513 57.2472 43.8866 57.2522L51.507 58.3394C51.5751 58.349 51.6371 58.3841 51.6804 58.4375C51.7237 58.491 51.7451 58.5588 51.7403 58.6274C51.7355 58.696 51.7049 58.7602 51.6546 58.8071C51.6043 58.854 51.5381 58.8802 51.4692 58.8803Z" fill="white"/>
<path d="M50.3806 65.9471C50.3331 65.9471 50.2863 65.9347 50.2451 65.9111C50.2039 65.8875 50.1695 65.8535 50.1456 65.8125C50.1216 65.7716 50.1088 65.725 50.1084 65.6776C50.108 65.6301 50.1202 65.5834 50.1435 65.542L52.6684 61.0532C52.6859 61.022 52.7093 60.9946 52.7374 60.9724C52.7655 60.9503 52.7977 60.9339 52.8322 60.9242C52.8667 60.9145 52.9027 60.9117 52.9382 60.916C52.9738 60.9202 53.0081 60.9314 53.0393 60.949C53.0705 60.9665 53.0979 60.99 53.12 61.0182C53.1421 61.0463 53.1584 61.0785 53.168 61.1129C53.1776 61.1474 53.1803 61.1834 53.1759 61.2189C53.1715 61.2543 53.1602 61.2886 53.1426 61.3197L50.6177 65.8085C50.5941 65.8506 50.5596 65.8856 50.518 65.9099C50.4763 65.9343 50.4289 65.9471 50.3806 65.9471Z" fill="white"/>
<path d="M59.2155 63.7855C58.154 63.225 56.921 63.1094 55.772 62.761C51.6614 61.5146 48.9077 56.874 49.7868 52.6746C49.9493 52.136 50.0222 51.5744 50.0027 51.0122C49.8491 49.7685 48.5747 48.966 47.3527 48.681C46.1308 48.396 44.8306 48.4374 43.6627 47.9792C41.8593 47.2717 40.6615 45.4209 40.4018 43.5034C40.1421 41.586 40.7118 39.6304 41.6385 37.9311L42.0799 39.1995C42.753 38.6305 43.2527 37.8841 43.5221 37.0454C44.0237 37.1296 44.4953 37.341 44.8917 37.6593C45.2881 37.9777 45.596 38.3923 45.7859 38.8635C46.4944 39.2807 46.5965 37.5673 47.3791 37.3146C47.7068 37.2087 48.0438 37.4098 48.3559 37.5552C49.9329 38.2897 51.765 37.6617 53.4566 37.2545C56.3858 36.5528 59.4392 36.5492 62.3701 37.244C64.3173 37.7079 66.2446 38.5155 67.6379 39.9509C68.7822 41.1296 69.4951 42.6539 70.1022 44.1797C71.5966 47.9356 72.5838 51.9996 72.0905 56.011C71.6796 59.2936 70.3045 62.3812 68.1385 64.8842C67.0102 66.1824 63.3289 70.7118 61.3103 69.9396C58.7741 68.9693 62.2039 65.3634 59.2155 63.7855Z" fill="#2F2E41"/>
</svg>
