<svg width="349" height="275" viewBox="0 0 349 275" fill="none" xmlns="http://www.w3.org/2000/svg">
<g clip-path="url(#clip0)">
<path d="M121.958 84.3208H166.994" stroke="#3F3D56" stroke-width="2" stroke-miterlimit="10"/>
<path d="M68.3061 136.815C70.742 130.084 71.0948 123.973 69.0941 123.165C67.0934 122.358 63.4969 127.159 61.061 133.89C58.6251 140.621 58.2723 146.732 60.273 147.539C62.2736 148.347 65.8702 143.545 68.3061 136.815Z" fill="#2F2E41"/>
<path d="M347.568 168.223C352.468 206.733 345.796 245.285 311.862 260.297C277.928 275.309 238.896 258.425 224.682 222.586C210.468 186.747 244.005 165.303 260.388 130.513C293.657 59.8628 332.353 48.6315 347.568 168.223Z" fill="#F2F2F2"/>
<path d="M286.478 270.046C315.841 270.046 339.645 266.626 339.645 262.407C339.645 258.188 315.841 254.768 286.478 254.768C257.114 254.768 233.311 258.188 233.311 262.407C233.311 266.626 257.114 270.046 286.478 270.046Z" fill="#3F3D56"/>
<path d="M251.696 242.965L253.696 250.605L266.658 246.821L264.658 239.181L251.696 242.965Z" fill="#2F2E41"/>
<path d="M252.59 251.956C253.839 251.592 254.105 248.446 253.184 244.929C252.264 241.413 250.506 238.857 249.257 239.222C248.008 239.586 247.742 242.733 248.663 246.249C249.583 249.766 251.341 252.321 252.59 251.956Z" fill="#2F2E41"/>
<path d="M292.609 216.686C293.525 209.545 292.548 203.51 290.425 203.207C288.303 202.903 285.839 208.445 284.923 215.585C284.007 222.726 284.984 228.76 287.107 229.064C289.229 229.368 291.693 223.826 292.609 216.686Z" fill="#2F2E41"/>
<path d="M286.348 266.655C299.993 266.655 311.055 254.972 311.055 240.561C311.055 226.15 299.993 214.467 286.348 214.467C272.702 214.467 261.641 226.15 261.641 240.561C261.641 254.972 272.702 266.655 286.348 266.655Z" fill="#2F2E41"/>
<path d="M251.696 238.341L253.696 245.981L266.658 242.197L264.658 234.556L251.696 238.341Z" fill="#2F2E41"/>
<path d="M252.59 247.332C253.839 246.967 254.105 243.821 253.184 240.305C252.264 236.788 250.506 234.233 249.257 234.597C248.008 234.962 247.742 238.108 248.663 241.625C249.583 245.141 251.341 247.696 252.59 247.332Z" fill="#2F2E41"/>
<path d="M292.836 234.531C297.499 234.531 301.28 230.538 301.28 225.613C301.28 220.687 297.499 216.694 292.836 216.694C288.172 216.694 284.392 220.687 284.392 225.613C284.392 230.538 288.172 234.531 292.836 234.531Z" fill="white"/>
<path d="M295.535 224.646C297.09 224.646 298.35 223.315 298.35 221.673C298.35 220.031 297.09 218.7 295.535 218.7C293.981 218.7 292.721 220.031 292.721 221.673C292.721 223.315 293.981 224.646 295.535 224.646Z" fill="#3F3D56"/>
<path d="M314.879 258.493C324.022 258.009 331.024 248.977 330.519 238.319C330.014 227.66 322.193 219.412 313.05 219.895C303.907 220.378 302.472 227.959 302.977 238.617C303.482 249.276 305.736 258.976 314.879 258.493Z" fill="#6F63AD"/>
<path d="M276.25 229.52C274.762 229.647 273.287 229.144 272.15 228.123C271.013 227.102 270.307 225.645 270.186 224.074C270.066 222.502 270.541 220.945 271.508 219.743C272.475 218.542 273.854 217.796 275.342 217.668C278.441 217.403 279.286 220.001 279.537 223.274C279.787 226.547 279.349 229.255 276.25 229.52Z" fill="white"/>
<path d="M15.4697 119.248H153.859L175.314 130.288L209.499 147.877L231.851 103.678H295.101" stroke="#3F3D56" stroke-width="2" stroke-miterlimit="10"/>
<path d="M69.6844 128.393C72.0482 128.393 73.9644 126.369 73.9644 123.873C73.9644 121.376 72.0482 119.353 69.6844 119.353C67.3205 119.353 65.4043 121.376 65.4043 123.873C65.4043 126.369 67.3205 128.393 69.6844 128.393Z" fill="#6F63AD"/>
<path d="M109.631 123.769C111.994 123.769 113.911 121.745 113.911 119.248C113.911 116.752 111.994 114.728 109.631 114.728C107.267 114.728 105.351 116.752 105.351 119.248C105.351 121.745 107.267 123.769 109.631 123.769Z" fill="#6F63AD"/>
<path d="M175.259 134.819C177.622 134.819 179.539 132.795 179.539 130.298C179.539 127.802 177.622 125.778 175.259 125.778C172.895 125.778 170.979 127.802 170.979 130.298C170.979 132.795 172.895 134.819 175.259 134.819Z" fill="#6F63AD"/>
<path d="M267.519 108.199C269.883 108.199 271.799 106.175 271.799 103.679C271.799 101.182 269.883 99.1582 267.519 99.1582C265.156 99.1582 263.239 101.182 263.239 103.679C263.239 106.175 265.156 108.199 267.519 108.199Z" fill="#6F63AD"/>
<path d="M222.816 125.778C225.18 125.778 227.096 123.754 227.096 121.258C227.096 118.761 225.18 116.737 222.816 116.737C220.452 116.737 218.536 118.761 218.536 121.258C218.536 123.754 220.452 125.778 222.816 125.778Z" fill="#6F63AD"/>
<path d="M133.724 196.926C136.273 196.926 138.339 194.744 138.339 192.053C138.339 189.361 136.273 187.179 133.724 187.179C131.175 187.179 129.109 189.361 129.109 192.053C129.109 194.744 131.175 196.926 133.724 196.926Z" stroke="#3F3D56" stroke-width="2" stroke-miterlimit="10"/>
<path d="M53.1672 275C82.5306 275 106.334 271.58 106.334 267.361C106.334 263.142 82.5306 259.722 53.1672 259.722C23.8038 259.722 0 263.142 0 267.361C0 271.58 23.8038 275 53.1672 275Z" fill="#3F3D56"/>
<path d="M50.2921 256.131C63.9374 256.131 74.9992 244.448 74.9992 230.036C74.9992 215.625 63.9374 203.942 50.2921 203.942C36.6467 203.942 25.585 215.625 25.585 230.036C25.585 244.448 36.6467 256.131 50.2921 256.131Z" fill="#2F2E41"/>
<path d="M46.5392 250.515H39.0332V264.718H46.5392V250.515Z" fill="#2F2E41"/>
<path d="M61.5499 250.515H54.0439V264.718H61.5499V250.515Z" fill="#2F2E41"/>
<path d="M45.2882 267.361C48.7427 267.361 51.5431 266.252 51.5431 264.884C51.5431 263.515 48.7427 262.406 45.2882 262.406C41.8336 262.406 39.0332 263.515 39.0332 264.884C39.0332 266.252 41.8336 267.361 45.2882 267.361Z" fill="#2F2E41"/>
<path d="M60.2989 267.031C63.7534 267.031 66.5539 265.922 66.5539 264.553C66.5539 263.185 63.7534 262.076 60.2989 262.076C56.8444 262.076 54.0439 263.185 54.0439 264.553C54.0439 265.922 56.8444 267.031 60.2989 267.031Z" fill="#2F2E41"/>
<path d="M50.9169 232.349C55.5805 232.349 59.3611 228.356 59.3611 223.43C59.3611 218.505 55.5805 214.512 50.9169 214.512C46.2533 214.512 42.4727 218.505 42.4727 223.43C42.4727 228.356 46.2533 232.349 50.9169 232.349Z" fill="white"/>
<path d="M50.9173 226.403C52.4718 226.403 53.732 225.072 53.732 223.43C53.732 221.788 52.4718 220.458 50.9173 220.458C49.3627 220.458 48.1025 221.788 48.1025 223.43C48.1025 225.072 49.3627 226.403 50.9173 226.403Z" fill="#3F3D56"/>
<path d="M26.3252 205.77C24.3302 196.334 30.7074 186.799 40.569 184.473C50.4307 182.148 60.0423 187.912 62.0373 197.348C64.0323 206.784 57.4966 210.264 47.635 212.59C37.7734 214.915 28.3202 215.206 26.3252 205.77Z" fill="#6F63AD"/>
<path d="M41.8477 181.151C55.4931 181.151 66.5548 169.468 66.5548 155.057C66.5548 140.646 55.4931 128.963 41.8477 128.963C28.2024 128.963 17.1406 140.646 17.1406 155.057C17.1406 169.468 28.2024 181.151 41.8477 181.151Z" fill="#2F2E41"/>
<path d="M38.0948 175.536H30.5889V189.739H38.0948V175.536Z" fill="#2F2E41"/>
<path d="M53.1056 175.536H45.5996V189.739H53.1056V175.536Z" fill="#2F2E41"/>
<path d="M36.8438 192.382C40.2983 192.382 43.0988 191.273 43.0988 189.905C43.0988 188.536 40.2983 187.427 36.8438 187.427C33.3893 187.427 30.5889 188.536 30.5889 189.905C30.5889 191.273 33.3893 192.382 36.8438 192.382Z" fill="#2F2E41"/>
<path d="M51.8546 192.051C55.3091 192.051 58.1095 190.942 58.1095 189.574C58.1095 188.206 55.3091 187.097 51.8546 187.097C48.4001 187.097 45.5996 188.206 45.5996 189.574C45.5996 190.942 48.4001 192.051 51.8546 192.051Z" fill="#2F2E41"/>
<path d="M42.4725 157.369C47.1361 157.369 50.9167 153.376 50.9167 148.451C50.9167 143.526 47.1361 139.533 42.4725 139.533C37.8089 139.533 34.0283 143.526 34.0283 148.451C34.0283 153.376 37.8089 157.369 42.4725 157.369Z" fill="white"/>
<path d="M42.4729 151.424C44.0275 151.424 45.2877 150.093 45.2877 148.451C45.2877 146.809 44.0275 145.479 42.4729 145.479C40.9184 145.479 39.6582 146.809 39.6582 148.451C39.6582 150.093 40.9184 151.424 42.4729 151.424Z" fill="#3F3D56"/>
<path d="M17.8799 130.791C15.8849 121.355 22.2621 111.82 32.1237 109.494C41.9853 107.169 51.597 112.933 53.592 122.369C55.587 131.805 49.0513 135.285 39.1897 137.611C29.3281 139.936 19.8749 140.227 17.8799 130.791Z" fill="#6F63AD"/>
<path d="M25.1808 148.54C26.0986 146.497 21.8454 142.337 15.6809 139.249C9.51642 136.161 3.77506 135.314 2.85722 137.358C1.93937 139.402 6.19261 143.562 12.3571 146.65C18.5216 149.738 24.2629 150.584 25.1808 148.54Z" fill="#2F2E41"/>
<path d="M29.7109 164.471C29.7109 167.025 35.9373 172.068 42.8464 172.068C49.7554 172.068 56.2334 164.878 56.2334 162.324C56.2334 159.77 49.7554 162.82 42.8464 162.82C35.9373 162.82 29.7109 161.917 29.7109 164.471Z" fill="white"/>
<path d="M300.739 186.526H261.292V207.719H300.739V186.526Z" fill="#6F63AD"/>
<path d="M297.653 189.968H258.206V211.161H297.653V189.968Z" stroke="#3F3D56" stroke-width="2" stroke-miterlimit="10"/>
<path d="M82.1281 65.7305H70.8691V77.6214H82.1281V65.7305Z" fill="#FFDA63"/>
<path d="M79.3136 61.7671H68.0547V73.6581H79.3136V61.7671Z" stroke="#3F3D56" stroke-width="2" stroke-miterlimit="10"/>
<path d="M283.365 88.677C297.011 88.677 308.072 76.9943 308.072 62.5829C308.072 48.1715 297.011 36.4888 283.365 36.4888C269.72 36.4888 258.658 48.1715 258.658 62.5829C258.658 76.9943 269.72 88.677 283.365 88.677Z" fill="#2F2E41"/>
<path d="M292.907 96.0024L300.293 94.5903L297.897 80.6143L290.512 82.0264L292.907 96.0024Z" fill="#2F2E41"/>
<path d="M278.137 98.8286L285.522 97.4165L283.127 83.4405L275.741 84.8527L278.137 98.8286Z" fill="#2F2E41"/>
<path d="M282.057 101.77C284.693 99.4119 286.152 96.6541 285.314 95.6101C284.477 94.566 281.661 95.6311 279.025 97.989C276.389 100.347 274.931 103.105 275.768 104.149C276.605 105.193 279.421 104.128 282.057 101.77Z" fill="#2F2E41"/>
<path d="M296.522 99.0042C299.158 96.6463 300.616 93.8885 299.779 92.8444C298.942 91.8004 296.126 92.8655 293.49 95.2233C290.854 97.5812 289.395 100.339 290.233 101.383C291.07 102.427 293.886 101.362 296.522 99.0042Z" fill="#2F2E41"/>
<path d="M281.636 65.1182C286.299 65.1182 290.08 61.1254 290.08 56.2C290.08 51.2746 286.299 47.2817 281.636 47.2817C276.972 47.2817 273.191 51.2746 273.191 56.2C273.191 61.1254 276.972 65.1182 281.636 65.1182Z" fill="white"/>
<path d="M278.165 55.9763C279.72 55.9763 280.98 54.6453 280.98 53.0035C280.98 51.3617 279.72 50.0308 278.165 50.0308C276.611 50.0308 275.351 51.3617 275.351 53.0035C275.351 54.6453 276.611 55.9763 278.165 55.9763Z" fill="#3F3D56"/>
<path d="M302.857 34.1953C303.228 24.5348 295.345 16.3524 285.249 15.9193C275.153 15.4861 266.667 22.9663 266.295 32.6268C265.924 42.2872 272.942 44.4821 283.038 44.9152C293.134 45.3484 302.485 43.8557 302.857 34.1953Z" fill="#6F63AD"/>
<path d="M272.593 60.7439C273.072 58.539 268.069 55.4465 261.419 53.8366C254.769 52.2267 248.99 52.709 248.511 54.9139C248.032 57.1188 253.036 60.2113 259.686 61.8212C266.336 63.4312 272.115 62.9488 272.593 60.7439Z" fill="#2F2E41"/>
<path d="M321.093 69.262C321.571 67.0571 316.568 63.9646 309.918 62.3546C303.268 60.7447 297.489 61.2271 297.01 63.432C296.531 65.6369 301.535 68.7294 308.185 70.3393C314.835 71.9492 320.614 71.4669 321.093 69.262Z" fill="#2F2E41"/>
<path d="M290.152 72.8661C290.283 73.6344 290.271 74.4225 290.114 75.1856C289.957 75.9486 289.66 76.6716 289.238 77.3132C288.817 77.9548 288.28 78.5025 287.659 78.925C287.037 79.3475 286.343 79.6365 285.615 79.7756C284.888 79.9147 284.141 79.9011 283.419 79.7356C282.697 79.5701 282.012 79.2559 281.405 78.8109C280.797 78.366 280.278 77.7991 279.878 77.1425C279.478 76.4859 279.205 75.7526 279.073 74.9843C278.519 71.7532 280.885 70.6098 283.944 70.0249C287.003 69.44 289.598 69.635 290.152 72.8661Z" fill="white"/>
<path d="M222.865 32.7002L251.325 55.8215" stroke="#3F3D56" stroke-width="2" stroke-miterlimit="10"/>
<path d="M209.417 44.9215C221.163 44.9215 230.684 34.8655 230.684 22.4607C230.684 10.056 221.163 0 209.417 0C197.672 0 188.15 10.056 188.15 22.4607C188.15 34.8655 197.672 44.9215 209.417 44.9215Z" fill="#FFDA63"/>
<path d="M283.336 222.886C284.252 215.745 283.274 209.711 281.152 209.407C279.029 209.103 276.566 214.645 275.649 221.786C274.733 228.926 275.711 234.961 277.833 235.264C279.956 235.568 282.419 230.026 283.336 222.886Z" fill="#2F2E41"/>
<path d="M21.5203 264.149C23.8841 264.149 25.8004 262.125 25.8004 259.628C25.8004 257.132 23.8841 255.108 21.5203 255.108C19.1565 255.108 17.2402 257.132 17.2402 259.628C17.2402 262.125 19.1565 264.149 21.5203 264.149Z" fill="#6F63AD"/>
<path d="M91.5118 254.335H80.2529V266.226H91.5118V254.335Z" fill="#FFDA63"/>
<path d="M80.3182 266.791C82.682 266.791 84.5982 264.767 84.5982 262.271C84.5982 259.774 82.682 257.75 80.3182 257.75C77.9543 257.75 76.0381 259.774 76.0381 262.271C76.0381 264.767 77.9543 266.791 80.3182 266.791Z" fill="#6F63AD"/>
<path d="M144.476 88.7565C146.84 88.7565 148.756 86.7327 148.756 84.2362C148.756 81.7396 146.84 79.7158 144.476 79.7158C142.113 79.7158 140.196 81.7396 140.196 84.2362C140.196 86.7327 142.113 88.7565 144.476 88.7565Z" fill="#6F63AD"/>
<path d="M227.593 226.519C228.722 226.519 229.637 225.552 229.637 224.36C229.637 223.168 228.722 222.202 227.593 222.202C226.464 222.202 225.549 223.168 225.549 224.36C225.549 225.552 226.464 226.519 227.593 226.519Z" fill="#FFDA63"/>
<path d="M237.606 260.189V235.611" stroke="#3F3D56" stroke-width="2" stroke-miterlimit="10"/>
<path d="M237.606 239.087C239.424 239.087 240.897 237.531 240.897 235.611C240.897 233.691 239.424 232.135 237.606 232.135C235.789 232.135 234.315 233.691 234.315 235.611C234.315 237.531 235.789 239.087 237.606 239.087Z" fill="#3F3D56"/>
<path d="M237.607 250.759C237.607 250.759 237.137 240.08 227.499 241.321L237.607 250.759Z" fill="#3F3D56"/>
</g>
<defs>
<clipPath id="clip0">
<rect width="349" height="275" fill="white"/>
</clipPath>
</defs>
</svg>
