<svg width="100" height="100" viewBox="0 0 100 100" fill="none" xmlns="http://www.w3.org/2000/svg">
<path d="M88.7 32.8348V38.6025L69.3497 19.2521L53.2276 35.3938L18.8772 1.04346L16.5938 3.32692L53.2276 39.9411L69.3497 23.819L86.4363 40.886H80.6489V44.1143H91.9284V32.8348H88.7Z" fill="#6F63AD"/>
<path d="M96.7717 95.7282V73.1495H80.6496V95.7282H77.4213V47.3424H61.2992V95.7282H58.0709V57.0275H41.9291V95.7282H38.7008V34.4487H22.5787V95.7479H19.3504V24.7637H3.22835V95.7282H0V98.9566H100V95.7282H96.7717ZM16.1417 95.7282H6.45669V27.992H16.1417V95.7282ZM35.4921 95.7282H25.8071V37.6574H35.4921V95.7282ZM54.8425 95.7479H45.1575V60.2558H54.8425V95.7479ZM74.1929 95.7282H64.5079V50.5708H74.1929V95.7282ZM93.563 95.7282H83.878V76.3778H93.563V95.7282Z" fill="#6F63AD"/>
</svg>
