<svg width="100" height="100" viewBox="0 0 100 100" fill="none" xmlns="http://www.w3.org/2000/svg">
<path d="M77.5052 53.3498L66.6916 39.5841C70.5314 35.6475 72.8502 30.4762 73.2354 24.9905H89.9798V26.823C86.1038 27.6196 83.3204 31.0291 83.316 34.9861C83.3171 39.5864 87.0471 43.315 91.6474 43.3141C96.2477 43.3133 99.9762 39.5831 99.9754 34.9828C99.9746 31.0251 97.1893 27.6146 93.3116 26.823V23.3246C93.3116 22.4045 92.5657 21.6586 91.6457 21.6586H73.2354C72.9097 17.0429 71.2096 12.6303 68.3542 8.98916L70.6782 6.66518H90.2863C91.2063 9.26758 94.0619 10.6314 96.6641 9.71114C99.2665 8.79113 100.63 5.9355 99.7101 3.33331C98.7899 0.73111 95.9347 -0.632876 93.3325 0.287138C91.9091 0.790251 90.7896 1.90997 90.2865 3.3331H69.9887C69.5468 3.3331 69.1233 3.50885 68.8109 3.82122L66.1204 6.51171C56.8624 -2.40439 42.1292 -2.12722 33.2129 7.13081C29.4233 11.0658 27.1387 16.2085 26.7593 21.6584H12.7654L7.31927 9.40898C9.75383 8.12767 10.6888 5.11565 9.40773 2.68109C8.12663 0.246531 5.1144 -0.688269 2.67984 0.592837C0.245491 1.87394 -0.689517 4.88596 0.591589 7.32052C1.26484 8.59996 2.46098 9.52393 3.86911 9.85191L10.158 24.0024C10.4258 24.6036 11.0226 24.9907 11.6807 24.9903H26.7591C27.1427 30.4129 29.4167 35.529 33.1846 39.4473L19.1208 53.5112C10.027 52.1486 1.55054 58.4159 0.188016 67.5096C-1.17451 76.6033 5.09275 85.0798 14.1865 86.4424C14.4609 86.4836 14.7364 86.5178 15.0126 86.545V94.9597C15.0126 95.8797 15.7585 96.6256 16.6785 96.6256H31.9785C32.8985 99.228 35.7541 100.592 38.3563 99.6716C40.9585 98.7514 42.3225 95.8959 41.4023 93.2937C40.4821 90.6916 37.6266 89.3276 35.0244 90.2478C33.6011 90.7509 32.4816 91.8706 31.9785 93.2937H18.3444V86.545C27.4942 85.6329 34.1723 77.4761 33.2602 68.3261C32.643 62.1347 28.6247 56.8039 22.8425 54.5057L35.6702 41.678C44.024 48.2555 55.7826 48.3028 64.1894 41.7929L73.432 53.5578C60.6699 55.3381 51.7673 67.1269 53.5476 79.8888C55.3279 92.6509 67.1167 101.553 79.8786 99.7732C92.6407 97.9929 101.543 86.2041 99.763 73.4422C98.1995 62.2325 88.8159 53.7619 77.5052 53.3498ZM96.6435 34.9861C96.6435 37.7464 94.406 39.9839 91.6457 39.9839C88.8855 39.9839 86.6479 37.7464 86.6479 34.9861C86.6479 32.2259 88.8855 29.9883 91.6457 29.9883C94.406 29.9883 96.6435 32.2259 96.6435 34.9861ZM94.9776 3.33331C95.8976 3.33331 96.6435 4.07923 96.6435 4.99924C96.6435 5.91926 95.8976 6.66518 94.9776 6.66518C94.0576 6.66518 93.3116 5.91926 93.3116 4.99924C93.3116 4.07923 94.0576 3.33331 94.9776 3.33331ZM5.01694 6.66518C4.09693 6.66518 3.35101 5.91926 3.35101 4.99924C3.35101 4.07923 4.09693 3.33331 5.01694 3.33331C5.93696 3.33331 6.68288 4.07923 6.68288 4.99924C6.68288 5.91926 5.93696 6.66518 5.01694 6.66518ZM36.6698 93.294C37.5898 93.294 38.3357 94.0399 38.3357 94.9599C38.3357 95.8799 37.5898 96.6258 36.6698 96.6258C35.7497 96.6258 35.0038 95.8799 35.0038 94.9599C35.0038 94.0399 35.7497 93.294 36.6698 93.294ZM23.3423 81.4958C19.2251 83.9001 14.1319 83.9001 10.0148 81.4958V78.3005C10.0148 74.6202 12.9982 71.6368 16.6785 71.6368C20.3588 71.6368 23.3423 74.6202 23.3423 78.3005V81.4958ZM13.3466 64.973C13.3466 63.1328 14.8383 61.6411 16.6785 61.6411C18.5187 61.6411 20.0104 63.1328 20.0104 64.973C20.0104 66.8132 18.5187 68.3049 16.6785 68.3049C14.8383 68.3049 13.3466 66.813 13.3466 64.973ZM26.6741 61.1264C28.8278 63.5684 30.0131 66.7145 30.006 69.9708C30.0054 73.2082 28.8203 76.3333 26.6741 78.757V78.3005C26.6721 74.6584 24.689 71.3055 21.4981 69.5493C24.0392 66.8872 23.941 62.669 21.2788 60.1278C18.6166 57.5869 14.3985 57.6849 11.8573 60.3471C9.3994 62.922 9.3994 66.9742 11.8573 69.5491C8.66702 71.3057 6.68476 74.6584 6.68288 78.3003V78.7568C1.81439 73.2363 2.34291 64.8143 7.8632 59.9458C13.3837 55.0773 21.8056 55.6059 26.6741 61.1264ZM61.6588 39.5241C54.7042 44.5732 45.2904 44.5732 38.3357 39.5241V35.4859C38.3357 32.4497 40.7971 29.9883 43.8333 29.9883H47.5317L45.1144 36.0323C44.8668 36.6514 45.0124 37.3588 45.4842 37.8299L48.8161 41.1618C49.4667 41.8121 50.5212 41.8121 51.1717 41.1618L54.5036 37.8299C54.9755 37.3586 55.1211 36.6514 54.8735 36.0323L52.4579 29.9883H56.1612C59.1974 29.9883 61.6588 32.4497 61.6588 35.4859V39.5241ZM50.2357 12.471C50.1732 12.5751 50.1224 12.6855 50.0841 12.8006C49.2411 15.3278 44.69 16.2858 41.7596 16.564C42.2065 10.981 44.8337 8.33091 49.9975 8.33091C54.7254 8.33091 57.3276 10.5666 58.0723 15.2312L52.5214 11.8993C51.7321 11.4262 50.7088 11.6822 50.2357 12.471ZM52.2946 15.6512L58.2487 19.2247C57.5806 23.3029 52.5545 26.6564 49.9973 26.6564C46.2816 26.0236 43.1907 23.447 41.8991 19.9061C44.7512 19.6712 49.9006 18.8065 52.2946 15.6512ZM51.3733 36.2506L49.9973 37.6283L48.6212 36.2506L49.9973 32.8071L51.3733 36.2506ZM57.2658 26.7331C59.8646 24.6879 61.4637 21.628 61.6588 18.3267C61.6588 7.31157 55.3166 4.99924 49.9973 4.99924C44.6779 4.99924 38.3357 7.31157 38.3357 18.3267C38.5294 21.6299 40.1287 24.6919 42.7288 26.7381C38.3128 27.2822 34.9974 31.0364 35.0038 35.4859V36.4988C27.701 28.2183 28.4935 15.5852 36.7743 8.28239C45.055 0.979543 57.6879 1.77211 64.9907 10.0527C71.6545 17.6087 71.6545 28.9425 64.9907 36.4986V35.4857C64.9997 31.0345 61.6836 27.2772 57.2658 26.7331ZM88.3138 92.8342C81.3592 97.8832 71.9454 97.8832 64.9907 92.8342V88.7959C64.9907 85.7598 67.4521 83.2983 70.4883 83.2983H74.1867L71.7694 89.3424C71.5218 89.9615 71.6674 90.6686 72.1392 91.1399L75.4711 94.4718C76.1217 95.1221 77.1762 95.1221 77.8268 94.4718L81.1586 91.1399C81.6305 90.6686 81.7761 89.9615 81.5285 89.3424L79.1129 83.2983H82.8162C85.8524 83.2983 88.3138 85.7598 88.3138 88.7959V92.8342ZM78.9496 68.9613V68.9596L84.9037 72.533C84.2356 76.6129 79.2095 79.9664 76.6523 79.9664C72.9366 79.3336 69.8457 76.757 68.5541 73.2161C71.4062 72.9812 76.5556 72.1163 78.9496 68.9613ZM68.4142 69.8742C68.8607 64.2916 71.4879 61.6411 76.6523 61.6411C81.3802 61.6411 83.9824 63.8768 84.7271 68.5415L79.1762 65.2096C78.3871 64.7362 77.3638 64.9922 76.8905 65.7812C76.828 65.8853 76.7772 65.9957 76.7389 66.1108C75.8959 68.6381 71.3446 69.596 68.4142 69.8742ZM78.0283 89.5606L76.6523 90.9383L75.2762 89.5606L76.6523 86.1171L78.0283 89.5606ZM91.6457 89.8136V88.7957C91.6547 84.3443 88.3386 80.5872 83.9208 80.0429C86.5196 77.9977 88.1187 74.9378 88.3138 71.6366C88.3138 60.6214 81.9716 58.3091 76.6523 58.3091C71.3329 58.3091 64.9907 60.6214 64.9907 71.6366C65.1844 74.9397 66.7837 78.0017 69.3838 80.0479C64.9678 80.592 61.6524 84.3462 61.6588 88.7957V89.8086C54.3731 81.5216 55.1848 68.8971 63.4718 61.6114C71.7588 54.3256 84.3833 55.1373 91.669 63.4243C94.8793 67.0756 96.6479 71.7723 96.6435 76.6342C96.6425 81.4904 94.8649 86.1781 91.6457 89.8136Z" fill="#6F63AD"/>
</svg>
