<svg width="100" height="100" viewBox="0 0 100 100" fill="none" xmlns="http://www.w3.org/2000/svg">
<path d="M2.45254 62.319C3.00064 62.7003 3.57991 63.0349 4.18421 63.319C4.90421 63.6873 6.11087 64.304 6.19587 64.7356C6.30073 65.3054 6.23222 65.8935 5.99921 66.424C5.75087 66.9573 5.49087 67.4156 5.26587 67.8106C4.65587 68.889 3.63421 70.6956 5.17421 71.954C5.53421 72.2873 6.15587 72.769 6.72254 73.204C6.30538 73.9334 6.11669 74.7712 6.18087 75.609C6.26898 76.2685 6.6269 76.8618 7.16921 77.2473C7.53921 77.509 7.93421 77.7356 8.32421 77.9573C9.30921 78.519 9.69421 78.7806 9.82421 79.3023C9.91681 79.9731 9.85989 80.6561 9.65754 81.3023C9.55921 81.7473 9.46421 82.194 9.40754 82.6356C9.24204 84.1545 9.42969 85.6912 9.95587 87.1256C10.7054 89.7731 13.0998 91.6178 15.8509 91.6673C16.3102 91.6659 16.7682 91.6173 17.2175 91.5223C21.9788 90.3937 26.6706 88.9896 31.2692 87.3173C35.0242 89.5206 37.3959 96.2206 38.0142 98.7356C38.1988 99.4791 38.8665 100.001 39.6325 100.001L81.4659 99.884C81.996 99.8829 82.4941 99.6297 82.8073 99.202C83.1205 98.7743 83.2116 98.223 83.0526 97.7173C82.6405 96.5881 82.0722 95.5221 81.3642 94.5506C80.9646 93.9745 80.6043 93.372 80.2859 92.7473C79.5315 91.2208 78.9022 89.6356 78.4042 88.0073C77.4653 84.8215 76.8106 81.5587 76.4475 78.2573C76.3929 77.6514 76.0125 77.1234 75.4551 76.8798C74.8977 76.6362 74.2518 76.7156 73.77 77.087C73.2882 77.4585 73.0471 78.0629 73.1409 78.664C73.5263 82.1632 74.2218 85.6212 75.2192 88.9973C75.7676 90.7888 76.4593 92.5334 77.2875 94.214C77.6678 94.9687 78.0994 95.6966 78.5792 96.3923L78.6909 96.559L40.8925 96.6673C39.7861 92.7137 37.778 89.0705 35.0259 86.024L36.5259 85.499C37.6425 85.109 38.4842 84.8156 38.9159 84.6773C46.0559 82.419 49.6259 79.1673 49.5292 75.0106C49.5306 74.5665 49.3499 74.1412 49.0293 73.8338C48.7087 73.5265 48.2762 73.3639 47.8325 73.384C46.9126 73.4058 46.1845 74.169 46.2059 75.089C46.2459 76.804 44.8409 79.3056 37.9125 81.4973C37.4609 81.6423 36.5909 81.9456 35.4359 82.349C34.1975 82.7823 32.6225 83.3323 30.8859 83.9223H30.8742C26.1839 85.6416 21.3981 87.0884 16.5409 88.2556C14.9867 88.5552 13.4731 87.5748 13.1109 86.034C12.7548 85.0858 12.6208 84.0686 12.7192 83.0606C12.7625 82.7106 12.8425 82.364 12.9192 82.0156C13.2588 80.8628 13.3086 79.644 13.0642 78.4673C12.5778 76.9385 11.4524 75.6958 9.97921 75.0606L9.63254 74.8623C9.8125 74.499 10.0274 74.154 10.2742 73.8323C10.5538 73.478 10.6778 73.0255 10.6178 72.5782C10.5578 72.1309 10.3189 71.727 9.95587 71.459C9.55587 71.1656 8.61254 70.459 7.92254 69.9023C8.00254 69.7573 8.08921 69.5973 8.17254 69.4523C8.43421 68.994 8.73254 68.4606 9.02421 67.844C9.55162 66.6757 9.70697 65.3735 9.46921 64.114C9.06921 62.0806 7.12254 61.084 5.70087 60.3573C5.22281 60.131 4.76454 59.8651 4.33087 59.5623C3.97349 59.3222 3.63877 59.0499 3.33087 58.749C3.33087 58.4973 3.60087 57.8873 4.87087 56.339C7.85561 52.4979 10.4135 48.3435 12.4992 43.949C12.8927 43.2602 13.114 42.4866 13.1442 41.694C12.9721 40.0187 12.0843 38.4996 10.7092 37.5273C10.0342 36.909 9.39921 36.3256 9.32587 35.7873C9.33701 35.3923 9.42534 35.0033 9.58587 34.6423C9.85754 33.9273 10.1709 33.2273 10.4859 32.5256C11.1693 31.1165 11.7152 29.6446 12.1159 28.1306L12.2825 27.4206C12.636 25.7543 13.0913 24.1112 13.6459 22.5006C14.9597 18.8744 16.9939 15.5516 19.6259 12.7323C22.8142 9.35895 27.8325 6.97228 34.5659 5.63395C39.7163 4.50329 44.9424 3.75017 50.2025 3.38062C52.826 3.23858 55.457 3.38783 58.0475 3.82562C58.943 3.95984 59.7818 3.35456 59.9367 2.46244C60.0916 1.57031 59.5059 0.717734 58.6175 0.542283C55.7819 0.0603663 52.9013 -0.103982 50.0292 0.0522833C44.606 0.428431 39.2177 1.20161 33.9075 2.36562C26.3925 3.86562 20.9309 6.50062 17.2025 10.4406C14.2616 13.5876 11.9876 17.297 10.5175 21.3456C9.91732 23.0878 9.42418 24.865 9.04087 26.6673L8.87421 27.3706C8.51849 28.6778 8.04142 29.9489 7.44921 31.1673C7.11587 31.9273 6.76921 32.6873 6.47087 33.474C6.08715 34.3502 5.93507 35.3104 6.02921 36.2623C6.36553 37.7546 7.22819 39.0758 8.45921 39.984C9.27421 40.7323 9.80921 41.259 9.81587 41.7173C9.75554 41.9712 9.65959 42.2153 9.53087 42.4423C7.53421 46.6488 5.08652 50.626 2.23087 54.304C1.02587 55.7723 -0.235794 57.484 0.0325395 59.1956C0.385553 60.5202 1.25809 61.6463 2.45254 62.319Z" fill="#6F63AD"/>
<path d="M18.6108 29.6552L18.7775 28.9135C19.0696 27.5279 19.4408 26.1601 19.8891 24.8169C20.8929 22.0344 22.4485 19.4833 24.4625 17.3169C26.6225 15.2802 29.2664 13.8283 32.1441 13.0985C32.7252 12.9348 33.1722 12.4697 33.3129 11.8826C33.4535 11.2956 33.2657 10.6784 32.822 10.2692C32.3783 9.85991 31.7479 9.7226 31.1741 9.91019C27.7398 10.8027 24.5935 12.5655 22.0391 15.0285C19.7181 17.5236 17.925 20.4618 16.7675 23.6669C16.2674 25.1463 15.855 26.6539 15.5325 28.1819L15.3658 28.9035C15.1578 29.7995 15.715 30.6946 16.6108 30.9035C16.7348 30.9326 16.8618 30.9472 16.9891 30.9469C17.7643 30.9458 18.4364 30.4105 18.6108 29.6552Z" fill="#6F63AD"/>
<path d="M15.0007 36.6668C15.9211 36.6668 16.6673 35.9206 16.6673 35.0002C16.6673 34.0797 15.9211 33.3335 15.0007 33.3335C14.0802 33.3335 13.334 34.0797 13.334 35.0002C13.334 35.9206 14.0802 36.6668 15.0007 36.6668Z" fill="#6F63AD"/>
<path d="M44.9988 33.6832C44.8846 39.3651 46.8925 44.8856 50.6304 49.1665C51.807 50.389 53.0898 51.5044 54.4638 52.4998C56.9021 54.3848 59.2121 56.1865 59.8254 58.6932C57.9213 59.4468 56.6692 61.2853 56.6654 63.3332V66.6665C56.6742 68.7778 58.0082 70.6561 59.9988 71.3598V71.6665C59.9988 75.3484 62.9835 78.3332 66.6654 78.3332C70.3473 78.3332 73.3321 75.3484 73.3321 71.6665V71.3598C75.3227 70.6561 76.6567 68.7778 76.6654 66.6665V63.3332C76.6606 61.2837 75.4055 59.4447 73.4987 58.6932C74.1104 56.1932 76.4221 54.3848 78.8604 52.4998C80.234 51.504 81.5168 50.3885 82.6937 49.1665C86.4331 44.886 88.4433 39.3658 88.3321 33.6832C88.2856 21.6788 78.6675 11.9053 66.6654 11.6665C54.6633 11.9053 45.0452 21.6788 44.9988 33.6832ZM61.6654 36.6665H59.9988C59.0783 36.6665 58.3321 35.9203 58.3321 34.9998C58.3321 34.0794 59.0783 33.3332 59.9988 33.3332C60.9192 33.3332 61.6654 34.0794 61.6654 34.9998V36.6665ZM68.3321 58.3332H64.9988V39.9998H68.3321V58.3332ZM66.6654 74.9998C64.8245 74.9998 63.3321 73.5075 63.3321 71.6665H69.9987C69.9987 73.5075 68.5064 74.9998 66.6654 74.9998ZM73.3321 66.6665C73.3321 67.587 72.5859 68.3332 71.6654 68.3332H61.6654C60.7449 68.3332 59.9988 67.587 59.9988 66.6665V63.3332C59.9988 62.4127 60.7449 61.6665 61.6654 61.6665H71.6654C72.5859 61.6665 73.3321 62.4127 73.3321 63.3332V66.6665ZM84.9987 33.7348C85.1025 38.5742 83.4015 43.279 80.2271 46.9332C79.1817 48.005 78.0458 48.9848 76.8321 49.8615C74.867 51.2305 73.1243 52.8939 71.6654 54.7932V39.9998H73.3321C76.0935 39.9998 78.3321 37.7613 78.3321 34.9998C78.3321 32.2384 76.0935 29.9998 73.3321 29.9998C70.5707 29.9998 68.3321 32.2384 68.3321 34.9998V36.6665H64.9988V34.9998C64.9988 32.2384 62.7602 29.9998 59.9988 29.9998C57.2373 29.9998 54.9988 32.2384 54.9988 34.9998C54.9988 37.7613 57.2373 39.9998 59.9988 39.9998H61.6654V54.7932C60.2092 52.8948 58.4694 51.232 56.5071 49.8632C55.2928 48.9858 54.1564 48.0055 53.1104 46.9332C49.9327 43.2805 48.2292 38.5752 48.3321 33.7348C48.4988 23.5782 56.8854 14.9998 66.6654 14.9998C76.4454 14.9998 84.8404 23.5782 84.9987 33.7348ZM71.6654 36.6665V34.9998C71.6654 34.0794 72.4116 33.3332 73.3321 33.3332C74.2526 33.3332 74.9987 34.0794 74.9987 34.9998C74.9987 35.9203 74.2526 36.6665 73.3321 36.6665H71.6654Z" fill="#6F63AD"/>
<path d="M93.3327 34.9998H98.3327C99.2531 34.9998 99.9993 34.2536 99.9993 33.3332C99.9993 32.4127 99.2531 31.6665 98.3327 31.6665H93.3327C92.4122 31.6665 91.666 32.4127 91.666 33.3332C91.666 34.2536 92.4122 34.9998 93.3327 34.9998Z" fill="#6F63AD"/>
<path d="M85.5196 16.1449C85.9622 16.1453 86.3867 15.9696 86.6996 15.6566L90.2346 12.1199C90.6679 11.7015 90.8416 11.0818 90.6891 10.4991C90.5366 9.91635 90.0815 9.46128 89.4988 9.30875C88.9161 9.15623 88.2964 9.32999 87.8779 9.76325L84.3413 13.2982C83.8636 13.7747 83.7203 14.4923 83.9783 15.1157C84.2364 15.7391 84.8449 16.1454 85.5196 16.1449Z" fill="#6F63AD"/>
<path d="M66.6647 8.33333C67.5852 8.33333 68.3314 7.58714 68.3314 6.66667V1.66667C68.3314 0.746192 67.5852 0 66.6647 0C65.7442 0 64.998 0.746192 64.998 1.66667V6.66667C64.998 7.58714 65.7442 8.33333 66.6647 8.33333Z" fill="#6F63AD"/>
<path d="M48.9881 15.6566C49.3011 15.344 49.4769 14.9198 49.4769 14.4774C49.4769 14.0351 49.3011 13.6109 48.9881 13.2983L45.4515 9.76325C45.033 9.32999 44.4133 9.15623 43.8306 9.30875C43.2479 9.46128 42.7928 9.91636 42.6403 10.4991C42.4878 11.0818 42.6615 11.7015 43.0948 12.1199L46.6298 15.6566C46.9424 15.9695 47.3666 16.1454 47.809 16.1454C48.2513 16.1454 48.6755 15.9695 48.9881 15.6566Z" fill="#6F63AD"/>
<path d="M34.9987 31.6665C34.0782 31.6665 33.332 32.4127 33.332 33.3332C33.332 34.2536 34.0782 34.9998 34.9987 34.9998H39.9987C40.9192 34.9998 41.6654 34.2536 41.6654 33.3332C41.6654 32.4127 40.9192 31.6665 39.9987 31.6665H34.9987Z" fill="#6F63AD"/>
</svg>
