<svg width="21" height="26" viewBox="0 0 21 26" fill="none" xmlns="http://www.w3.org/2000/svg">
<path d="M15.3126 6.28327C15.3126 3.6616 13.147 1.5166 10.5001 1.5166C7.85325 1.5166 5.68762 3.6616 5.68762 6.28327C5.68762 8.90493 7.85325 11.0499 10.5001 11.0499C13.147 11.0499 15.3126 8.90493 15.3126 6.28327Z" fill="black"/>
<path d="M12.4032 12.0465C11.7907 12.2415 11.1564 12.3498 10.5001 12.3498C9.84387 12.3498 9.2095 12.2415 8.597 12.0465C6.672 11.4181 4.52825 11.9381 3.2595 13.4765C2.31887 14.6248 1.75012 16.0981 1.75012 17.6798C1.75012 18.5681 2.472 19.2831 3.36887 19.2831H17.6314C18.5282 19.2831 19.2501 18.5681 19.2501 17.6798C19.2501 16.0981 18.6814 14.6248 17.7407 13.4765C16.4501 11.9381 14.3282 11.4181 12.4032 12.0465Z" fill="black"/>
</svg>
